<?xml version="1.0" encoding="UTF-8" standalone="no"?>
<!-- Created with Inkscape (http://www.inkscape.org/) -->

<svg
   version="1.1"
   id="svg130"
   width="1011"
   height="945"
   viewBox="0 0 1011 945"
   sodipodi:docname="logo.svg"
   inkscape:version="1.2 (dc2aedaf03, 2022-05-15)"
   xmlns:inkscape="http://www.inkscape.org/namespaces/inkscape"
   xmlns:sodipodi="http://sodipodi.sourceforge.net/DTD/sodipodi-0.dtd"
   xmlns="http://www.w3.org/2000/svg"
   xmlns:svg="http://www.w3.org/2000/svg">
  <defs
     id="defs134" />
  <sodipodi:namedview
     id="namedview132"
     pagecolor="#ffffff"
     bordercolor="#000000"
     borderopacity="0.25"
     inkscape:showpageshadow="2"
     inkscape:pageopacity="0.0"
     inkscape:pagecheckerboard="0"
     inkscape:deskcolor="#d1d1d1"
     showgrid="false"
     inkscape:zoom="0.60309848"
     inkscape:cx="-208.09205"
     inkscape:cy="586.96881"
     inkscape:window-width="1920"
     inkscape:window-height="1009"
     inkscape:window-x="1912"
     inkscape:window-y="-8"
     inkscape:window-maximized="1"
     inkscape:current-layer="g136" />
  <g
     inkscape:groupmode="layer"
     inkscape:label="Image"
     id="g136">
    <g
       id="g316"
       transform="translate(-5.1168388,-1.7355033)">
      <path
         style="fill:#4bcfc1"
         d="m 671.25,926.82529 c -5.3625,-0.0961 -11.775,-0.31906 -14.25,-0.49549 -2.475,-0.17643 -9.675,-0.78695 -16,-1.35672 -6.325,-0.56977 -16.225,-1.72492 -22,-2.567 -5.775,-0.84209 -17.60979,-3.1007 -26.29954,-5.01914 -8.68974,-1.91843 -21.73974,-5.31548 -29,-7.54899 -7.26025,-2.2335 -18.37546,-6.09464 -24.70046,-8.58029 -6.325,-2.48566 -18.7,-7.8903 -27.5,-12.01033 -8.8,-4.12002 -21.4,-10.43038 -28,-14.02301 -6.6,-3.59263 -15.91703,-8.9524 -20.7045,-11.91061 -4.78748,-2.9582 -13.78748,-9.02592 -20,-13.48381 -6.21253,-4.4579 -15.75105,-11.9746 -21.19672,-16.70378 -5.44567,-4.72918 -13.88254,-13.03423 -18.74861,-18.45567 -4.86606,-5.42144 -11.58933,-13.95641 -14.94059,-18.96661 -3.35127,-5.01019 -8.09361,-13.09248 -10.53855,-17.96063 -2.44493,-4.86815 -5.75703,-12.76636 -7.36023,-17.55158 -1.60319,-4.78521 -3.61148,-12.69486 -4.46285,-17.577 C 364.69627,737.73073 364,728.00844 364,721 c 0,-7.00844 0.69627,-16.73073 1.54795,-21.61463 0.85137,-4.88214 2.85966,-12.79179 4.46285,-17.577 1.6032,-4.78522 4.9105,-12.66219 7.34955,-17.50438 2.43906,-4.8422 7.25851,-12.76398 10.70988,-17.60397 3.45138,-4.83998 11.59739,-13.93117 18.10226,-20.20264 7.54116,-7.27059 16.00652,-14.18602 23.36052,-19.08344 6.34342,-4.22442 11.69461,-7.50823 11.89153,-7.29735 0.19692,0.21087 1.35692,3.98341 2.57777,8.38341 1.22086,4.4 3.9068,12.5 5.96877,18 2.06197,5.5 6.11878,14.725 9.01514,20.5 2.89636,5.775 7.93918,14.40928 11.20627,19.18728 3.26709,4.778 9.62282,12.44844 14.12384,17.04541 4.50102,4.59697 11.59208,10.62208 15.7579,13.38913 4.16583,2.76705 11.59083,6.72569 16.5,8.79699 4.90918,2.0713 17.47577,6.60022 27.92577,10.06426 10.45,3.46405 24.175,7.43906 30.5,8.83337 6.325,1.39431 15.55,3.28217 20.5,4.19525 4.95,0.91307 11.7,2.95282 15,4.53276 3.3,1.57995 9.15,5.28592 13,8.2355 3.85,2.94958 9.6297,8.48074 12.84378,12.29146 3.21408,3.81073 7.6512,9.96328 9.86026,13.67235 2.20906,3.70906 5.81702,10.90906 8.01769,16 2.20067,5.09093 5.02767,13.30624 6.28221,18.25624 1.49549,5.90068 2.68129,15.02645 3.44339,26.5 0.63932,9.625 2.05935,24.25 3.15561,32.5 1.09627,8.25 3.77048,23.325 5.94269,33.5 2.17221,10.175 4.84714,21.425 5.94428,25 1.09715,3.575 1.99825,6.8375 2.00245,7.25 0.004,0.4125 -4.37986,0.67138 -9.74236,0.57529 z M 342.96429,697 c -0.33472,0 -2.91972,-7.0875 -5.74445,-15.75 -2.82474,-8.6625 -6.0279,-19.35 -7.11815,-23.75 -1.09025,-4.4 -2.88581,-12.54473 -3.99013,-18.09941 -1.10432,-5.55467 -3.03601,-17.02967 -4.29264,-25.5 -2.02518,-13.65077 -2.28608,-19.20687 -2.29621,-48.90059 -0.009,-27.2582 0.32527,-35.73587 1.79568,-45.5 0.99391,-6.6 2.93787,-17.3696 4.31989,-23.93243 1.38203,-6.56284 4.01442,-17.14954 5.84975,-23.526 1.83534,-6.37646 5.1112,-16.30686 7.2797,-22.06756 2.16849,-5.76071 4.24243,-11.16098 4.60875,-12.00061 0.52504,-1.20342 -1.08496,-2.08027 -7.60522,-4.14199 -4.54919,-1.43847 -14.12126,-4.73712 -21.27126,-7.33034 -7.15,-2.59322 -18.35642,-6.94868 -24.90316,-9.67881 -6.54673,-2.73012 -19.14673,-8.58526 -28,-13.01141 -8.85326,-4.42616 -22.32993,-11.65459 -29.94814,-16.06318 -7.61822,-4.4086 -19.54322,-11.8522 -26.5,-16.54133 C 198.19191,366.5172 187.325,358.77145 181,353.99357 c -6.325,-4.77789 -16.9,-13.20084 -23.5,-18.71766 -6.6,-5.51683 -17.74751,-15.53658 -24.77224,-22.26613 -7.02473,-6.72954 -18.06229,-18.14724 -24.52792,-25.37266 C 101.73422,280.41171 92.125793,269.1 86.847777,262.5 81.569761,255.9 73.482323,245.23525 68.875692,238.80055 c -4.606631,-6.43469 -11.823747,-17.23469 -16.038037,-24 C 48.623365,208.03525 42.358986,197.55 38.916812,191.5 35.474638,185.45 29.135194,173.20129 24.829157,164.28065 20.523121,155.36 17,147.62508 17,147.09192 c 0,-0.53316 2.1375,-1.26431 4.75,-1.62478 2.6125,-0.36047 11.121617,-1.72626 18.90915,-3.03509 7.787532,-1.30882 21.062532,-3.16849 29.5,-4.13259 11.981256,-1.36904 23.772218,-1.75801 53.84085,-1.77619 25.41333,-0.0154 42.74892,0.43153 51,1.31472 6.875,0.73589 18.575,2.19947 26,3.25241 7.425,1.05293 14.68258,2.16203 16.12795,2.46466 l 2.62795,0.55024 -2.92131,-9.80265 C 215.22787,128.91119 212.38256,118.425 210.51168,111 c -1.87087,-7.425 -4.74339,-20.7 -6.38337,-29.5 -1.63997,-8.8 -3.9025,-23.425 -5.02784,-32.5 -1.12533,-9.075 -2.34519,-20.4375 -2.71079,-25.25 l -0.66472,-8.75 2.88752,0.0095 c 1.58814,0.0052 8.8493,1.117238 16.13593,2.47113 7.28663,1.353891 19.21163,3.851389 26.5,5.549995 7.28837,1.698606 18.63258,4.684315 25.20935,6.634908 6.57676,1.950593 19.67579,6.186531 29.10895,9.413196 9.43316,3.226665 23.06715,8.357385 30.29777,11.401599 7.23061,3.044215 19.55658,8.605888 27.39104,12.359275 7.83446,3.753387 20.09448,10.110188 27.24448,14.126226 7.15,4.016038 18.4,10.669598 25,14.78569 6.6,4.116092 16.5,10.668361 22,14.560601 5.5,3.89224 14.50699,10.54212 20.01553,14.7775 5.50855,4.23538 16.53355,13.30954 24.5,20.1648 7.96646,6.85527 22.35947,20.52733 31.98447,30.38238 9.625,9.85504 21.83151,23.08087 27.12558,29.39072 5.29407,6.30986 13.84407,17.13297 19,24.05136 5.15593,6.91839 10.81612,14.66454 12.57819,17.21366 l 3.20378,4.63476 3.69194,-1.27818 c 3.32657,-1.15169 3.90845,-1.91507 5.87973,-7.71366 1.20328,-3.53951 3.45001,-8.91047 4.99272,-11.93547 1.54271,-3.025 4.54019,-8.05921 6.66107,-11.18714 2.12087,-3.12792 6.38205,-8.41542 9.46927,-11.75 L 602.21543,197 H 591.10771 C 584.99847,197 580,196.63532 580,196.1896 c 0,-0.44572 3.0375,-3.44371 6.75,-6.66221 3.7125,-3.2185 10.125,-8.36292 14.25,-11.43205 4.125,-3.06913 12.08854,-8.3433 17.69676,-11.72037 5.60822,-3.37708 15.68386,-8.4575 22.39031,-11.28983 6.70646,-2.83233 16.51791,-6.43004 21.80324,-7.99491 5.28533,-1.56486 14.33469,-3.68784 20.10969,-4.71772 8.19214,-1.46094 15.22563,-1.86188 32,-1.82413 18.34558,0.0413 23.00371,0.37414 31.74903,2.26874 5.63697,1.22119 14.41197,3.60231 19.5,5.29136 5.08803,1.68906 14.06346,5.46377 19.94538,8.38826 5.88193,2.92449 14.88193,8.15277 20,11.61841 5.91925,4.00814 14.22685,11.2291 22.82909,19.84301 7.74116,7.75167 16.3834,17.60382 20.21213,23.04184 3.67875,5.225 8.96853,13.6 11.75507,18.6111 l 5.06643,9.11111 15.90257,7.60454 c 8.74641,4.18249 29.77105,13.75217 46.72143,21.26594 16.95038,7.51378 37.68137,16.94614 46.06887,20.96081 l 15.25,7.2994 v 4.14094 c 0,3.47451 -0.28164,4.05753 -1.75,3.62269 -0.9625,-0.28504 -5.35,-1.40432 -9.75,-2.48729 -4.4,-1.08297 -11.6,-2.67615 -16,-3.5404 -4.4,-0.86425 -11.375,-2.04537 -15.5,-2.62471 -4.125,-0.57934 -12.61575,-1.69368 -18.86833,-2.4763 -6.25258,-0.78263 -18.85258,-1.71818 -28,-2.07901 -9.90261,-0.39061 -22.41622,-0.19379 -30.92889,0.48648 -7.86346,0.62838 -19.11346,2.07187 -25,3.20774 -5.88653,1.13587 -14.97778,3.43071 -20.20278,5.09965 -5.225,1.66893 -13.58055,4.93706 -18.56789,7.26251 -4.98734,2.32544 -12.41234,6.48703 -16.5,9.24798 -4.08766,2.76095 -9.87452,7.21746 -12.85968,9.90336 -2.98516,2.6859 -9.20966,9.13036 -13.83221,14.32102 -4.62255,5.19065 -12.195,14.50924 -16.82768,20.70797 -4.63267,6.19874 -11.73119,16.35184 -15.77448,22.56245 -4.04329,6.21061 -10.60048,17.24179 -14.57154,24.51374 -3.97106,7.27195 -10.52939,20.93506 -14.57406,30.36247 -4.04467,9.42741 -9.52261,20.74052 -12.1732,25.14024 -2.65059,4.39972 -8.28359,12.19066 -12.51778,17.31321 -4.23419,5.12255 -11.88419,12.98841 -17,17.47969 -5.11581,4.49129 -15.31856,12.17398 -22.67278,17.07266 -7.35421,4.89868 -20.41245,12.42823 -29.01831,16.73234 -8.60585,4.30411 -19.23877,9.19266 -23.6287,10.86344 -4.38993,1.67079 -18.33169,5.83248 -30.98169,9.24821 -12.65,3.41573 -34.25,9.3601 -48,13.20972 -13.75,3.84961 -34.52172,9.89132 -46.15937,13.42601 -11.63766,3.53469 -27.38766,8.69931 -35,11.47694 -7.61235,2.77763 -16.9843,6.9116 -20.82656,9.18661 -3.84226,2.27501 -11.07332,8.09056 -16.06902,12.92344 -4.9957,4.83289 -11.64469,12.34482 -14.77553,16.69317 -3.13084,4.34836 -7.89348,12.12351 -10.58364,17.27812 -2.69016,5.15461 -6.50761,13.73347 -8.48322,19.06414 -1.97561,5.33066 -4.81552,14.66816 -6.31091,20.75 C 344.79636,692.02396 343.299,697 342.96429,697 Z"
         id="path324" />
      <path
         style="fill:#3dc7b9"
         d="m 671.25,926.82529 c -5.3625,-0.0961 -11.775,-0.31906 -14.25,-0.49549 -2.475,-0.17643 -9.675,-0.78695 -16,-1.35672 -6.325,-0.56977 -16.225,-1.72492 -22,-2.567 -5.775,-0.84209 -17.60979,-3.1007 -26.29954,-5.01914 -8.68974,-1.91843 -21.73974,-5.31548 -29,-7.54899 -7.26025,-2.2335 -18.37546,-6.09464 -24.70046,-8.58029 -6.325,-2.48566 -18.7,-7.8903 -27.5,-12.01033 -8.8,-4.12002 -21.4,-10.43038 -28,-14.02301 -6.6,-3.59263 -15.91703,-8.9524 -20.7045,-11.91061 -4.78748,-2.9582 -13.78748,-9.02592 -20,-13.48381 -6.21253,-4.4579 -15.75105,-11.9746 -21.19672,-16.70378 -5.44567,-4.72918 -13.88254,-13.03423 -18.74861,-18.45567 -4.86606,-5.42144 -11.58933,-13.95641 -14.94059,-18.96661 -3.35127,-5.01019 -8.09361,-13.09248 -10.53855,-17.96063 -2.44493,-4.86815 -5.75703,-12.76636 -7.36023,-17.55158 -1.60319,-4.78521 -3.61148,-12.69486 -4.46285,-17.577 C 364.69627,737.73073 364,728.00844 364,721 c 0,-7.00844 0.69627,-16.73073 1.54795,-21.61463 0.85137,-4.88214 2.85966,-12.79179 4.46285,-17.577 1.6032,-4.78522 4.9105,-12.66219 7.34955,-17.50438 2.43906,-4.8422 7.25851,-12.76398 10.70988,-17.60397 3.45138,-4.83998 11.59739,-13.93117 18.10226,-20.20264 7.54116,-7.27059 16.00652,-14.18602 23.36052,-19.08344 6.34342,-4.22442 11.69461,-7.50823 11.89153,-7.29735 0.19692,0.21087 1.35692,3.98341 2.57777,8.38341 1.22086,4.4 3.9068,12.5 5.96877,18 2.06197,5.5 6.11878,14.725 9.01514,20.5 2.89636,5.775 7.93918,14.40928 11.20627,19.18728 3.26709,4.778 9.62282,12.44844 14.12384,17.04541 4.50102,4.59697 11.59208,10.62208 15.7579,13.38913 4.16583,2.76705 11.59083,6.72569 16.5,8.79699 4.90918,2.0713 17.47577,6.60022 27.92577,10.06426 10.45,3.46405 24.175,7.43906 30.5,8.83337 6.325,1.39431 15.55,3.28217 20.5,4.19525 4.95,0.91307 11.7,2.95282 15,4.53276 3.3,1.57995 9.15,5.28592 13,8.2355 3.85,2.94958 9.6297,8.48074 12.84378,12.29146 3.21408,3.81073 7.6512,9.96328 9.86026,13.67235 2.20906,3.70906 5.81702,10.90906 8.01769,16 2.20067,5.09093 5.02767,13.30624 6.28221,18.25624 1.49549,5.90068 2.68129,15.02645 3.44339,26.5 0.63932,9.625 2.05935,24.25 3.15561,32.5 1.09627,8.25 3.77048,23.325 5.94269,33.5 2.17221,10.175 4.84714,21.425 5.94428,25 1.09715,3.575 1.99825,6.8375 2.00245,7.25 0.004,0.4125 -4.37986,0.67138 -9.74236,0.57529 z M 342.96429,697 c -0.33472,0 -2.91972,-7.0875 -5.74445,-15.75 -2.82474,-8.6625 -6.0279,-19.35 -7.11815,-23.75 -1.09025,-4.4 -2.88581,-12.54473 -3.99013,-18.09941 -1.10432,-5.55467 -3.03358,-17.02967 -4.28725,-25.5 -2.01016,-13.58157 -2.28204,-19.29833 -2.30185,-48.40059 -0.0151,-22.21135 0.41367,-36.10582 1.31158,-42.5 0.73371,-5.225 2.42563,-15.17691 3.75981,-22.11536 1.33418,-6.93844 3.95983,-18.18844 5.83478,-25 1.87494,-6.81155 5.2772,-17.62945 7.56056,-24.03977 2.28337,-6.41031 4.72142,-12.43443 5.41789,-13.38691 1.18553,-1.62131 2.12207,-1.50075 14.67962,1.88971 7.37731,1.99183 18.5883,4.72715 24.9133,6.07849 6.325,1.35133 17.125,3.41367 24,4.58296 6.875,1.1693 19.7,2.99163 28.5,4.04962 8.8,1.05799 21.175,2.20886 27.5,2.55749 l 11.5,0.63386 10.56836,-10.87504 c 7.69536,-7.91868 11.45077,-12.66975 13.81432,-17.47687 1.78529,-3.631 3.74897,-9.53827 4.36374,-13.12726 0.85625,-4.9988 0.82211,-8.17977 -0.14595,-13.59669 -0.69504,-3.8892 -2.81956,-10.3178 -4.72117,-14.28578 -1.9016,-3.96798 -6.4483,-11.52865 -10.10377,-16.80148 -3.65547,-5.27283 -10.05039,-13.8569 -14.21092,-19.07571 C 469.90407,347.79245 461.55,338.39778 455.5,332.13421 c -6.05,-6.26357 -15.725,-15.51629 -21.5,-20.5616 -5.775,-5.04531 -15.225,-12.78904 -21,-17.2083 -5.775,-4.41926 -15.9,-11.66997 -22.5,-16.1127 -6.6,-4.44274 -17.175,-11.09292 -23.5,-14.77819 -6.325,-3.68527 -14.875,-8.38748 -19,-10.44936 -4.125,-2.06188 -15.375,-7.14464 -25,-11.29502 -9.625,-4.15039 -22.9,-9.79287 -29.5,-12.53884 -6.6,-2.74598 -18.075,-7.32817 -25.5,-10.18263 -7.425,-2.85447 -23.85,-8.91798 -36.5,-13.47446 -12.65,-4.55649 -29.975,-10.55986 -38.5,-13.34082 -8.525,-2.78097 -26.54756,-8.42236 -40.05014,-12.53643 -13.50258,-4.11407 -33.52758,-9.96516 -44.5,-13.00242 C 97.477435,163.61618 76.575,158.13589 62,154.47502 47.425,150.81415 32.125,147.2395 28,146.53135 c -4.125,-0.70815 -6.246302,-1.3424 -4.714004,-1.40945 1.532297,-0.067 9.253915,-1.23512 17.159149,-2.59571 7.905235,-1.3606 21.276537,-3.26263 29.714005,-4.22673 11.981256,-1.36904 23.772218,-1.75801 53.84085,-1.77619 25.29923,-0.0153 42.78596,0.43342 51,1.30867 6.875,0.73256 20.15,2.44047 29.5,3.79534 9.35,1.35488 24.00755,4.01663 32.57234,5.91501 8.56479,1.89838 22.10252,5.2421 30.08383,7.4305 7.98132,2.1884 19.19877,5.60469 24.92766,7.59177 5.72889,1.98708 16.61034,6.06117 24.181,9.05354 7.57065,2.99237 19.66656,8.14404 26.8798,11.44815 7.21324,3.30411 13.25914,5.86331 13.43534,5.68711 0.1762,-0.1762 -3.0414,-5.87793 -7.15022,-12.67051 -4.10883,-6.79259 -10.89597,-17.35251 -15.08253,-23.4665 -4.18657,-6.11399 -11.34786,-16.07947 -15.91399,-22.1455 -4.56613,-6.06603 -13.16265,-16.86603 -19.10339,-24 C 293.3891,99.336884 279.74709,84.691601 269.01425,73.92578 258.28141,63.159959 242.975,48.951514 235,42.351456 227.025,35.751399 216.76084,27.53178 212.19076,24.085637 c -4.57009,-3.446144 -9.52009,-6.897426 -11,-7.669516 C 199.71084,15.644031 199.175,15.013828 200,15.01567 c 0.825,0.0018 7.46178,1.111077 14.74841,2.464969 7.28663,1.353891 19.21163,3.851389 26.5,5.549995 7.28837,1.698606 18.63258,4.684315 25.20935,6.634908 6.57676,1.950593 19.67579,6.186531 29.10895,9.413196 9.43316,3.226665 23.06715,8.357385 30.29777,11.401599 7.23061,3.044215 19.55658,8.605888 27.39104,12.359275 7.83446,3.753387 20.09448,10.110188 27.24448,14.126226 7.15,4.016038 18.4,10.669598 25,14.78569 6.6,4.116092 16.5,10.668362 22,14.560602 5.5,3.89224 14.50699,10.54212 20.01553,14.7775 5.50855,4.23538 16.53355,13.30954 24.5,20.1648 7.96646,6.85527 22.35947,20.52733 31.98447,30.38238 9.625,9.85504 21.83151,23.08087 27.12558,29.39072 5.29407,6.30986 13.84407,17.13297 19,24.05136 5.15593,6.91839 10.81612,14.66454 12.57819,17.21366 l 3.20378,4.63476 3.69194,-1.27818 c 3.32657,-1.15169 3.90845,-1.91507 5.87973,-7.71366 1.20328,-3.53951 3.45001,-8.91047 4.99272,-11.93547 1.54271,-3.025 4.54019,-8.05921 6.66107,-11.18714 2.12087,-3.12792 6.38205,-8.41542 9.46927,-11.75 L 602.21543,197 H 591.10771 C 584.99847,197 580,196.63532 580,196.1896 c 0,-0.44572 3.0375,-3.44371 6.75,-6.66221 3.7125,-3.2185 10.125,-8.36292 14.25,-11.43205 4.125,-3.06913 12.08854,-8.3433 17.69676,-11.72037 5.60822,-3.37708 15.68386,-8.4575 22.39031,-11.28983 6.70646,-2.83233 16.51791,-6.43004 21.80324,-7.99491 5.28533,-1.56486 14.33469,-3.68784 20.10969,-4.71772 8.19214,-1.46094 15.22563,-1.86188 32,-1.82413 18.34558,0.0413 23.00371,0.37414 31.74903,2.26874 5.63697,1.22119 14.41197,3.60231 19.5,5.29136 5.08803,1.68906 14.06346,5.46377 19.94538,8.38826 5.88193,2.92449 14.88193,8.15277 20,11.61841 5.91925,4.00814 14.22685,11.2291 22.82909,19.84301 7.74116,7.75167 16.3834,17.60382 20.21213,23.04184 3.67875,5.225 8.96853,13.6 11.75507,18.6111 l 5.06643,9.11111 15.90257,7.60454 c 8.74641,4.18249 29.77105,13.75217 46.72143,21.26594 16.95038,7.51378 37.68137,16.94614 46.06887,20.96081 l 15.25,7.2994 v 4.14094 c 0,3.47451 -0.28164,4.05753 -1.75,3.62269 -0.9625,-0.28504 -5.35,-1.40432 -9.75,-2.48729 -4.4,-1.08297 -11.6,-2.67615 -16,-3.5404 -4.4,-0.86425 -11.375,-2.04537 -15.5,-2.62471 -4.125,-0.57934 -12.61575,-1.69368 -18.86833,-2.4763 -6.25258,-0.78263 -18.85258,-1.71818 -28,-2.07901 -9.90261,-0.39061 -22.41622,-0.19379 -30.92889,0.48648 -7.86346,0.62838 -19.11346,2.07187 -25,3.20774 -5.88653,1.13587 -14.97778,3.43071 -20.20278,5.09965 -5.225,1.66893 -13.58055,4.93706 -18.56789,7.26251 -4.98734,2.32544 -12.41234,6.48703 -16.5,9.24798 -4.08766,2.76095 -9.87452,7.21746 -12.85968,9.90336 -2.98516,2.6859 -9.20966,9.13036 -13.83221,14.32102 -4.62255,5.19065 -12.195,14.50924 -16.82768,20.70797 -4.63267,6.19874 -11.73119,16.35184 -15.77448,22.56245 -4.04329,6.21061 -10.60048,17.24179 -14.57154,24.51374 -3.97106,7.27195 -10.52939,20.93506 -14.57406,30.36247 -4.04467,9.42741 -9.52261,20.74052 -12.1732,25.14024 -2.65059,4.39972 -8.28359,12.19066 -12.51778,17.31321 -4.23419,5.12255 -11.88419,12.98841 -17,17.47969 -5.11581,4.49129 -15.31856,12.17398 -22.67278,17.07266 -7.35421,4.89868 -20.41245,12.42823 -29.01831,16.73234 -8.60585,4.30411 -19.23877,9.19266 -23.6287,10.86344 -4.38993,1.67079 -18.33169,5.83248 -30.98169,9.24821 -12.65,3.41573 -34.25,9.3601 -48,13.20972 -13.75,3.84961 -34.52172,9.89132 -46.15937,13.42601 -11.63766,3.53469 -27.38766,8.69931 -35,11.47694 -7.61235,2.77763 -16.9843,6.9116 -20.82656,9.18661 -3.84226,2.27501 -11.07332,8.09056 -16.06902,12.92344 -4.9957,4.83289 -11.64469,12.34482 -14.77553,16.69317 -3.13084,4.34836 -7.89348,12.12351 -10.58364,17.27812 -2.69016,5.15461 -6.50761,13.73347 -8.48322,19.06414 -1.97561,5.33066 -4.81552,14.66816 -6.31091,20.75 C 344.79636,692.02396 343.299,697 342.96429,697 Z"
         id="path322" />
      <path
         style="fill:#41c2b2"
         d="m 672.25,901.91409 c -0.9625,-0.0472 -6.54267,-1.13081 -12.40039,-2.40793 -5.85771,-1.27712 -15.95332,-3.94421 -22.43468,-5.92687 -6.48137,-1.98266 -16.9887,-5.66775 -23.34962,-8.18907 C 607.70439,882.86889 596.875,877.89519 590,874.33755 c -6.875,-3.55764 -17.58402,-9.84956 -23.79781,-13.98203 -6.2138,-4.13247 -15.8888,-11.14016 -21.5,-15.57264 -5.61121,-4.43248 -16.07012,-13.95941 -23.24202,-21.17096 C 514.28826,816.40036 505.36099,806.675 501.62179,802 c -3.7392,-4.675 -10.84826,-14.575 -15.79791,-22 -4.94965,-7.425 -12.52066,-20.7 -16.82448,-29.5 -4.30381,-8.8 -9.6644,-21.06054 -11.91243,-27.24565 -2.24802,-6.1851 -5.65276,-17.2101 -7.56609,-24.5 -1.91333,-7.28989 -4.37424,-18.65435 -5.46869,-25.25435 -1.09445,-6.6 -2.45393,-17.80285 -3.02105,-24.89522 -0.56713,-7.09237 -0.97854,-17.66737 -0.91426,-23.5 0.0643,-5.83263 0.42739,-13.52978 0.80689,-17.10478 0.3795,-3.575 0.95252,-5.825 1.27337,-5 0.32085,0.825 2.51712,7.52178 4.8806,14.88173 2.36349,7.35996 7.12232,19.18585 10.5752,26.27976 3.45288,7.09391 9.02335,16.90641 12.37884,21.80555 3.35548,4.89913 9.78353,12.66868 14.28455,17.26565 4.50102,4.59697 11.59208,10.62208 15.7579,13.38913 4.16583,2.76705 11.59083,6.72569 16.5,8.79699 4.90918,2.0713 17.47577,6.60022 27.92577,10.06426 10.45,3.46405 24.175,7.43906 30.5,8.83337 6.325,1.39431 15.55,3.28217 20.5,4.19525 4.95,0.91307 11.7,2.95282 15,4.53276 3.3,1.57995 9.15,5.28592 13,8.2355 3.85,2.94958 9.6297,8.48074 12.84378,12.29146 3.21408,3.81073 7.6512,9.96328 9.86026,13.67235 2.20906,3.70906 5.81702,10.90906 8.01769,16 2.20067,5.09093 5.02767,13.30624 6.28221,18.25624 1.49549,5.90068 2.68129,15.02645 3.44339,26.5 0.63932,9.625 2.05761,24.2298 3.15176,32.45511 1.09414,8.22531 3.09214,20.15031 4.43999,26.5 1.34786,6.34969 2.45295,12.33239 2.45578,13.29489 0.003,1.0345 -0.71036,1.71488 -1.74486,1.66409 z m -227.14332,-319.35456 -4.39332,1.331 0.64535,-8.39576 c 0.35494,-4.61768 1.77292,-14.94711 3.15107,-22.9543 1.37815,-8.0072 4.28223,-21.41697 6.45352,-29.7995 2.17128,-8.38253 5.48868,-19.74097 7.37198,-25.24097 1.8833,-5.5 4.86109,-13.6 6.6173,-18 1.75621,-4.4 4.3684,-10.7 5.80486,-14 2.00363,-4.60294 5.20532,-8.6777 13.75045,-17.5 8.20029,-8.46628 11.99369,-13.24157 14.37973,-18.10182 1.78257,-3.631 3.74403,-9.53827 4.3588,-13.12726 0.85625,-4.9988 0.82211,-8.17977 -0.14595,-13.59669 -0.69504,-3.8892 -2.81956,-10.3178 -4.72117,-14.28578 -1.9016,-3.96798 -6.4483,-11.52865 -10.10377,-16.80148 -3.65547,-5.27283 -10.05039,-13.8569 -14.21092,-19.07571 C 469.90407,347.79245 461.55,338.39778 455.5,332.13421 c -6.05,-6.26357 -15.725,-15.51629 -21.5,-20.5616 -5.775,-5.04531 -15.225,-12.78904 -21,-17.2083 -5.775,-4.41926 -15.9,-11.66997 -22.5,-16.1127 -6.6,-4.44274 -17.175,-11.09292 -23.5,-14.77819 -6.325,-3.68527 -14.875,-8.38748 -19,-10.44936 -4.125,-2.06188 -15.375,-7.14464 -25,-11.29502 -9.625,-4.15039 -22.9,-9.79287 -29.5,-12.53884 -6.6,-2.74598 -18.075,-7.32817 -25.5,-10.18263 -7.425,-2.85447 -23.85,-8.91798 -36.5,-13.47446 -12.65,-4.55649 -29.975,-10.55986 -38.5,-13.34082 -8.525,-2.78097 -26.54756,-8.42236 -40.05014,-12.53643 -13.50258,-4.11407 -33.52758,-9.96516 -44.5,-13.00242 C 97.477435,163.61618 76.575,158.13589 62,154.47502 47.425,150.81415 32.125,147.2395 28,146.53135 c -4.125,-0.70815 -6.246302,-1.3424 -4.714004,-1.40945 1.532297,-0.067 9.253915,-1.23512 17.159149,-2.59571 7.905235,-1.3606 21.276537,-3.26263 29.714005,-4.22673 11.981256,-1.36904 23.772218,-1.75801 53.84085,-1.77619 25.29923,-0.0153 42.78596,0.43342 51,1.30867 6.875,0.73256 20.15,2.44047 29.5,3.79534 9.35,1.35488 24.00755,4.01663 32.57234,5.91501 8.56479,1.89838 22.10252,5.2421 30.08383,7.4305 7.98132,2.1884 19.19877,5.60469 24.92766,7.59177 5.72889,1.98708 16.61034,6.06117 24.181,9.05354 7.57065,2.99237 19.66656,8.14404 26.8798,11.44815 7.21324,3.30411 13.25914,5.86331 13.43534,5.68711 0.1762,-0.1762 -3.0414,-5.87793 -7.15022,-12.67051 -4.10883,-6.79259 -10.89597,-17.35251 -15.08253,-23.4665 -4.18657,-6.11399 -11.34786,-16.07947 -15.91399,-22.1455 -4.56613,-6.06603 -13.16265,-16.86603 -19.10339,-24 C 293.3891,99.336884 279.74709,84.691601 269.01425,73.92578 258.28141,63.159959 242.975,48.951514 235,42.351456 227.025,35.751399 216.76084,27.53178 212.19076,24.085637 c -4.57009,-3.446144 -9.52009,-6.897426 -11,-7.669516 C 199.71084,15.644031 199.175,15.013828 200,15.01567 c 0.825,0.0018 7.46178,1.111077 14.74841,2.464969 7.28663,1.353891 19.21163,3.851389 26.5,5.549995 7.28837,1.698606 18.63258,4.684315 25.20935,6.634908 6.57676,1.950593 19.67579,6.186531 29.10895,9.413196 9.43316,3.226665 23.06715,8.357385 30.29777,11.401599 7.23061,3.044215 19.55658,8.605888 27.39104,12.359275 7.83446,3.753387 20.09448,10.110188 27.24448,14.126226 7.15,4.016038 18.4,10.669598 25,14.78569 6.6,4.116092 16.5,10.668362 22,14.560602 5.5,3.89224 14.50699,10.54212 20.01553,14.7775 5.50855,4.23538 16.53355,13.3163 24.5,20.17983 7.96646,6.86352 21.92785,20.0732 31.02532,29.35484 9.09746,9.28163 20.57441,21.6007 25.50433,27.3757 4.92992,5.775 12.59355,15.225 17.0303,21 4.43675,5.775 10.77108,14.33534 14.07628,19.02299 l 6.00948,8.52299 -10.79297,3.22467 c -5.93613,1.77356 -16.77241,5.57925 -24.08062,8.45708 -7.30821,2.87783 -20.5768,8.84138 -29.48575,13.25234 l -16.1981,8.01993 12.6981,13.01267 c 6.98395,7.15697 17.59676,18.73491 23.584,25.72874 5.98725,6.99384 14.01103,16.88814 17.83062,21.98733 3.8196,5.09919 7.64579,10.05058 8.50264,11.00308 1.45284,1.61502 2.16627,1.15288 10.57875,-6.85269 4.96147,-4.72147 14.23663,-12.74663 20.61147,-17.83368 6.37484,-5.08705 15.19062,-11.73869 19.59062,-14.78143 4.4,-3.04273 12.725,-8.42993 18.5,-11.97156 5.775,-3.54163 14.775,-8.72473 20,-11.518 5.225,-2.79328 14.58836,-7.39023 20.80746,-10.21547 6.21911,-2.82523 16.79161,-7.17732 23.49445,-9.67132 6.70284,-2.494 18.48948,-6.31676 26.19253,-8.49502 7.70306,-2.17826 16.74972,-4.59789 20.1037,-5.37695 3.35398,-0.77907 11.45398,-2.32305 18,-3.43108 6.54602,-1.10803 15.95186,-2.49829 20.90186,-3.08947 4.95,-0.59117 16.425,-1.4452 25.5,-1.89784 l 16.5,-0.82297 11,6.51498 11,6.51498 52,14.72936 c 36.71811,10.40066 54.20412,15.82193 59.5,18.44705 l 7.5,3.71769 -5,-0.63546 c -2.75,-0.3495 -10.11575,-1.27955 -16.36833,-2.06676 -6.25258,-0.78722 -18.85258,-1.72653 -28,-2.08736 -9.90261,-0.39061 -22.41622,-0.19379 -30.92889,0.48648 -7.86346,0.62838 -19.11346,2.07187 -25,3.20774 -5.88653,1.13587 -14.97778,3.43071 -20.20278,5.09965 -5.225,1.66893 -13.58055,4.93706 -18.56789,7.26251 -4.98734,2.32544 -12.41234,6.48703 -16.5,9.24798 -4.08766,2.76095 -9.87452,7.21746 -12.85968,9.90336 -2.98516,2.6859 -9.20966,9.13036 -13.83221,14.32102 -4.62255,5.19065 -12.195,14.50924 -16.82768,20.70797 -4.63267,6.19874 -11.73119,16.35184 -15.77448,22.56245 -4.04329,6.21061 -10.60048,17.24179 -14.57154,24.51374 -3.97106,7.27195 -10.52939,20.93506 -14.57406,30.36247 -4.04467,9.42741 -9.52261,20.74052 -12.1732,25.14024 -2.65059,4.39972 -8.28359,12.19066 -12.51778,17.31321 -4.23419,5.12255 -11.88419,12.98841 -17,17.47969 -5.11581,4.49129 -15.31856,12.17398 -22.67278,17.07266 -7.35421,4.89868 -20.41245,12.42823 -29.01831,16.73234 -8.60585,4.30411 -19.23877,9.19266 -23.6287,10.86344 -4.38993,1.67079 -18.33169,5.83248 -30.98169,9.24821 -12.65,3.41573 -34.25,9.36179 -48,13.21345 -13.75,3.85167 -31.75,9.0456 -40,11.54206 -8.25,2.49647 -16.97699,5.13798 -19.39332,5.87004 z"
         id="path320" />
      <path
         style="fill:#00a99d"
         d="m 672.25,901.91409 c -0.9625,-0.0472 -6.54267,-1.13081 -12.40039,-2.40793 -5.85771,-1.27712 -15.95332,-3.94421 -22.43468,-5.92687 -6.48137,-1.98266 -16.9887,-5.66775 -23.34962,-8.18907 C 607.70439,882.86889 596.875,877.89519 590,874.33755 c -6.875,-3.55764 -17.58402,-9.84956 -23.79781,-13.98203 -6.2138,-4.13247 -15.8888,-11.14016 -21.5,-15.57264 -5.61121,-4.43248 -16.07012,-13.95941 -23.24202,-21.17096 C 514.28826,816.40036 505.36099,806.675 501.62179,802 c -3.7392,-4.675 -10.84826,-14.575 -15.79791,-22 -4.94965,-7.425 -12.52066,-20.7 -16.82448,-29.5 -4.30381,-8.8 -9.6644,-21.06054 -11.91243,-27.24565 -2.24802,-6.1851 -5.65276,-17.2101 -7.56609,-24.5 -1.91333,-7.28989 -4.37424,-18.65435 -5.46869,-25.25435 -1.09445,-6.6 -2.45393,-17.80285 -3.02105,-24.89522 -0.56713,-7.09237 -0.97854,-17.66737 -0.91426,-23.5 0.0643,-5.83263 0.42739,-13.52978 0.80689,-17.10478 0.3795,-3.575 0.95252,-5.825 1.27337,-5 0.32085,0.825 2.51712,7.52178 4.8806,14.88173 2.36349,7.35996 7.12232,19.18585 10.5752,26.27976 3.45288,7.09391 9.02335,16.90641 12.37884,21.80555 3.35548,4.89913 9.78353,12.66868 14.28455,17.26565 4.50102,4.59697 11.59208,10.62208 15.7579,13.38913 4.16583,2.76705 11.59083,6.72569 16.5,8.79699 4.90918,2.0713 17.47577,6.60022 27.92577,10.06426 10.45,3.46405 24.175,7.43906 30.5,8.83337 6.325,1.39431 15.55,3.28217 20.5,4.19525 4.95,0.91307 11.7,2.95282 15,4.53276 3.3,1.57995 9.15,5.28592 13,8.2355 3.85,2.94958 9.6297,8.48074 12.84378,12.29146 3.21408,3.81073 7.6512,9.96328 9.86026,13.67235 2.20906,3.70906 5.81702,10.90906 8.01769,16 2.20067,5.09093 5.02767,13.30624 6.28221,18.25624 1.49549,5.90068 2.68129,15.02645 3.44339,26.5 0.63932,9.625 2.05761,24.2298 3.15176,32.45511 1.09414,8.22531 3.09214,20.15031 4.43999,26.5 1.34786,6.34969 2.45295,12.33239 2.45578,13.29489 0.003,1.0345 -0.71036,1.71488 -1.74486,1.66409 z m -227.14332,-319.35456 -4.39332,1.331 0.64535,-8.39576 c 0.35494,-4.61768 1.77292,-14.94711 3.15107,-22.9543 1.37815,-8.0072 4.28223,-21.41697 6.45352,-29.7995 2.17128,-8.38253 5.48809,-19.74097 7.37068,-25.24097 1.88259,-5.5 5.24097,-14.5 7.46306,-20 2.22209,-5.5 4.96765,-12.06922 6.10124,-14.59827 l 2.06108,-4.59827 28.27032,-0.59398 c 15.54868,-0.32669 35.24532,-1.30837 43.77032,-2.18152 8.525,-0.87315 21.35,-2.45409 28.5,-3.51319 7.15,-1.05911 16.06287,-2.57107 19.80638,-3.35992 3.7435,-0.78885 7.07326,-1.70115 7.39945,-2.02734 0.32619,-0.3262 -3.96523,-9.71333 -9.5365,-20.8603 C 586.59807,414.62025 578.0187,398.75 573.10406,390.5 c -4.91464,-8.25 -12.34736,-19.95 -16.51716,-26 l -7.58146,-11 9.02651,-8.74821 c 4.96458,-4.81152 14.30086,-12.95736 20.74728,-18.10187 6.44642,-5.14451 15.32077,-11.84316 19.72077,-14.8859 4.4,-3.04273 12.725,-8.42993 18.5,-11.97156 5.775,-3.54163 14.775,-8.72473 20,-11.518 5.225,-2.79328 14.58836,-7.39023 20.80746,-10.21547 6.21911,-2.82523 16.79161,-7.17732 23.49445,-9.67132 6.70284,-2.494 18.48948,-6.31676 26.19253,-8.49502 7.70306,-2.17826 16.74972,-4.59789 20.1037,-5.37695 3.35398,-0.77907 11.45398,-2.32305 18,-3.43108 6.54602,-1.10803 15.95186,-2.49829 20.90186,-3.08947 4.95,-0.59117 16.425,-1.4452 25.5,-1.89784 l 16.5,-0.82297 11,6.51498 11,6.51498 52,14.72936 c 36.71811,10.40066 54.20412,15.82193 59.5,18.44705 l 7.5,3.71769 -5,-0.63546 c -2.75,-0.3495 -10.11575,-1.27955 -16.36833,-2.06676 -6.25258,-0.78722 -18.85258,-1.72653 -28,-2.08736 -9.90261,-0.39061 -22.41622,-0.19379 -30.92889,0.48648 -7.86346,0.62838 -19.11346,2.07187 -25,3.20774 -5.88653,1.13587 -14.97778,3.43071 -20.20278,5.09965 -5.225,1.66893 -13.58055,4.93706 -18.56789,7.26251 -4.98734,2.32544 -12.41234,6.48703 -16.5,9.24798 -4.08766,2.76095 -9.87452,7.21746 -12.85968,9.90336 -2.98516,2.6859 -9.20966,9.13036 -13.83221,14.32102 -4.62255,5.19065 -12.195,14.50924 -16.82768,20.70797 -4.63267,6.19874 -11.73119,16.35184 -15.77448,22.56245 -4.04329,6.21061 -10.60048,17.24179 -14.57154,24.51374 -3.97106,7.27195 -10.52939,20.93506 -14.57406,30.36247 -4.04467,9.42741 -9.52261,20.74052 -12.1732,25.14024 -2.65059,4.39972 -8.28359,12.19066 -12.51778,17.31321 -4.23419,5.12255 -11.88419,12.98841 -17,17.47969 -5.11581,4.49129 -15.31856,12.17398 -22.67278,17.07266 -7.35421,4.89868 -20.41245,12.42823 -29.01831,16.73234 -8.60585,4.30411 -19.23877,9.19266 -23.6287,10.86344 -4.38993,1.67079 -18.33169,5.83248 -30.98169,9.24821 -12.65,3.41573 -34.25,9.36179 -48,13.21345 -13.75,3.85167 -31.75,9.0456 -40,11.54206 -8.25,2.49647 -16.97699,5.13798 -19.39332,5.87004 z m 55.86068,-310.97808 -16.53265,8.12276 -9.96735,-8.98446 C 468.98531,265.7783 460,258.06862 454.5,253.58711 c -5.5,-4.4815 -13.6,-10.86885 -18,-14.1941 -4.4,-3.32526 -14.17423,-10.1633 -21.72051,-15.19564 -7.54628,-5.03234 -20.24649,-12.97359 -28.22268,-17.64721 -7.9762,-4.67363 -17.59962,-10.05735 -21.38538,-11.96383 l -6.88319,-3.46632 -6.23299,-10.68496 c -3.42814,-5.87673 -10.45381,-16.95747 -15.6126,-24.62387 -5.15879,-7.66639 -13.18928,-18.98578 -17.84554,-25.15419 -4.65626,-6.16841 -13.32653,-17.05217 -19.26727,-24.18614 C 293.3891,99.336884 279.74709,84.691601 269.01425,73.92578 258.28141,63.159959 242.975,48.951514 235,42.351456 227.025,35.751399 216.76084,27.53178 212.19076,24.085637 c -4.57009,-3.446144 -9.52009,-6.897426 -11,-7.669516 C 199.71084,15.644031 199.175,15.013828 200,15.01567 c 0.825,0.0018 7.46178,1.111077 14.74841,2.464969 7.28663,1.353891 19.21163,3.851389 26.5,5.549995 7.28837,1.698606 18.63258,4.684315 25.20935,6.634908 6.57676,1.950593 19.67579,6.186531 29.10895,9.413196 9.43316,3.226665 23.06715,8.357385 30.29777,11.401599 7.23061,3.044215 19.55658,8.605888 27.39104,12.359275 7.83446,3.753387 20.09448,10.110188 27.24448,14.126226 7.15,4.016038 18.4,10.669598 25,14.78569 6.6,4.116092 16.5,10.668362 22,14.560602 5.5,3.89224 14.50699,10.54212 20.01553,14.7775 5.50855,4.23538 16.53355,13.3163 24.5,20.17983 7.96646,6.86352 21.92785,20.0732 31.02532,29.35484 9.09746,9.28163 20.57441,21.6007 25.50433,27.3757 4.92992,5.775 12.59355,15.225 17.0303,21 4.43675,5.775 10.77108,14.33534 14.07628,19.02299 l 6.00948,8.52299 -10.79297,3.22467 c -5.93613,1.77356 -16.77241,5.57892 -24.08062,8.45635 -7.30821,2.87743 -20.72734,8.88693 -29.82029,13.35445 z"
         id="path318" />
    </g>
  </g>
</svg>
