<svg width="859" height="608" viewBox="0 0 859 608" fill="none" xmlns="http://www.w3.org/2000/svg">
<g clip-path="url(#clip0_35_16)">
<path opacity="0.1" d="M285.582 607.658C327.415 607.658 361.327 602.216 361.327 595.502C361.327 588.788 327.415 583.346 285.582 583.346C243.749 583.346 209.837 588.788 209.837 595.502C209.837 602.216 243.749 607.658 285.582 607.658Z" fill="#00A99D"/>
<path opacity="0.1" d="M697.319 608C749.52 608 791.837 602.557 791.837 595.844C791.837 589.13 749.52 583.687 697.319 583.687C645.119 583.687 602.802 589.13 602.802 595.844C602.802 602.557 645.119 608 697.319 608Z" fill="#00A99D"/>
<path opacity="0.1" d="M10.7585 262.7H89.6515V370.149H16.5342C16.3398 371.252 16.1533 372.363 15.9512 373.473H89.6515V460.128C89.5193 460.09 89.4027 460.043 89.2783 459.996C87.1951 459.173 85.1273 458.303 83.0596 457.371L81.7381 456.773C79.6652 455.794 77.5922 454.758 75.5193 453.666C74.7964 453.285 74.0734 452.889 73.3583 452.485C61.8503 446.044 51.3959 437.881 42.3577 428.281C42.0934 428.025 41.8446 427.753 41.5803 427.505C40.321 426.138 39.085 424.755 37.8879 423.341L36.5664 421.788C35.1516 420.056 33.7835 418.277 32.4543 416.475C32.2599 416.211 32.0733 415.946 31.8712 415.698C26.4652 408.208 21.9764 400.098 18.5009 391.541C18.392 391.284 18.2988 391.005 18.1977 390.764C17.1301 388.019 16.1844 385.249 15.3604 382.453C15.0028 381.28 14.6608 380.122 14.3654 378.903C14.2565 378.546 14.1633 378.196 14.0778 377.846C9.66242 360.626 9.1416 342.737 9.1416 324.972C9.1416 322.899 9.1416 320.817 9.1416 318.758C9.1416 311.573 9.22711 304.342 9.35149 297.118C9.35149 295.246 9.42922 293.382 9.46809 291.502C9.57691 286.733 9.73239 281.963 9.9345 277.194C9.98114 275.866 10.0433 274.545 10.1133 273.225C10.1133 272.464 10.1522 271.702 10.2299 270.941C10.4165 268.176 10.5719 265.434 10.7585 262.7Z" fill="#00A99D"/>
<path opacity="0.1" d="M89.6514 143.063H46.3765C53.411 132.061 61.0971 121.489 69.3937 111.403C75.8224 103.511 82.6086 95.8209 89.6514 88.4107V143.063Z" fill="#00A99D"/>
<path opacity="0.1" d="M89.6516 146.388V259.375H11.0073C11.0073 259.049 11.0617 258.715 11.0851 258.389C11.155 257.495 11.225 256.602 11.3027 255.717C11.3882 254.676 11.4815 253.627 11.5826 252.61C11.6836 251.592 11.7924 250.349 11.909 249.223C12.0256 248.097 12.1345 246.955 12.2666 245.829C12.3988 244.702 12.5154 243.576 12.6553 242.457C12.7952 241.339 12.9196 240.205 13.0673 239.086C13.1839 238.154 13.3083 237.23 13.4326 236.298C13.6114 234.985 13.798 233.665 14.0001 232.36C14.0001 232.165 14.0545 231.963 14.0856 231.777C15.5044 222.224 17.4376 212.755 19.8769 203.41C22.4301 193.607 25.6906 184.002 29.6326 174.67C33.8222 164.907 38.7276 155.467 44.3089 146.427L89.6516 146.388Z" fill="#00A99D"/>
<path opacity="0.1" d="M108.487 262.692V370.149H276.992V262.692H108.487ZM108.487 373.465V465.744C109.45 465.946 110.407 466.141 111.355 466.304C112.645 466.552 113.928 466.777 115.242 466.972C115.49 467.011 115.747 467.049 116.019 467.073C116.532 467.158 117.061 467.228 117.574 467.298C118.872 467.477 120.162 467.624 121.461 467.741C122.075 467.803 122.696 467.857 123.318 467.904L124.819 468.02C125.635 468.082 126.443 468.129 127.244 468.152C127.741 468.152 128.239 468.199 128.752 468.214C129.141 468.214 129.529 468.214 129.934 468.214C130.338 468.214 130.913 468.214 131.403 468.214C132.071 468.214 132.74 468.214 133.401 468.214H134.295C134.963 468.214 135.632 468.215 136.292 468.152H136.339C136.798 468.152 137.264 468.152 137.73 468.09C137.86 468.098 137.99 468.098 138.119 468.09C138.508 468.09 138.896 468.09 139.27 468.036H139.542L142.146 467.834C143.001 467.756 143.864 467.655 144.734 467.562L146.507 467.352C153.717 466.343 160.848 464.827 167.845 462.816C183.563 458.435 198.939 452.307 214.649 447.817C234.961 442.03 257.403 439.187 277.031 446.263V373.465H108.487ZM276.992 143.063V0.00775914C258.544 -0.191964 240.145 1.96417 222.244 6.42379C179.575 17.1353 141.291 40.3681 108.487 70.0403V143.056H116.944V146.372H108.487V259.375H276.992V146.38H151.668V143.063H276.992ZM493.429 94.7412C482.873 94.3684 472.378 91.0283 462.887 85.8706C444.736 76.0058 430.238 60.7736 414.039 47.9182C380.379 21.1434 338.636 4.98678 295.812 0.978707V143.063H536.362L536.96 142.434L493.429 94.7412ZM515.342 90.8574L538.577 116.335V84.1773C530.796 85.1405 523.979 87.4319 515.374 90.8264L515.342 90.8574ZM538.577 488.659V373.465H489.068C488.936 372.976 488.804 372.479 488.648 371.982C488.796 372.479 488.92 372.976 489.06 373.465H295.843V456.773C297.677 458.132 299.489 459.561 301.284 461.014C303.22 462.567 305.132 464.206 307.052 465.814L308.988 467.414C309.913 468.191 310.846 468.968 311.786 469.698C313.652 471.21 315.536 472.702 317.438 474.172C318.378 474.949 319.342 475.648 320.298 476.378C335.478 487.975 351.49 498.44 368.206 507.689C371.953 509.761 375.733 511.783 379.548 513.756C382.09 515.053 384.647 516.342 387.212 517.593C391.068 519.473 394.955 521.285 398.872 523.03C434.993 539.232 473.188 550.35 512.365 556.066C521.066 557.35 529.801 558.36 538.57 559.095V488.651H539.347L538.577 488.659ZM295.843 146.38V259.375H538.608V146.38H295.843ZM295.843 262.692V370.149H538.608V262.692H295.843ZM557.451 84.0375V119.908L587.107 87.3931C577.281 85.8085 567.396 84.677 557.451 83.9987V84.0375ZM557.451 262.731V370.149H793.571V262.692L557.451 262.731ZM792.708 497.188L793.539 373.465H557.451V560.33C572.66 560.969 587.892 560.787 603.082 559.787H603.346C610.601 559.331 617.823 558.668 625.011 557.798H625.174C663.521 553.339 701.017 543.341 736.49 528.118L792.708 497.188ZM839.1 280.387C838.214 278.297 837.289 276.223 836.348 274.172C834.591 270.289 832.733 266.514 830.821 262.739H812.398V370.149H858.977C858.953 339.731 851.25 308.661 839.123 280.348L839.1 280.387ZM812.398 373.504V479.92C825.52 467.352 836.605 452.975 844.588 436.538C854.188 416.746 858.58 395.316 858.938 373.489L812.398 373.504ZM812.398 231.42V259.383H829.095C824.044 249.757 818.478 240.409 812.421 231.381L812.398 231.42ZM652.264 105.119C651.036 104.653 649.808 104.179 648.572 103.721C635.537 98.9103 622.216 94.9101 608.686 91.743L563.305 141.51L562.434 142.434L563.017 143.071H724.534C702.04 127.598 677.788 114.846 652.288 105.08L652.264 105.119ZM729.268 146.419H560.763L557.451 149.448V259.375H586.478H586.524H793.602V206.128C774.869 183.49 753.249 163.403 729.292 146.38L729.268 146.419Z" fill="#00A99D"/>
<path opacity="0.1" d="M89.6516 203.379V259.375H11.0073C11.0073 259.049 11.0617 258.715 11.0851 258.389C11.155 257.495 11.225 256.602 11.3027 255.717C11.3882 254.676 11.4815 253.627 11.5826 252.61C11.6836 251.592 11.7924 250.349 11.909 249.223C12.0256 248.097 12.1345 246.955 12.2666 245.829C12.3988 244.702 12.5154 243.576 12.6553 242.457C12.7952 241.339 12.9196 240.205 13.0673 239.086C13.1839 238.154 13.3083 237.23 13.4326 236.298C13.6114 234.985 13.798 233.664 14.0001 232.36C14.0001 232.165 14.0545 231.963 14.0856 231.777C15.5044 222.224 17.4376 212.755 19.8769 203.41L89.6516 203.379Z" fill="#00A99D"/>
<path opacity="0.1" d="M10.7585 262.7H89.6515V370.149H16.5342C16.3398 371.252 16.1533 372.363 15.9512 373.473H89.6515V460.128C89.5193 460.09 89.4027 460.043 89.2783 459.996C87.1951 459.173 85.1273 458.303 83.0596 457.371L81.7381 456.773C79.6652 455.794 77.5922 454.758 75.5193 453.666C74.7964 453.285 74.0734 452.889 73.3583 452.485C61.8503 446.044 51.3959 437.881 42.3577 428.281C42.0934 428.025 41.8446 427.753 41.5803 427.505C40.321 426.138 39.085 424.755 37.8879 423.341L36.5664 421.788C35.1516 420.056 33.7835 418.277 32.4543 416.475C32.2599 416.211 32.0733 415.946 31.8712 415.698C26.4652 408.208 21.9764 400.098 18.5009 391.541C18.392 391.284 18.2988 391.005 18.1977 390.764C17.1301 388.019 16.1844 385.249 15.3604 382.453C15.0028 381.28 14.6608 380.122 14.3654 378.903C14.2565 378.546 14.1633 378.196 14.0778 377.846C9.66242 360.626 9.1416 342.737 9.1416 324.972C9.1416 322.899 9.1416 320.817 9.1416 318.758C9.1416 311.573 9.22711 304.342 9.35149 297.118C9.35149 295.246 9.42922 293.382 9.46809 291.502C9.57691 286.733 9.73239 281.963 9.9345 277.194C9.98114 275.866 10.0433 274.545 10.1133 273.225C10.1133 272.464 10.1522 271.702 10.2299 270.941C10.4165 268.176 10.5719 265.434 10.7585 262.7Z" fill="#00A99D"/>
<path opacity="0.1" d="M167.806 162.56V259.375H108.487V162.56H116.944V129.781H151.66V162.56H167.806Z" fill="#00A99D"/>
<path opacity="0.1" d="M167.806 262.692H108.494V370.141H167.806V262.692Z" fill="#00A99D"/>
<path opacity="0.1" d="M108.487 373.473H167.806V462.801C160.809 464.81 153.678 466.323 146.468 467.329L144.695 467.547C143.825 467.647 142.962 467.733 142.107 467.818C141.252 467.904 140.366 467.966 139.503 468.02H139.231C138.858 468.02 138.453 468.067 138.088 468.075H137.692C137.225 468.075 136.759 468.121 136.292 468.137C135.632 468.176 134.971 468.183 134.295 468.191C134.007 468.191 133.735 468.191 133.447 468.191C132.779 468.191 132.118 468.191 131.449 468.191H129.98C129.584 468.191 129.203 468.191 128.791 468.191L127.291 468.137C126.513 468.137 125.674 468.051 124.865 467.997L123.373 467.888L121.515 467.717C120.209 467.601 118.911 467.453 117.628 467.275L116.073 467.057L115.296 466.948C113.998 466.746 112.715 466.529 111.409 466.28C110.453 466.117 109.505 465.915 108.541 465.721L108.487 373.473Z" fill="#00A99D"/>
<path opacity="0.1" d="M538.608 151.126H489.698V259.367H538.608V151.126Z" fill="#00A99D"/>
<path opacity="0.1" d="M538.616 262.692V370.149H295.843V323.8H425.155V351.141H489.698V262.692H538.616Z" fill="#00A99D"/>
<path opacity="0.1" d="M539.386 488.682H538.608V559.173C529.85 558.432 521.118 557.425 512.412 556.151C473.215 550.417 435.004 539.276 398.872 523.046C388.44 518.354 378.221 513.233 368.214 507.682C351.498 498.428 335.483 487.963 320.298 476.37C316.484 473.45 312.719 470.462 309.003 467.407C306.43 465.286 303.873 463.111 301.284 460.998C299.489 459.546 297.677 458.117 295.843 456.75V373.473H489.052C488.92 372.976 488.788 372.479 488.648 371.99C488.796 372.479 488.936 372.976 489.068 373.473H538.608V488.636C538.873 488.643 539.129 488.667 539.386 488.682Z" fill="#00A99D"/>
<path opacity="0.1" d="M666.171 143.063H634.3V133.167H648.587V103.689C649.826 104.14 651.059 104.603 652.288 105.08V133.167H666.171V143.063Z" fill="#00A99D"/>
<path opacity="0.1" d="M742.958 259.375H586.493C586.493 259.375 586.493 259.375 586.548 259.414L586.478 259.375H557.451V151.134H565.676V231.14H603.26V183.758H634.308V146.388H666.179V183.789H697.226V231.171H742.958V259.375Z" fill="#00A99D"/>
<path opacity="0.1" d="M557.451 262.692V370.149H742.958V262.692H557.451ZM793.314 496.636L793.571 411.581H742.958V373.52H557.451V560.33C572.66 560.969 587.892 560.787 603.082 559.787H603.346C610.601 559.331 617.823 558.668 625.011 557.798H625.174C663.521 553.339 701.017 543.341 736.49 528.118" fill="#00A99D"/>
<path opacity="0.1" d="M815.694 373.473H858.969C858.588 395.292 854.204 416.723 844.611 436.515C836.628 452.959 825.535 467.337 812.429 479.897V411.542H815.694V373.473Z" fill="#00A99D"/>
<path opacity="0.1" d="M858.992 370.149H815.694V280.348H839.123C851.25 308.661 858.953 339.731 858.992 370.149Z" fill="#00A99D"/>
<path opacity="0.1" d="M538.616 181.218H512.412V215.154H538.616V181.218Z" fill="#00A99D"/>
<path opacity="0.1" d="M538.616 251.561H512.412V259.375H538.616V251.561Z" fill="#00A99D"/>
<path opacity="0.1" d="M538.616 262.692H512.412V285.49H538.616V262.692Z" fill="#00A99D"/>
<path opacity="0.1" d="M538.616 321.904H512.412V355.841H538.616V321.904Z" fill="#00A99D"/>
<path opacity="0.1" d="M538.616 392.248H512.412V426.184H538.616V392.248Z" fill="#00A99D"/>
<path opacity="0.1" d="M538.608 488.636C538.873 488.636 539.129 488.636 539.386 488.682H538.608V496.566H512.412V462.591H538.608V488.636Z" fill="#00A99D"/>
<path opacity="0.1" d="M538.608 532.919V559.134C529.85 558.394 521.118 557.386 512.412 556.113V532.919H538.608Z" fill="#00A99D"/>
<path opacity="0.1" d="M408.146 367.655H295.843V370.149H408.146V367.655Z" fill="#00A99D"/>
<path opacity="0.1" d="M408.146 373.465H295.843V383.02H408.146V373.465Z" fill="#00A99D"/>
<path opacity="0.1" d="M408.146 414.339H295.843V429.703H408.146V414.339Z" fill="#00A99D"/>
<path opacity="0.1" d="M408.139 461.022V476.386H320.298C316.484 473.476 312.717 470.488 308.996 467.422C306.423 465.302 303.873 463.127 301.277 461.022H408.139Z" fill="#00A99D"/>
<path opacity="0.1" d="M408.138 507.697V523.046H398.865C388.443 518.349 378.226 513.225 368.214 507.674L408.138 507.697Z" fill="#00A99D"/>
<path opacity="0.1" d="M625.197 273.108H603.089V295.199H625.197V273.108Z" fill="#00A99D"/>
<path opacity="0.1" d="M146.522 170.18H124.415V192.271H146.522V170.18Z" fill="#00A99D"/>
<path opacity="0.1" d="M146.522 221.493H124.415V243.584H146.522V221.493Z" fill="#00A99D"/>
<path opacity="0.1" d="M146.522 272.805H124.415V294.896H146.522V272.805Z" fill="#00A99D"/>
<path opacity="0.1" d="M146.522 324.11H124.415V346.201H146.522V324.11Z" fill="#00A99D"/>
<path opacity="0.1" d="M146.522 375.423H124.415V397.514H146.522V375.423Z" fill="#00A99D"/>
<path opacity="0.1" d="M146.522 426.736H124.415V448.827H146.522V426.736Z" fill="#00A99D"/>
<path opacity="0.1" d="M709.594 273.108H687.486V295.199H709.594V273.108Z" fill="#00A99D"/>
<path opacity="0.1" d="M625.197 327.598H603.089V349.689H625.197V327.598Z" fill="#00A99D"/>
<path opacity="0.1" d="M709.594 327.598H687.486V349.689H709.594V327.598Z" fill="#00A99D"/>
<path opacity="0.1" d="M625.197 382.08H603.089V404.171H625.197V382.08Z" fill="#00A99D"/>
<path opacity="0.1" d="M709.594 382.08H687.486V404.171H709.594V382.08Z" fill="#00A99D"/>
<path opacity="0.1" d="M625.197 436.569H603.089V458.66H625.197V436.569Z" fill="#00A99D"/>
<path opacity="0.1" d="M709.594 436.569H687.486V458.66H709.594V436.569Z" fill="#00A99D"/>
<path opacity="0.1" d="M625.197 491.059H603.089V513.15H625.197V491.059Z" fill="#00A99D"/>
<path opacity="0.1" d="M709.594 491.059H687.486V513.15H709.594V491.059Z" fill="#00A99D"/>
<path opacity="0.1" d="M603.089 559.787V545.541H625.189V557.759L603.089 559.787Z" fill="#00A99D"/>
<path opacity="0.1" d="M13.9922 231.761V244.399H89.6514V231.761H13.9922ZM21.5325 243.607H15.3603V232.538H21.5791L21.5325 243.607ZM29.065 243.607H22.8462V232.538H29.065V243.607ZM36.5819 243.607H30.3631V232.538H36.5819V243.607ZM44.1144 243.607H37.9034V232.538H44.1222L44.1144 243.607ZM51.6391 243.607H45.4203V232.538H51.6391V243.607ZM59.1716 243.607H52.9528V232.538H59.1716V243.607ZM66.7041 243.607H60.4853V232.538H66.7041V243.607ZM74.2288 243.607H68.0101V232.538H74.2288V243.607ZM81.7536 243.607H75.5348V232.538H81.7536V243.607ZM89.2783 243.607H83.0595V232.538H89.2783V243.607Z" fill="#00A99D"/>
<path opacity="0.1" d="M13.9922 268.533V281.171H89.6514V268.533H13.9922ZM21.5325 280.371H15.3603V269.333H21.5791L21.5325 280.371ZM29.065 280.371H22.8462V269.333H29.065V280.371ZM36.5819 280.371H30.3631V269.333H36.5819V280.371ZM44.1144 280.371H37.9034V269.333H44.1222L44.1144 280.371ZM51.6391 280.371H45.4203V269.333H51.6391V280.371ZM59.1716 280.371H52.9528V269.333H59.1716V280.371ZM66.7041 280.371H60.4853V269.333H66.7041V280.371ZM74.2288 280.371H68.0101V269.333H74.2288V280.371ZM81.7536 280.371H75.5348V269.333H81.7536V280.371ZM89.2783 280.371H83.0595V269.333H89.2783V280.371Z" fill="#00A99D"/>
<path opacity="0.1" d="M13.9922 305.32V317.982H89.6514V305.32H13.9922ZM21.5325 317.158H15.3603V306.113H21.5791L21.5325 317.158ZM29.065 317.158H22.8462V306.113H29.065V317.158ZM36.5819 317.158H30.3631V306.113H36.5819V317.158ZM44.1144 317.158H37.9034V306.113H44.1222L44.1144 317.158ZM51.6391 317.158H45.4203V306.113H51.6391V317.158ZM59.1716 317.158H52.9528V306.113H59.1716V317.158ZM66.7041 317.158H60.4853V306.113H66.7041V317.158ZM74.2288 317.158H68.0101V306.113H74.2288V317.158ZM81.7536 317.158H75.5348V306.113H81.7536V317.158ZM89.2783 317.158H83.0595V306.113H89.2783V317.158Z" fill="#00A99D"/>
<path opacity="0.1" d="M13.9922 342.108V354.73H89.6514V342.108H13.9922ZM21.5325 353.946H15.3603V342.892H21.5791L21.5325 353.946ZM29.065 353.946H22.8462V342.892H29.065V353.946ZM36.5819 353.946H30.3631V342.892H36.5819V353.946ZM44.1144 353.946H37.9034V342.892H44.1222L44.1144 353.946ZM51.6391 353.946H45.4203V342.892H51.6391V353.946ZM59.1716 353.946H52.9528V342.892H59.1716V353.946ZM66.7041 353.946H60.4853V342.892H66.7041V353.946ZM74.2288 353.946H68.0101V342.892H74.2288V353.946ZM81.7536 353.946H75.5348V342.892H81.7536V353.946ZM89.2783 353.946H83.0595V342.892H89.2783V353.946Z" fill="#00A99D"/>
<path opacity="0.1" d="M14.3188 378.887C14.622 380.076 14.964 381.264 15.3216 382.437V379.68H21.5404V390.725H18.2134C18.3144 390.981 18.4155 391.261 18.5165 391.502H89.6516V378.887H14.3188ZM29.0884 390.725H22.8697V379.68H29.0884V390.725ZM36.6054 390.725H30.3866V379.68H36.6054V390.725ZM44.1379 390.725H37.9036V379.68H44.1223L44.1379 390.725ZM51.6626 390.725H45.4438V379.68H51.6626V390.725ZM59.1951 390.725H52.9763V379.68H59.1951V390.725ZM66.7276 390.725H60.5088V379.68H66.7276V390.725ZM74.2523 390.725H68.0335V379.68H74.2523V390.725ZM81.7771 390.725H75.5583V379.68H81.7771V390.725ZM89.3018 390.725H83.083V379.68H89.3018V390.725Z" fill="#00A99D"/>
<path opacity="0.1" d="M31.8867 415.675C32.0811 415.923 32.2676 416.203 32.4697 416.451H36.5819V421.757C37.025 422.285 37.4603 422.813 37.9112 423.31V416.42H44.1299V427.505H41.6113C41.8601 427.761 42.1011 428.033 42.3887 428.281H89.6747V415.675H31.8867ZM51.6391 427.505H45.4203V416.467H51.6391V427.505ZM59.1716 427.505H52.9528V416.467H59.1716V427.505ZM66.7041 427.505H60.4853V416.467H66.7041V427.505ZM74.2288 427.505H68.01V416.467H74.2288V427.505ZM81.7536 427.505H75.5348V416.467H81.7536V427.505ZM89.2783 427.505H83.0595V416.467H89.2783V427.505Z" fill="#00A99D"/>
<path opacity="0.1" d="M73.3894 452.454C74.0968 452.858 74.8197 453.231 75.5504 453.635V453.246H81.7692V456.742L83.0907 457.355V453.246H89.3095V459.965C89.4287 460.025 89.5538 460.071 89.6826 460.105V452.454H73.3894Z" fill="#00A99D"/>
<path opacity="0.1" d="M586.493 259.375H586.54H586.493ZM538.609 488.628H539.386H538.609ZM488.648 371.982C488.796 372.479 488.921 372.976 489.06 373.465C488.936 372.976 488.804 372.479 488.648 371.982ZM586.493 259.352H586.54H586.493ZM116.975 143.04V146.357H151.699V143.04H116.975ZM538.609 488.628H539.386H538.609ZM488.648 371.982C488.796 372.479 488.921 372.976 489.06 373.465C488.936 372.976 488.804 372.479 488.648 371.982ZM586.493 259.352H586.54H586.493ZM538.609 488.604H539.386H538.609ZM488.648 371.982C488.796 372.479 488.921 372.976 489.06 373.465C488.936 372.976 488.804 372.479 488.648 371.982Z" fill="#00A99D"/>
<path d="M358.824 294.912C358.824 294.912 355.761 294.485 355.761 290.026C355.761 285.568 353.569 277.241 353.569 277.241C353.569 277.202 351.672 262.739 349.052 260.439C346.433 258.14 343.067 244.64 343.067 244.64C343.067 244.64 342.492 237.315 341.318 235.738C340.144 234.162 338.558 230.301 336.218 224.794C333.879 219.287 324.123 215.473 324.123 215.473C324.123 215.473 306.485 205.251 301.487 201.918C301.032 201.645 300.608 201.324 300.219 200.963C299.349 199.821 295.555 199.798 295.555 199.798C295.159 197.297 294.778 194.423 294.654 191.821C294.654 191.541 294.654 191.261 294.615 190.982C300.188 187.69 304.386 182.499 306.438 176.363C306.532 176.068 306.609 175.757 306.695 175.462C307.029 175.352 307.336 175.174 307.597 174.938C307.858 174.703 308.067 174.416 308.211 174.095C308.661 173.093 308.669 171.92 309.229 170.988C309.882 169.885 311.126 169.295 312.105 168.463C314.577 166.366 315.214 162.832 315.098 159.616C315.02 157.014 314.6 154.389 314.764 151.802L314.81 151.149C314.857 150.761 314.911 150.373 314.981 150C315.362 148.073 316.194 146.256 316.66 144.345C317.127 142.434 317.173 140.283 316.085 138.636C314.492 136.22 311.172 135.739 308.257 135.49C304.953 135.21 302 135.575 299.885 132.833C298.896 131.4 297.782 130.057 296.558 128.818C296.123 128.414 291.894 125.835 291.894 125.664C287.767 123.754 283.089 123.395 278.718 124.654C276.526 125.291 274.458 126.332 272.235 126.852C267.439 127.987 261.92 126.759 257.846 129.501C255.576 131.055 254.216 133.525 252.941 135.933C251.905 137.916 250.853 139.897 249.785 141.875C248.067 145.13 246.318 148.439 245.595 152.043C245.443 152.827 245.35 153.621 245.315 154.42V154.458C245.315 154.746 245.315 155.033 245.315 155.321V155.686C245.315 155.958 245.315 156.222 245.362 156.462C245.409 156.703 245.401 156.781 245.424 156.944C245.448 157.107 245.486 157.472 245.533 157.721C245.58 157.969 245.673 158.404 245.766 158.746C245.805 158.894 245.86 159.034 245.906 159.173C245.984 159.437 246.077 159.694 246.178 159.95C246.233 160.082 246.287 160.222 246.349 160.354C246.466 160.626 246.606 160.89 246.746 161.131C246.808 161.24 246.855 161.341 246.917 161.442C247.134 161.803 247.372 162.15 247.632 162.482C249.295 164.556 251.744 165.877 253.555 167.819C253.555 167.896 253.555 167.974 253.555 168.044C253.555 168.261 253.555 168.471 253.555 168.689C253.651 173.019 254.805 177.261 256.916 181.045C259.026 184.829 262.03 188.04 265.666 190.399C265.666 190.694 265.705 190.997 265.721 191.292C265.872 193.598 265.844 195.912 265.635 198.213C265.319 197.841 264.922 197.544 264.476 197.345C264.029 197.146 263.543 197.05 263.054 197.064C262.72 197.047 262.386 197.076 262.059 197.149L261.989 197.095V197.165C260.279 197.584 258.173 199.363 256.159 204.42C256.159 204.42 250.034 211.317 245.37 211.03C240.706 210.742 228.898 218.207 228.898 218.207C228.898 218.207 217.378 225.679 214.906 233.292C213.524 237.608 211.867 241.832 209.946 245.937L195.705 275.26L193.078 298.524C193.078 298.524 194.531 308.87 194.244 310.447C193.956 312.024 200.221 326.246 200.221 326.246C200.221 326.246 220.922 362.591 229.38 364.455L229.986 364.028C230.348 364.217 230.732 364.36 231.129 364.455L232.87 363.228C232.975 364.596 232.93 365.971 232.738 367.329C231.572 370.918 233.173 394.337 235.21 398.928C237.247 403.518 236.524 463.709 236.524 463.709L236.236 469.022C236.236 469.022 236.236 469.193 236.306 469.488L236.236 470.747L236.446 470.856C236.664 472.541 236.593 474.251 236.236 475.912C235.505 478.242 235.21 484.829 235.21 484.829C235.21 484.829 229.388 522.021 232.147 529.493C234.907 536.965 237.254 545.153 237.254 545.153C237.254 545.153 240.169 554.474 237.394 556.066C234.619 557.658 226.729 560.33 228.354 564.214C229.831 567.803 235.435 577.419 236.267 578.825L236.197 579.563L235.054 591.937C235.239 593.57 235.683 595.165 236.368 596.659C237.62 599.355 240.053 602.151 244.678 601.848C245.455 601.794 246.357 601.701 247.228 601.584C255.693 600.45 266.117 596.675 266.117 596.675C265.576 596.331 265.08 595.922 264.64 595.455C264.224 595.053 263.894 594.569 263.671 594.035C263.448 593.501 263.336 592.927 263.342 592.348C263.466 590.096 259.245 579.361 258.196 576.72C258.033 576.339 257.947 576.122 257.947 576.122C257.947 576.122 267.571 566.071 265.97 557.161C265.97 557.161 255.32 550.947 258.826 547.537C262.332 544.127 268.597 534.332 268.597 534.332C268.597 534.332 268.885 497.708 268.597 492.24C268.297 488.444 268.477 484.626 269.133 480.876C269.25 480.309 269.39 479.757 269.538 479.213C274.386 479.937 279.281 480.308 284.183 480.324C285.971 480.324 287.79 480.324 289.624 480.215C289.624 480.733 289.648 481.293 289.694 481.893C290.098 490.966 290.852 506.874 291.467 512.785C292.337 521.259 297.149 544.096 297.149 544.096C297.149 544.096 287.968 549.984 298.75 564.494C298.75 564.494 298.75 569.752 298.035 570.514C297.272 573.002 296.656 575.534 296.193 578.095C295.742 580.829 295.555 583.594 296.286 585.031C298.035 588.465 308.529 588.185 308.529 588.185L308.786 588.138C310.767 587.934 312.769 588.124 314.676 588.699C316.583 589.274 318.357 590.221 319.894 591.486C323.882 594.686 339.017 593.28 347.21 592.263C350.421 591.859 352.566 591.486 352.566 591.486C352.67 591.123 352.707 590.744 352.675 590.368C352.589 588.356 351.011 583.944 340.315 580.006C340.315 580.006 330.256 573.248 330.396 567.36H330.186H329.02C329.867 567.313 330.412 567.36 330.412 567.36C330.412 567.36 326.47 552.99 328.08 551.825C329.689 550.66 324.869 534.736 324.869 534.736C324.869 534.736 322.11 508.016 321.962 506.144C321.968 504.537 322.212 502.941 322.685 501.405L321.962 486.756C321.962 486.756 321.822 481.885 321.962 480.301C321.938 478.925 321.827 477.553 321.628 476.192C321.558 475.648 321.488 475.081 321.41 474.522C325.18 473.566 327.629 472.681 327.629 472.681L327.193 421.687C330.396 415.473 330.987 401.841 330.971 392.17C330.971 385.956 330.691 381.357 330.691 381.357L335.068 374.219C335.068 374.219 336.078 365.675 334.477 363.803C333.77 362.956 334.088 362.078 334.671 361.356C334.974 361.116 335.294 360.898 335.628 360.703C335.628 360.703 335.581 360.633 335.527 360.533C335.832 360.277 336.157 360.046 336.498 359.841C336.498 359.841 334.944 357.433 336.335 356.416C337.641 357.301 338.807 357.969 339.693 358.513C339.631 359.08 339.569 359.406 339.569 359.406L339.942 358.629C340.797 359.111 341.318 359.406 341.318 359.406C341.318 359.406 348.174 345.759 348.026 343.747C347.879 341.735 352.69 333.261 352.69 333.261C352.69 333.261 353.273 328.81 355.901 326.945C358.528 325.081 357.938 311.573 357.938 311.573C357.938 311.573 358.668 304.536 360.417 301.662C362.166 298.788 358.824 294.912 358.824 294.912ZM227.638 288.923L227.771 292.178C226.993 290.927 226.434 290.026 226.434 290.026L227.638 288.923Z" fill="url(#paint0_linear_35_16)"/>
<path d="M341.691 353.511L340.012 360.657C340.012 360.657 326.564 353.798 324.138 345.083C321.713 336.368 328.196 333.059 328.196 333.059L340.727 338.364L341.691 353.511Z" fill="white"/>
<path opacity="0.1" d="M341.691 353.511L340.012 360.657C340.012 360.657 326.564 353.798 324.138 345.083C321.713 336.368 328.196 333.059 328.196 333.059L340.727 338.364L341.691 353.511Z" fill="black"/>
<path d="M266.218 596.721C266.218 596.721 253.781 601.289 245.23 601.864C240.69 602.167 238.304 599.386 237.075 596.706C236.404 595.216 235.972 593.63 235.793 592.007L236.904 579.695L237.495 573.139L255.662 568.424L258.235 576.285L258.476 576.883C259.51 579.508 263.653 590.189 263.528 592.418C263.523 592.989 263.634 593.555 263.853 594.082C264.072 594.609 264.395 595.087 264.803 595.486C265.22 595.957 265.696 596.372 266.218 596.721Z" fill="white"/>
<path d="M351.174 590.461C351.205 590.835 351.169 591.211 351.066 591.572C351.066 591.572 324.465 596.007 319.023 591.572C317.489 590.276 315.701 589.315 313.773 588.75C311.845 588.186 309.821 588.03 307.829 588.294C307.829 588.294 297.537 588.573 295.819 585.187C295.104 583.765 295.291 581.008 295.734 578.289C296.186 575.742 296.788 573.223 297.537 570.747L297.949 570.42L300.398 568.455L329.067 567.609H329.284C329.144 573.465 339.017 580.184 339.017 580.184C349.503 584.068 351.05 588.457 351.174 590.461Z" fill="white"/>
<path opacity="0.1" d="M351.174 590.461C351.202 590.835 351.162 591.211 351.058 591.572C351.058 591.572 324.465 596.007 319.023 591.572C317.49 590.277 315.703 589.317 313.777 588.752C311.851 588.188 309.827 588.031 307.837 588.294C307.837 588.294 297.537 588.573 295.827 585.187C295.112 583.757 295.291 581.008 295.734 578.289C299.698 578.685 305.956 579.672 308.413 582.025C312.128 585.606 318.425 589.179 322.288 589.459C325.312 589.653 343.401 590.228 351.174 590.461Z" fill="black"/>
<path opacity="0.1" d="M266.218 596.721C266.218 596.721 253.781 601.289 245.23 601.864C240.69 602.167 238.304 599.386 237.083 596.698C240.247 597.762 244.639 598.881 246.948 597.856C249.684 596.644 259.385 595.859 264.827 595.525C265.241 595.978 265.708 596.38 266.218 596.721Z" fill="black"/>
<path d="M284.672 228.654C274.411 224.67 261.212 211.504 264.508 205.352C265.24 203.799 265.675 202.124 265.791 200.411C266.003 198.087 266.034 195.75 265.884 193.421C265.653 189.606 265.193 185.809 264.508 182.049C264.508 182.049 296.542 182.771 294.677 187.486C294.133 188.869 294.047 191.269 294.195 193.957C294.343 196.644 294.731 199.681 295.135 202.252C295.695 205.779 296.255 208.466 296.255 208.466C296.255 208.466 294.296 211.208 293.145 211.356C291.995 211.504 299.395 234.333 284.672 228.654Z" fill="#CF6F80"/>
<path opacity="0.1" d="M258.452 576.883L258.212 577.147C248.635 565.573 237.052 579.998 237.052 579.998L236.881 579.695L237.472 573.139L255.639 568.424L258.212 576.285L258.452 576.883Z" fill="black"/>
<path opacity="0.1" d="M329.292 568.424C329.292 568.424 322.296 568.277 318.565 571.57C314.834 574.863 296.799 572.285 297.576 571.57C297.807 571.216 297.946 570.81 297.981 570.389L300.429 568.424L329.098 567.578C329.207 568.098 329.292 568.424 329.292 568.424Z" fill="black"/>
<path d="M270.369 477.536C269.848 478.823 269.453 480.157 269.188 481.52C268.539 485.253 268.359 489.053 268.651 492.83C268.939 498.267 268.651 534.705 268.651 534.705C268.651 534.705 262.503 544.422 259.074 547.848C255.646 551.273 266.071 557.425 266.071 557.425C267.625 566.28 258.204 576.285 258.204 576.285C248.627 564.711 237.044 579.143 237.044 579.143C237.044 579.143 230.748 568.269 229.178 564.385C227.607 560.501 235.326 557.814 238.039 556.237C240.752 554.66 237.907 545.362 237.907 545.362C237.907 545.362 235.614 537.214 232.893 529.78C230.173 522.347 235.894 485.342 235.894 485.342C235.894 485.342 236.189 478.771 236.897 476.479C237.254 474.826 237.325 473.123 237.107 471.446C237.06 470.879 237.006 470.405 236.967 470.087C236.928 469.768 236.897 469.62 236.897 469.62L237.006 469.434L240.892 462.195C240.892 462.195 272.235 472.976 270.369 477.536Z" fill="#00A99D"/>
<path d="M329.292 567.57C329.292 567.57 322.296 567.422 318.565 570.677C314.833 573.931 296.799 571.391 297.576 570.677C298.354 569.962 298.292 564.672 298.292 564.672C287.712 550.24 296.737 544.383 296.737 544.383C296.737 544.383 292.011 521.663 291.155 513.235C290.557 507.348 289.818 491.525 289.422 482.491C289.251 478.608 289.15 475.935 289.15 475.935L297.794 474.196L298.906 473.97L319.754 469.791C319.754 469.791 320.329 473.675 320.718 476.852C320.912 478.209 321.021 479.576 321.044 480.946C320.905 482.499 321.044 487.362 321.044 487.362L321.752 501.941C321.29 503.471 321.051 505.059 321.044 506.656C321.184 508.513 323.897 535.093 323.897 535.093C323.897 535.093 328.616 550.955 327.007 552.097C325.398 553.239 329.292 567.57 329.292 567.57Z" fill="#00A99D"/>
<path opacity="0.1" d="M294.677 187.486C294.133 188.869 294.047 191.269 294.195 193.957C289.904 196.539 284.971 197.859 279.963 197.765C274.955 197.672 270.075 196.169 265.884 193.428C265.653 189.611 265.194 185.811 264.508 182.049C264.508 182.049 296.543 182.756 294.677 187.486Z" fill="black"/>
<path d="M307.06 170.32C307.066 173.119 306.625 175.901 305.754 178.561C303.807 184.522 299.813 189.603 294.479 192.905C289.145 196.208 282.815 197.521 276.606 196.611C270.398 195.701 264.711 192.627 260.551 187.932C256.391 183.238 254.026 177.225 253.874 170.957C253.874 170.739 253.874 170.537 253.874 170.32C253.814 166.792 254.457 163.286 255.767 160.009C257.076 156.732 259.026 153.748 261.501 151.231C263.977 148.715 266.929 146.716 270.186 145.352C273.443 143.987 276.939 143.285 280.471 143.285C284.003 143.285 287.499 143.987 290.756 145.352C294.012 146.716 296.965 148.715 299.441 151.231C301.916 153.748 303.866 156.732 305.175 160.009C306.485 163.286 307.128 166.792 307.068 170.32H307.06Z" fill="#CF6F80"/>
<path opacity="0.1" d="M284.672 228.654C274.411 224.67 261.212 211.504 264.508 205.352C265.24 203.799 265.675 202.124 265.791 200.411L279.837 211.946L288.528 219.069L295.135 202.26C295.695 205.787 296.255 208.474 296.255 208.474C296.255 208.474 294.296 211.216 293.145 211.364C291.995 211.511 299.395 234.333 284.672 228.654Z" fill="black"/>
<path d="M320.998 279.633L309.268 476.541L293.97 477.543L254.356 363.368L260.855 227.816L262.223 199.176L279.837 213.632L288.536 220.755L295.338 203.456L307.985 214.471L320.998 279.633Z" fill="#00A99D"/>
<path opacity="0.1" d="M270.369 477.536C269.848 478.823 269.452 480.157 269.188 481.52C258.056 479.803 247.245 476.428 237.114 471.508L236.904 471.399L236.974 470.149L237.013 469.496L240.9 462.257C240.9 462.257 272.235 472.976 270.369 477.536Z" fill="black"/>
<path opacity="0.1" d="M297.973 481.552C295.127 482.035 292.257 482.362 289.375 482.53C289.204 478.646 289.103 475.974 289.103 475.974L297.747 474.234L297.973 481.552Z" fill="black"/>
<path opacity="0.1" d="M320.671 476.891C315.144 478.328 306.609 479.944 298.968 478.934L298.859 474.009L319.707 469.83C319.707 469.83 320.283 473.675 320.671 476.891Z" fill="black"/>
<path opacity="0.1" d="M298.828 479.835C266.957 485.272 237.767 469.683 237.767 469.683L238.047 464.401C238.047 464.401 238.77 404.52 236.765 399.93C234.759 395.339 233.197 372.06 234.331 368.487C235.466 364.913 230.188 311.333 230.188 311.333L229.333 289.583L198.037 276.914L212.029 247.77C213.919 243.684 215.545 239.481 216.896 235.187C219.329 227.621 230.624 220.188 230.624 220.188C230.624 220.188 242.206 212.762 246.785 213.042C251.363 213.321 257.364 206.47 257.364 206.47C261.795 195.184 265.806 200.295 265.806 200.295C265.806 200.831 265.806 200.295 265.589 201.965C264.034 214.354 290.728 253.503 291.109 254.194L293.651 316.071L296.224 394.376L298.828 479.835Z" fill="black"/>
<path d="M297.973 479.835C266.102 485.272 236.904 469.683 236.904 469.683L237.192 464.401C237.192 464.401 237.915 404.52 235.902 399.93C233.888 395.339 232.334 372.06 233.476 368.487C234.619 364.913 229.333 311.333 229.333 311.333L228.47 289.583L197.159 276.868L211.151 247.724C213.037 243.636 214.662 239.433 216.017 235.14C218.442 227.575 229.745 220.141 229.745 220.141C229.745 220.141 241.328 212.715 245.898 212.995C250.469 213.275 256.478 206.424 256.478 206.424C260.917 195.137 265.806 200.248 265.806 200.248C265.806 200.784 265.34 201.025 265.589 201.918C269.009 213.935 289.873 253.456 290.254 254.148L292.827 316.024L295.4 394.329L297.973 479.835Z" fill="white"/>
<path opacity="0.1" d="M289.383 255.911C285.955 254.482 267.796 233.765 267.796 233.765V229.051C267.135 227.497 263.21 228.445 260.023 229.532L261.391 200.893L262.946 202.183C266.35 214.191 288.987 255.22 289.383 255.911Z" fill="black"/>
<path d="M290.246 254.194C286.81 252.765 268.651 232.049 268.651 232.049V227.334C267.99 225.78 264.065 226.728 260.878 227.816L262.254 199.176L263.808 200.466C267.221 212.475 289.865 253.511 290.246 254.194Z" fill="white"/>
<path opacity="0.1" d="M237.767 357.511C238.195 357.511 259.93 355.227 259.93 355.227C259.93 355.227 273.09 381.086 272.227 387.377C271.364 393.669 269.802 399.238 264.508 398.252C259.214 397.265 236.018 399.029 236.018 399.029L237.767 357.511Z" fill="black"/>
<path d="M236.904 355.794C237.332 355.794 259.066 353.511 259.066 353.511C259.066 353.511 272.219 379.377 271.364 385.661C270.509 391.945 268.931 397.522 263.645 396.535C258.359 395.549 235.155 397.312 235.155 397.312L236.904 355.794Z" fill="white"/>
<path d="M253.283 343.654C253.283 343.654 273.23 354.365 273.657 357.635C274.085 360.905 263.505 356.206 261.22 355.639C259.716 355.277 258.184 355.038 256.641 354.924L241.397 355.336L253.283 343.654Z" fill="#CF6F80"/>
<path opacity="0.1" d="M283.817 257.247C284.976 257.247 285.916 256.308 285.916 255.15C285.916 253.991 284.976 253.052 283.817 253.052C282.658 253.052 281.719 253.991 281.719 255.15C281.719 256.308 282.658 257.247 283.817 257.247Z" fill="black"/>
<path d="M283.817 256.392C284.976 256.392 285.916 255.454 285.916 254.295C285.916 253.137 284.976 252.198 283.817 252.198C282.658 252.198 281.719 253.137 281.719 254.295C281.719 255.454 282.658 256.392 283.817 256.392Z" fill="#3F3D56"/>
<path opacity="0.1" d="M287.681 348.034C288.84 348.034 289.779 347.095 289.779 345.937C289.779 344.779 288.84 343.84 287.681 343.84C286.521 343.84 285.582 344.779 285.582 345.937C285.582 347.095 286.521 348.034 287.681 348.034Z" fill="black"/>
<path d="M287.681 347.172C288.84 347.172 289.779 346.233 289.779 345.075C289.779 343.917 288.84 342.978 287.681 342.978C286.521 342.978 285.582 343.917 285.582 345.075C285.582 346.233 286.521 347.172 287.681 347.172Z" fill="#3F3D56"/>
<path opacity="0.1" d="M285.908 302.641C287.068 302.641 288.007 301.702 288.007 300.543C288.007 299.385 287.068 298.446 285.908 298.446C284.749 298.446 283.81 299.385 283.81 300.543C283.81 301.702 284.749 302.641 285.908 302.641Z" fill="black"/>
<path d="M285.908 301.786C287.068 301.786 288.007 300.847 288.007 299.689C288.007 298.531 287.068 297.592 285.908 297.592C284.749 297.592 283.81 298.531 283.81 299.689C283.81 300.847 284.749 301.786 285.908 301.786Z" fill="#3F3D56"/>
<path d="M334.29 354.489C334.29 354.489 335.721 356.633 334.29 357.635C332.86 358.637 334.43 361.061 334.43 361.061C334.43 361.061 330.862 363.15 332.433 365.03C334.003 366.91 333.008 375.4 333.008 375.4L328.717 382.499C328.717 382.499 328.973 387.074 328.989 393.257C328.989 402.905 328.421 416.467 325.281 422.65L325.716 473.38C325.716 473.38 310.69 478.864 298.113 477.194L296.247 395.79C296.247 395.79 298.968 349.627 299.971 340.772C300.557 336.175 300.796 331.54 300.686 326.907C300.686 326.907 300.258 313.049 298.82 306.618C298.82 306.618 297.265 278.755 297.11 271.042C297.04 267.353 297.234 256.587 297.452 246.349C297.693 235.156 297.965 224.6 297.965 224.6L295.128 202.167C295.128 202.167 297.965 201.88 298.82 203.021C299.203 203.379 299.62 203.699 300.064 203.977C304.961 207.286 322.265 217.461 322.265 217.461C322.265 217.461 331.842 221.267 334.135 226.72C336.428 232.173 338.022 236.041 339.133 237.595C340.245 239.148 340.851 246.45 340.851 246.45C340.851 246.45 344.147 259.888 346.72 262.164C349.293 264.44 351.174 278.918 351.174 278.918L328.437 296.784C328.437 296.784 326.439 326.503 326.012 327.652C325.584 328.802 334.29 354.489 334.29 354.489Z" fill="white"/>
<path d="M335.153 354.489C335.153 354.489 336.576 356.633 335.153 357.635C333.731 358.637 335.285 361.061 335.285 361.061C335.285 361.061 331.741 363.173 333.295 365.053C334.85 366.933 333.871 375.423 333.871 375.423L329.58 382.523C329.58 382.523 329.836 387.098 329.86 393.281C329.86 402.928 329.292 416.49 326.152 422.673L326.579 473.403C326.579 473.403 311.53 478.887 298.968 477.217L297.11 395.813C297.11 395.813 299.831 349.65 300.833 340.795C301.421 336.198 301.657 331.563 301.541 326.93C301.541 326.93 301.113 313.073 299.683 306.641C299.683 306.641 298.128 278.779 297.965 271.065C297.895 267.376 298.097 256.61 298.307 246.372C298.548 235.179 298.82 224.623 298.82 224.623L295.073 201.887C295.073 201.887 298.82 201.887 299.683 203.045C300.062 203.406 300.479 203.727 300.927 204C305.824 207.309 323.135 217.485 323.135 217.485C323.135 217.485 332.705 221.291 334.998 226.744C337.291 232.196 338.885 236.065 340.004 237.618C341.123 239.172 341.714 246.473 341.714 246.473C341.714 246.473 345.01 259.911 347.583 262.187C350.156 264.463 352.014 278.911 352.014 278.911L329.277 296.776C329.277 296.776 327.279 326.495 326.843 327.645C326.408 328.794 335.153 354.489 335.153 354.489Z" fill="white"/>
<path opacity="0.1" d="M307.923 231.218L309.975 237.199L299.17 248.073C299.411 236.888 299.683 226.324 299.683 226.324L295.936 203.588C295.936 203.588 299.683 203.588 300.546 204.746C300.924 205.107 301.341 205.424 301.79 205.693L310.978 232.181L307.923 231.218Z" fill="black"/>
<path d="M307.06 229.501L309.12 235.482L298.315 246.357C298.556 235.164 298.828 224.608 298.828 224.608L295.073 201.872C295.073 201.872 298.828 201.872 299.683 203.029C300.064 203.389 300.481 203.709 300.927 203.985L310.123 230.464L307.06 229.501Z" fill="white"/>
<path opacity="0.1" d="M307.06 170.32C307.066 173.119 306.625 175.901 305.754 178.561C305.607 178.584 305.457 178.577 305.313 178.541C305.169 178.505 305.033 178.441 304.915 178.352C304.713 171.361 301.269 164.797 297.032 159.212C295.843 157.526 294.401 156.033 292.757 154.785C291.095 153.537 289.028 152.953 286.958 153.146C284.626 153.464 282.566 155.049 280.211 155.251C277.101 155.507 274.318 153.355 271.232 153.247C269.978 153.259 268.74 153.538 267.602 154.066C266.464 154.593 265.452 155.357 264.633 156.307C263.011 158.224 261.807 160.456 261.096 162.863C259.873 166.513 259.208 170.325 259.121 174.173C259.082 176.348 258.872 179.074 256.851 179.866C257.003 178.267 256.821 176.653 256.317 175.127C255.813 173.602 254.997 172.197 253.921 171.003L253.874 170.957C253.874 170.739 253.874 170.537 253.874 170.32C253.814 166.792 254.457 163.286 255.767 160.009C257.076 156.732 259.026 153.748 261.501 151.231C263.977 148.715 266.929 146.716 270.186 145.352C273.443 143.987 276.939 143.285 280.471 143.285C284.003 143.285 287.499 143.987 290.756 145.352C294.012 146.716 296.965 148.715 299.441 151.231C301.916 153.748 303.866 156.732 305.175 160.009C306.485 163.286 307.128 166.792 307.068 170.32H307.06Z" fill="black"/>
<path d="M291.482 128.119C287.443 126.22 282.848 125.861 278.562 127.109C276.409 127.746 274.38 128.779 272.196 129.299C267.532 130.426 262.09 129.206 258.087 131.932C255.864 133.486 254.527 135.941 253.283 138.325L250.174 144.244C248.479 147.483 246.769 150.777 246.062 154.342C245.354 157.907 245.782 161.9 248.044 164.766C249.692 166.856 252.125 168.168 253.913 170.133C254.984 171.329 255.796 172.732 256.299 174.256C256.802 175.78 256.985 177.391 256.836 178.988C258.865 178.212 259.059 175.478 259.105 173.303C259.192 169.455 259.858 165.643 261.08 161.993C261.789 159.586 262.994 157.353 264.617 155.437C265.437 154.488 266.449 153.725 267.587 153.197C268.725 152.669 269.962 152.39 271.217 152.377C274.326 152.485 277.117 154.629 280.195 154.373C282.527 154.179 284.595 152.586 286.942 152.276C289.012 152.08 291.081 152.665 292.741 153.915C294.385 155.161 295.824 156.654 297.009 158.342C301.253 163.927 304.697 170.475 304.899 177.482C305.777 178.126 307.044 177.287 307.48 176.293C307.915 175.299 307.931 174.134 308.483 173.186C309.12 172.091 310.34 171.508 311.297 170.685C313.722 168.595 314.328 165.077 314.235 161.884C314.142 158.692 313.52 155.453 314.126 152.315C314.491 150.388 315.315 148.586 315.766 146.683C316.217 144.78 316.272 142.644 315.207 141.005C313.652 138.597 310.379 138.123 307.526 137.898C304.285 137.618 301.385 137.976 299.318 135.249C298.347 133.826 297.255 132.491 296.053 131.257C295.641 130.853 291.482 128.289 291.482 128.119Z" fill="#512E4E"/>
<path opacity="0.1" d="M206.992 291.921L198.869 276.914L196.296 300.07C196.296 300.07 197.726 310.354 197.438 311.931C197.151 313.508 203.3 327.645 203.3 327.645C203.3 327.645 223.612 363.795 231.906 365.659L259.929 345.65L252.498 336.22C252.498 336.22 249.925 335.218 249.28 336.22C249.28 336.22 235.482 312.498 234.051 310.781C232.621 309.064 232.901 305.639 232.901 305.639C232.901 305.639 230.755 303.355 231.471 301.211C232.186 299.068 227.327 291.634 227.327 291.634L231.758 287.494L206.992 291.921Z" fill="black"/>
<path d="M199.296 275.206L197.151 276.914L194.578 300.07C194.578 300.07 196.008 310.354 195.721 311.931C195.433 313.507 201.59 327.645 201.59 327.645C201.59 327.645 221.894 363.795 230.188 365.659L258.219 345.65L250.78 336.22C250.78 336.22 248.207 335.218 247.562 336.22C247.562 336.22 233.764 312.498 232.334 310.781C230.903 309.064 231.191 305.639 231.191 305.639C231.191 305.639 229.045 303.355 229.761 301.211C230.476 299.068 225.61 291.634 225.61 291.634L230.04 287.494L199.296 275.206Z" fill="white"/>
<path opacity="0.1" d="M332.433 365.915C333.987 367.803 333.008 376.277 333.008 376.277L328.717 383.377C328.717 383.377 328.973 387.96 328.989 394.135L321.775 396.388C321.123 396.591 320.432 396.636 319.759 396.518C319.087 396.4 318.452 396.124 317.908 395.711C317.364 395.298 316.927 394.761 316.633 394.145C316.338 393.529 316.196 392.852 316.217 392.17L317.461 352.081L334.29 358.513C332.86 359.507 334.43 361.946 334.43 361.946C334.43 361.946 330.862 364.028 332.433 365.915Z" fill="black"/>
<path d="M333.295 365.053C334.85 366.941 333.871 375.423 333.871 375.423L329.58 382.523C329.58 382.523 329.836 387.098 329.86 393.281L322.514 395.572C321.875 395.77 321.199 395.813 320.54 395.697C319.882 395.582 319.26 395.31 318.728 394.906C318.196 394.502 317.768 393.976 317.48 393.373C317.192 392.77 317.052 392.107 317.072 391.44L318.324 351.227L335.161 357.658C333.723 358.653 335.293 361.084 335.293 361.084C335.293 361.084 331.741 363.173 333.295 365.053Z" fill="white"/>
<path d="M338.869 345.945C338.869 345.945 337.726 353.239 334.866 353.666C332.005 354.093 330.723 365.465 327.87 365.061C325.017 364.657 326.906 354.489 327.007 352.516C327.108 350.543 323.897 342.372 326.299 340.515C328.701 338.659 336.304 340.515 336.304 340.515L338.869 345.945Z" fill="#CF6F80"/>
<path opacity="0.1" d="M344.956 289.778L350.35 278.903C350.35 278.903 352.496 287.191 352.496 291.618C352.496 296.046 355.497 296.481 355.497 296.481C355.497 296.481 358.785 300.365 357.051 303.192C355.318 306.02 354.618 313.057 354.618 313.057C354.618 313.057 355.186 326.487 352.613 328.344C350.04 330.2 349.503 334.635 349.503 334.635C349.503 334.635 344.777 343.063 344.925 345.067C345.072 347.071 338.348 360.641 338.348 360.641C338.348 360.641 341.636 343.778 322.475 336.492C322.475 336.492 322.327 330.767 323.757 329.198C325.188 327.629 327.419 326.914 326.02 318.984C324.62 311.053 325.615 301.577 325.615 299.673C325.615 297.77 329.906 285.902 329.906 285.902L344.956 289.778Z" fill="black"/>
<path d="M347.288 277.349L351.998 278.903C351.998 278.903 354.152 287.191 354.152 291.618C354.152 296.046 357.152 296.481 357.152 296.481C357.152 296.481 360.44 300.365 358.707 303.192C356.973 306.02 356.282 313.057 356.282 313.057C356.282 313.057 356.849 326.487 354.276 328.344C351.703 330.2 351.128 334.635 351.128 334.635C351.128 334.635 346.409 343.063 346.557 345.067C346.705 347.071 339.973 360.641 339.973 360.641C339.973 360.641 343.269 343.778 324.099 336.492C324.099 336.492 323.96 330.767 325.39 329.198C326.82 327.629 329.051 326.914 327.652 318.984C326.253 311.053 327.248 301.576 327.248 299.673C327.248 297.77 331.539 285.902 331.539 285.902L347.288 277.349Z" fill="white"/>
<path opacity="0.1" d="M243.24 559.212C243.24 559.212 250.749 554.497 255.677 557.922C260.606 561.348 243.24 559.212 243.24 559.212Z" fill="black"/>
<path opacity="0.1" d="M301.587 544.632C301.587 544.632 308.234 543.778 313.815 549.782C319.396 555.786 301.587 544.632 301.587 544.632Z" fill="black"/>
<g opacity="0.1">
<path d="M311.312 168.984C310.356 169.807 309.128 170.398 308.49 171.493C307.946 172.433 307.931 173.59 307.495 174.6C307.06 175.61 305.793 176.433 304.915 175.796C304.712 168.805 301.261 162.242 297.024 156.649C295.84 154.961 294.4 153.467 292.757 152.221C291.093 150.971 289.022 150.387 286.95 150.582C284.618 150.901 282.566 152.485 280.21 152.68C277.101 152.944 274.31 150.792 271.224 150.683C269.97 150.696 268.733 150.976 267.596 151.505C266.459 152.034 265.449 152.8 264.632 153.752C263.01 155.664 261.805 157.895 261.095 160.3C259.874 163.949 259.208 167.762 259.121 171.609C259.074 173.776 258.872 176.48 256.867 177.287C256.913 177.861 256.913 178.438 256.867 179.012C258.888 178.235 259.09 175.501 259.137 173.326C259.223 169.478 259.889 165.666 261.111 162.016C261.821 159.609 263.025 157.376 264.648 155.46C265.466 154.512 266.477 153.748 267.614 153.22C268.75 152.693 269.987 152.413 271.24 152.4C274.349 152.509 277.148 154.653 280.226 154.396C282.558 154.202 284.626 152.61 286.966 152.299C289.038 152.104 291.109 152.688 292.772 153.938C294.416 155.184 295.856 156.678 297.04 158.366C301.277 163.95 304.728 170.498 304.93 177.505C305.809 178.15 307.076 177.311 307.511 176.316C307.946 175.322 307.962 174.157 308.506 173.209C309.143 172.114 310.372 171.532 311.328 170.708C313.753 168.619 314.359 165.1 314.266 161.908C314.266 161.807 314.266 161.706 314.266 161.612C314.118 164.378 313.38 167.197 311.312 168.984Z" fill="black"/>
<path d="M253.928 168.432C252.14 166.467 249.7 165.154 248.059 163.073C246.678 161.23 245.889 159.012 245.797 156.711C245.553 159.586 246.356 162.452 248.059 164.782C249.7 166.871 252.14 168.184 253.928 170.149C255.645 172.071 256.675 174.508 256.859 177.078C256.978 175.514 256.78 173.942 256.276 172.456C255.773 170.971 254.974 169.602 253.928 168.432Z" fill="black"/>
<path d="M315.782 144.982C315.323 146.885 314.507 148.695 314.134 150.613C313.913 151.896 313.832 153.198 313.893 154.497C313.919 153.757 313.999 153.02 314.134 152.291C314.507 150.365 315.323 148.563 315.782 146.66C316.049 145.61 316.136 144.523 316.038 143.444C315.99 143.962 315.904 144.476 315.782 144.982Z" fill="black"/>
</g>
<path opacity="0.1" d="M103.177 590.795C145.01 590.795 178.922 585.352 178.922 578.639C178.922 571.925 145.01 566.482 103.177 566.482C61.3447 566.482 27.4326 571.925 27.4326 578.639C27.4326 585.352 61.3447 590.795 103.177 590.795Z" fill="#00A99D"/>
<path d="M105.618 345.766H100.744V455.421H105.618V345.766Z" fill="#535461"/>
<path d="M136.246 455.087L135.943 460.028L135.507 467.018L135.328 469.923L134.901 476.914L134.714 479.819L134.279 486.81L129.366 566.094C129.153 569.505 127.646 572.707 125.154 575.047C122.661 577.388 119.37 578.692 115.949 578.693H90.4055C86.9859 578.692 83.6953 577.388 81.204 575.047C78.7126 572.706 77.2079 569.504 76.9963 566.094L72.1068 486.756L71.6715 479.765L71.4927 476.86L71.0574 469.869L70.8786 466.964L70.4433 459.973L70.1323 455.033C70.0783 454.082 70.2193 453.13 70.5466 452.236C70.874 451.341 71.3807 450.523 72.0358 449.832C72.6909 449.14 73.4806 448.589 74.3563 448.213C75.232 447.838 76.1754 447.644 77.1285 447.646H129.374C130.323 447.654 131.261 447.857 132.129 448.241C132.997 448.625 133.778 449.183 134.421 449.881C135.065 450.578 135.559 451.4 135.873 452.295C136.187 453.191 136.314 454.141 136.246 455.087Z" fill="#3F3D56"/>
<path d="M135.942 460.027L135.507 466.995H70.8474L70.4121 460.027H135.942Z" fill="#9D9CB5"/>
<path d="M135.328 469.9L134.901 476.875H71.4614L71.0261 469.9H135.328Z" fill="#9D9CB5"/>
<path d="M134.714 479.788L134.287 486.756H72.0757L71.6404 479.788H134.714Z" fill="#9D9CB5"/>
<path d="M62.973 386.865C91.3539 407.387 103.201 439.482 103.201 439.482C103.201 439.482 68.9974 438.309 40.6087 417.787C12.2199 397.265 0.396484 365.178 0.396484 365.178C0.396484 365.178 34.5842 366.343 62.973 386.865Z" fill="#00A99D"/>
<path d="M0.373169 365.178C0.373169 365.178 35.8824 384.868 47.2705 401.172C58.6587 417.477 103.201 439.482 103.201 439.482" stroke="#535461" stroke-width="2" stroke-miterlimit="10"/>
<path d="M81.2951 345.526C96.741 356.688 103.201 374.157 103.201 374.157C103.201 374.157 84.5832 373.52 69.1296 362.358C53.6759 351.196 47.2317 333.719 47.2317 333.719C47.2317 333.719 65.8414 334.356 81.2951 345.526Z" fill="#00A99D"/>
<path d="M47.2317 333.719C47.2317 333.719 66.5565 344.438 72.752 353.309C78.9475 362.179 103.201 374.157 103.201 374.157" stroke="#535461" stroke-width="2" stroke-miterlimit="10"/>
<path d="M125.627 373.271C107.88 392.76 104.126 418.23 104.126 418.23C104.126 418.23 129.149 412.094 146.88 392.597C164.611 373.1 168.381 347.638 168.381 347.638C168.381 347.638 143.374 353.782 125.627 373.271Z" fill="#00A99D"/>
<path d="M168.397 347.646C168.397 347.646 145.279 367.624 139.402 381.388C133.525 395.153 104.126 418.23 104.126 418.23" stroke="#535461" stroke-width="2" stroke-miterlimit="10"/>
<path d="M777.091 366.413C777.091 366.413 764.257 302.61 769.17 294.671C769.17 294.671 769.349 287.292 769.053 277.885C769.053 277.528 769.053 277.171 769.053 276.806C769.918 277.382 770.819 277.9 771.751 278.359C776.277 280.683 781.474 281.353 786.442 280.254L782.556 275.928C781.623 274.895 780.651 273.776 780.449 272.409C780.247 271.042 780.807 269.823 781.289 268.603C784.981 259.282 785.175 247.561 778.063 240.446C772.054 234.465 770.592 226.744 764.07 221.283C759.305 217.283 756.686 211.418 754.214 205.748C752.123 200.955 750.016 196.124 748.819 191.044C747.886 187.075 747.513 182.965 746.23 179.089C744.948 175.213 742.546 171.446 738.791 169.714C737.454 169.1 735.969 168.751 734.749 167.935C733.147 166.856 732.184 165.1 731.025 163.562C725.141 155.794 705.435 160.37 696.107 163.523C693.571 164.317 691.223 165.618 689.204 167.345L689.29 167.205C689.36 167.089 689.445 166.972 689.523 166.856C688.502 167.681 687.62 168.664 686.911 169.768C685.551 171.92 684.983 174.429 683.848 176.759C682.48 179.517 674.87 187.214 678.142 190.314C678.372 190.522 678.635 190.69 678.92 190.811C680.148 191.322 681.501 191.457 682.806 191.199L682.667 191.533C681.549 194.268 680.976 197.194 680.98 200.147C680.98 212.91 691.513 223.256 704.518 223.256C706.963 223.258 709.393 222.884 711.724 222.145C711.778 222.44 711.825 222.736 711.879 223.031C711.879 223.147 711.918 223.264 711.934 223.38L711.522 223.955C711.501 223.92 711.478 223.886 711.452 223.854L699.247 240.896C697.382 242.209 686.639 249.976 686.032 255.802C685.395 262.179 684.758 269.644 684.758 269.644L684.672 271.244C684.139 271.689 683.515 272.014 682.844 272.195C682.173 272.376 681.471 272.409 680.785 272.293C676.976 271.671 676.976 286.274 676.976 286.274C676.976 286.274 674.442 288.605 672.701 286.585C670.96 284.565 666.358 291.409 666.358 291.409L637.518 292.652L636.857 292.69L635.303 287.882C635.135 287.375 634.775 286.954 634.299 286.712C633.823 286.469 633.27 286.423 632.761 286.585C632.64 286.625 632.523 286.674 632.411 286.733L632.302 286.795L632.1 286.935L631.999 287.028C631.943 287.078 631.891 287.133 631.844 287.191L631.75 287.3L631.704 287.346C631.524 287.594 631.405 287.881 631.357 288.183C631.308 288.485 631.331 288.795 631.424 289.086L632.761 293.211C627.195 294.329 621.505 297.483 626.146 306.167L602.623 301.825L610.233 308.21L649.52 316.312C649 317.244 649.342 318.595 650.966 320.498C657.962 328.709 670.711 330.938 675.841 331.513C677.196 334.541 678.889 337.408 680.886 340.057L680.443 348.236C680.443 348.236 667.454 410.579 665.075 413.74C666.276 412.381 667.375 410.935 668.363 409.414C664.593 422.223 659.323 439.754 657.939 442.38C655.716 446.574 653.656 463.546 656.19 464.634C656.967 464.968 659.191 464.805 662.362 464.564V465.97L662.222 519.248C662.222 519.248 662.86 551.926 661.111 555.041C659.362 558.155 658.895 564.688 658.895 564.688C658.895 564.688 651.899 577.574 646.357 582.755C646.319 582.796 646.277 582.832 646.232 582.864L646.061 581.652C646.061 581.652 639.399 590.057 624.661 589.583C624.661 589.583 615.791 595.347 628.944 595.657C642.097 595.968 658.895 595.191 658.895 595.191C658.895 595.191 670.625 577.326 680.451 579.656V593.195H683.459V579.439C684.855 578.521 686.049 577.329 686.969 575.937C687.89 574.544 688.518 572.979 688.815 571.337C689.073 569.644 688.884 567.913 688.268 566.316C687.652 564.718 686.63 563.308 685.302 562.226C684.705 561.687 684.227 561.03 683.896 560.298C683.566 559.565 683.391 558.772 683.382 557.969L683.273 558.062C683.273 557.79 683.203 557.511 683.172 557.223C682.309 550.232 681.228 535.808 685.045 525.135C690.277 510.501 691.863 490.119 688.054 477.986C686.825 474.108 685.815 470.163 685.03 466.172C684.936 465.667 684.851 465.185 684.773 464.735C687.377 465.087 689.955 465.606 692.492 466.288C701.315 468.719 720.617 469.17 737.096 469.038C737.135 469.488 737.182 469.962 737.236 470.436C737.53 473.73 738.145 476.987 739.071 480.161C741.139 486.375 742.087 513.771 742.087 513.771C742.087 513.771 744.753 536.297 743.3 545.463C742.522 550.559 741.745 555.678 741.302 560.82V560.921C741.302 560.921 736.933 573.349 733.738 580.099C733.661 580.27 733.575 580.441 733.497 580.604C732.646 580.681 731.807 580.867 731.002 581.155C731.002 581.155 726.719 589.7 722.451 591.113C718.184 592.527 719.598 597.18 729.261 595.471C738.923 593.762 753.514 592.364 753.514 592.364L754.144 583.649L757.113 579.936L756.336 588.628L759.5 588.006L759.08 577.435L763.938 571.36C763.938 571.36 769.807 566.14 761.085 555.872V556.097C760.992 555.949 760.907 555.794 760.805 555.646V555.6C759.36 553.363 758.209 549.192 760.316 541.789C764.125 528.413 766.34 516.273 766.34 516.273C766.34 516.273 774.844 483.75 764.622 468.362H765.073C764.026 466.197 763.285 463.896 762.873 461.527C762.821 461.247 762.775 460.96 762.733 460.664C770.297 460.229 777.721 458.862 783.776 455.911C783.753 455.88 780.107 378.701 777.091 366.413ZM681.065 312.583V312.739L679.511 312.816L681.065 312.583ZM675.733 313.321C675.477 313.378 675.238 313.492 675.033 313.655C674.365 314.6 673.945 315.698 673.813 316.848L671.387 316.304C671.387 316.304 669.685 315.939 667.236 315.527L666.078 314.362C669.265 314.098 672.577 313.709 675.733 313.321Z" fill="url(#paint1_linear_35_16)"/>
<path d="M755.978 577.543L755.053 588.55L758.155 587.929L757.688 575.99L755.978 577.543Z" fill="#1D2366"/>
<path d="M685.216 525.283C681.477 535.925 682.534 550.287 683.374 557.262C683.685 559.841 683.972 561.41 683.972 561.41C683.972 561.41 678.383 574.133 677.917 574.615C677.451 575.097 661.468 584.845 661.468 584.845L650.298 591.362C650.298 591.362 638.964 586.398 644.398 584.689C645.508 584.244 646.508 583.563 647.328 582.693C652.77 577.528 659.603 564.688 659.603 564.688C659.603 564.688 660.069 558.171 661.779 555.072C663.489 551.972 662.867 519.403 662.867 519.403L663 466.311V459.391L684.26 459.546C684.394 461.895 684.701 464.232 685.177 466.537C685.94 470.515 686.929 474.446 688.139 478.312C691.886 490.422 690.331 510.703 685.216 525.283Z" fill="#FFB0B1"/>
<path opacity="0.1" d="M683.972 561.41C683.972 561.41 678.383 574.133 677.917 574.615C677.451 575.096 661.468 584.845 661.468 584.845L650.298 591.362C650.298 591.362 638.964 586.398 644.398 584.689C645.508 584.244 646.508 583.563 647.328 582.693L647.81 586.088L651.534 585.932L683.405 557.278C683.685 559.841 683.972 561.41 683.972 561.41Z" fill="black"/>
<path d="M683.584 558L651.534 586.849L647.81 587.004L647.033 581.567C647.033 581.567 640.519 589.94 626.045 589.474C626.045 589.474 617.354 595.215 630.234 595.525C643.115 595.836 659.564 595.059 659.564 595.059C659.564 595.059 671.053 577.194 680.669 579.524V593.016H683.623V579.4C684.996 578.476 686.168 577.284 687.069 575.896C687.969 574.507 688.579 572.951 688.862 571.321C689.118 569.642 688.937 567.926 688.336 566.337C687.736 564.748 686.736 563.34 685.434 562.249C684.852 561.704 684.388 561.046 684.07 560.315C683.752 559.585 683.586 558.797 683.584 558Z" fill="#1D2366"/>
<path d="M758.932 541.875C756.864 549.254 757.992 553.409 759.406 555.639V555.685C761.221 558.438 762.483 561.517 763.122 564.75L763.246 565.449L748.663 586.694L740.75 589.801C740.75 589.801 728.025 585.459 730.349 584.216C730.932 583.913 731.842 582.297 732.883 580.068C735.993 573.349 740.284 560.952 740.284 560.952V560.851C740.734 555.732 741.45 550.629 742.242 545.549C743.665 536.406 741.053 513.966 741.053 513.966C741.053 513.966 740.12 486.678 738.099 480.472C737.187 477.316 736.58 474.08 736.288 470.809C735.868 466.925 735.775 463.725 735.775 463.725C735.775 463.725 744.155 452.074 759.515 464.657C760.743 465.661 761.824 466.832 762.726 468.137C773.336 483.222 764.793 516.451 764.793 516.451C764.793 516.451 762.656 528.538 758.932 541.875Z" fill="#FFB0B1"/>
<path opacity="0.1" d="M763.27 565.449L748.687 586.694L740.773 589.801C740.773 589.801 728.048 585.458 730.372 584.216C730.955 583.913 731.865 582.297 732.907 580.068C738.294 580.021 741.084 585.148 741.084 585.148L747.909 584.06C747.909 584.06 756.911 566.381 758.932 565.302C760.953 564.222 759.243 557.231 759.243 557.231V555.452C759.298 555.514 759.344 555.584 759.406 555.646V555.693C761.221 558.446 762.483 561.524 763.122 564.758L763.27 565.449Z" fill="black"/>
<path d="M741.551 585.606C741.551 585.606 737.664 578.475 730.217 581.109C730.217 581.109 726.027 589.653 721.837 591.036C717.647 592.418 719.046 597.079 728.514 595.378C737.983 593.677 752.255 592.271 752.255 592.271L752.877 583.579L762.5 571.329C762.5 571.329 768.237 566.133 759.702 555.903V557.682C759.702 557.682 761.412 564.672 759.391 565.752C757.37 566.832 748.399 584.519 748.399 584.519L741.551 585.606Z" fill="#1D2366"/>
<path opacity="0.1" d="M684.283 459.53C684.417 461.88 684.724 464.216 685.201 466.521C676.448 465.24 668.324 465.876 663 466.296V459.375L684.283 459.53Z" fill="black"/>
<path opacity="0.1" d="M763.588 470.071C763.588 470.071 751.151 470.677 736.319 470.801C735.899 466.917 735.806 463.717 735.806 463.717C735.806 463.717 744.186 452.066 759.546 464.649C760.774 465.653 761.855 466.824 762.757 468.129C762.997 468.791 763.275 469.44 763.588 470.071Z" fill="black"/>
<path d="M763.588 468.673C763.588 468.673 709.112 471.306 692.508 466.653C675.904 462 659.447 466.032 656.967 464.952C654.488 463.872 656.501 446.962 658.678 442.776C660.854 438.589 672.794 396.248 672.794 396.248L684.283 336.391L696.387 333.059L697.242 332.818L718.331 327.008L733.785 322.743C733.785 322.743 764.513 442.62 761.878 451.46C760.921 454.845 760.767 458.406 761.427 461.861C761.83 464.22 762.557 466.512 763.588 468.673Z" fill="#1D2366"/>
<path d="M644.235 295.456C644.235 295.456 633.352 307.107 641.592 313.601C649.831 320.094 655.25 314.222 655.25 314.222L644.235 295.456Z" fill="#C7DAF5"/>
<path opacity="0.1" d="M644.235 295.456C644.235 295.456 633.352 307.107 641.592 313.601C649.831 320.094 655.25 314.222 655.25 314.222L644.235 295.456Z" fill="black"/>
<path d="M732.16 218.852C732.16 218.852 730.885 220.063 728.965 221.85C726.229 224.406 722.179 228.142 718.588 231.272C713.613 235.599 709.508 238.776 710.977 236.065C712.446 233.354 712.167 228.631 711.436 224.211C711.382 223.916 711.335 223.621 711.28 223.334C710.675 220.088 709.873 216.882 708.878 213.733C708.878 213.733 716.916 203.355 721.363 199.262C723.018 197.708 724.177 197.071 724.247 198.151C724.324 199.604 725.413 202.812 726.765 206.214C726.804 206.323 726.843 206.424 726.89 206.532C727.791 208.863 728.81 211.255 729.704 213.321C731.072 216.49 732.16 218.852 732.16 218.852Z" fill="#FFB0B1"/>
<path opacity="0.1" d="M726.89 206.532C726.134 210.592 724.302 214.374 721.583 217.484C718.865 220.594 715.36 222.917 711.436 224.211C710.818 220.666 709.963 217.165 708.878 213.733C708.878 213.733 724.013 194.197 724.247 198.151C724.301 199.65 725.483 202.975 726.89 206.532Z" fill="black"/>
<path opacity="0.1" d="M709.928 229.431L711.887 226.674C711.887 226.674 713.185 234.581 717.958 231.093C722.731 227.606 722.964 257.34 722.964 257.34L717.841 333.874L680.824 331.66L681.874 294.679L686.064 276.037L696.426 248.936L702.59 239.98L709.928 229.431Z" fill="black"/>
<path d="M722.964 257.814L718.3 327.015L717.811 334.348L697.172 333.113L696.395 333.066L680.848 332.134L681.897 295.145L686.087 276.503L696.449 249.402L702.613 240.446L709.952 229.858L711.91 227.109C711.91 227.109 713.209 235.016 717.982 231.528L718.083 231.459C722.747 228.507 722.964 257.814 722.964 257.814Z" fill="#1D2366"/>
<path d="M686.608 270.025C686.608 270.025 684.75 273.908 681.018 273.279C677.287 272.65 677.295 287.261 677.295 287.261C677.295 287.261 674.815 289.591 673.105 287.572C671.395 285.552 666.886 292.38 666.886 292.38L638.637 293.623C638.637 293.623 651.207 299.363 648.743 316.731C648.743 316.731 691.419 314.09 692.819 310.059C694.218 306.027 686.608 270.025 686.608 270.025Z" fill="white"/>
<path opacity="0.03" d="M686.608 270.025C686.608 270.025 684.75 273.908 681.018 273.279C677.287 272.65 677.295 287.261 677.295 287.261C677.295 287.261 674.815 289.591 673.105 287.572C671.395 285.552 666.886 292.38 666.886 292.38L638.637 293.623C638.637 293.623 651.207 299.363 648.743 316.731C648.743 316.731 691.419 314.09 692.819 310.059C694.218 306.027 686.608 270.025 686.608 270.025Z" fill="black"/>
<path d="M604.512 302.749L611.959 309.103L673.261 321.974L665.658 314.222L604.512 302.749Z" fill="white"/>
<path d="M710.045 231.878C709.026 233.431 706.111 241.385 703.678 248.33C701.649 254.117 699.955 259.204 699.955 259.204C699.955 259.204 695.998 284.946 693.977 289.599C691.956 294.252 693.052 312.397 693.052 312.397L685.519 357.208C685.519 357.208 682.107 380.317 676.836 394.12C671.636 407.705 665.845 414.074 665.666 414.276C667.998 411.123 680.708 349.029 680.708 349.029L684.905 270.716C684.905 270.716 685.519 263.275 686.141 256.913C686.763 250.551 699.356 241.867 699.356 241.867L711.498 224.615C712.719 226.246 711.903 229.089 710.045 231.878Z" fill="white"/>
<path d="M678.383 332.523C678.383 332.523 660.504 331.746 651.845 321.353C643.185 310.96 671.861 317.205 671.861 317.205L679.316 318.914L678.383 332.523Z" fill="#FFB0B1"/>
<path opacity="0.1" d="M761.878 451.468C760.921 454.852 760.767 458.414 761.427 461.868C741.924 463.251 721.06 457.985 721.06 457.985C717.173 461.558 706.935 466.824 706.935 466.824L701.354 397.693C697.786 388.371 696.387 339.537 696.387 339.537C696.387 339.537 696.705 336.981 697.164 333.152C697.164 333.059 697.164 332.958 697.203 332.864C698.594 322.168 701.354 302.089 702.707 299.378C704.572 295.65 696.97 285.731 696.97 285.731L700.429 256.253L700.849 252.695C708.14 249.44 713.729 239.047 713.729 239.047L718.02 231.536C722.684 228.546 722.925 257.853 722.925 257.853L718.261 327.054L733.715 322.79C733.715 322.79 764.513 442.628 761.878 451.468Z" fill="black"/>
<path d="M781.895 456.245C760.634 466.793 721.992 457.021 721.992 457.021C718.106 460.595 707.868 465.861 707.868 465.861L702.279 396.729C698.719 387.408 697.319 338.574 697.319 338.574C697.319 338.574 701.812 302.136 703.678 298.415C704.222 297.328 703.958 295.712 703.313 293.972C700.141 285.69 698.974 276.777 699.908 267.958L701.4 255.289L701.812 251.74C709.112 248.477 714.701 238.084 714.701 238.084L718.588 231.28L725.739 218.743L729.128 212.809L729.704 213.329L734.096 217.306C734.096 217.306 735.961 218.859 738.76 221.19C744.846 226.316 755.364 235.342 760.79 240.865C765.563 245.728 767.071 264.642 767.506 278.88C767.794 288.255 767.623 295.603 767.623 295.603C762.811 303.518 775.396 367.065 775.396 367.065C778.327 379.346 781.895 456.245 781.895 456.245Z" fill="white"/>
<path opacity="0.03" d="M741.084 237.929C741.084 237.929 726.493 265.682 728.188 276.231C729.883 286.779 734.702 298.718 732.378 301.507C731.579 302.563 730.547 303.421 729.362 304.012C728.176 304.604 726.87 304.913 725.545 304.917C723.213 305.072 716.994 309.414 716.994 309.88C716.994 310.346 711.25 310.346 706.111 312.521C700.973 314.696 693.386 315.931 693.386 315.931C693.386 315.931 678.617 315.465 677.241 316.863C675.865 318.261 674.45 326.627 677.396 333.299C680.342 339.972 683.615 344.951 686.087 345.86C688.559 346.768 704.246 341.517 716.971 340.275C729.696 339.032 743.51 328.957 743.51 328.957C743.51 328.957 758.722 323.52 761.389 314.377C764.055 305.235 758.131 254.987 758.131 254.987C758.131 254.987 753.654 231.567 741.084 237.929Z" fill="black"/>
<path opacity="0.03" d="M739.218 235.599C739.218 235.599 724.628 263.36 726.338 273.901C728.048 284.441 732.852 296.388 730.52 299.184C729.724 300.242 728.694 301.1 727.509 301.692C726.325 302.284 725.019 302.593 723.695 302.594C721.363 302.749 715.144 307.091 715.144 307.558C715.144 308.024 709.399 308.024 704.261 310.191C699.123 312.358 691.536 313.601 691.536 313.601C691.536 313.601 676.766 313.135 675.398 314.533C674.03 315.931 672.6 324.304 675.554 330.969C678.508 337.634 681.772 342.62 684.244 343.529C686.716 344.438 702.403 339.187 715.128 337.952C727.854 336.717 741.667 326.627 741.667 326.627C741.667 326.627 756.872 321.19 759.507 312.055C762.142 302.92 756.25 252.656 756.25 252.656C756.25 252.656 751.788 229.245 739.218 235.599Z" fill="black"/>
<path d="M740.626 236.531C740.626 236.531 726.035 264.292 727.745 274.833C729.455 285.373 734.259 297.32 731.935 300.108C731.139 301.169 730.108 302.029 728.922 302.622C727.736 303.216 726.428 303.525 725.102 303.526C722.77 303.682 716.551 308.024 716.551 308.482C716.551 308.94 710.814 308.948 705.668 311.123C700.522 313.298 692.943 314.533 692.943 314.533C692.943 314.533 678.173 314.067 676.798 315.465C675.422 316.863 674.007 325.237 676.953 331.901C679.899 338.566 683.172 343.553 685.644 344.461C688.116 345.37 703.803 340.119 716.528 338.876C729.253 337.634 743.066 327.559 743.066 327.559C743.066 327.559 758.279 322.122 760.945 312.979C763.612 303.837 757.727 253.588 757.727 253.588C757.727 253.588 753.187 230.208 740.626 236.531Z" fill="white"/>
<path opacity="0.1" d="M740.307 310.991C740.307 310.991 728.646 308.661 732.704 312.544C736.762 316.428 736.739 319.83 741.706 319.675C746.673 319.52 740.307 310.991 740.307 310.991Z" fill="black"/>
<path opacity="0.1" d="M760.013 394.555C760.013 394.555 754.742 398.12 764.824 406.338C774.907 414.556 760.013 394.555 760.013 394.555Z" fill="black"/>
<path opacity="0.1" d="M749.954 423.862C749.954 424.328 748.088 440.95 755.069 445.106C762.049 449.262 749.954 423.862 749.954 423.862Z" fill="black"/>
<path d="M639.119 293.584C633.491 293.778 621.334 295.495 627.638 307.247C633.212 317.648 642.579 310.696 647.849 305.421C646.563 300.504 643.439 296.267 639.119 293.584Z" fill="#FFB0B1"/>
<path d="M647.919 305.328L648.152 305.087L647.919 305.328Z" fill="#FFB0B1"/>
<path opacity="0.1" d="M738.76 221.664C732.79 225.742 727.784 229.183 726.804 229.897C724.13 231.878 719.031 243.506 715.743 249.44C713.123 254.218 704.611 255.445 701.401 255.748L701.813 252.198C709.112 248.936 714.701 238.543 714.701 238.543L729.129 213.267L734.096 217.78C734.096 217.78 735.962 219.333 738.76 221.664Z" fill="black"/>
<path d="M738.76 221.198C732.79 225.276 727.784 228.717 726.804 229.439C724.13 231.412 719.031 243.04 715.743 248.974C713.123 253.751 704.611 254.979 701.401 255.282L701.813 251.732C709.112 248.47 714.701 238.076 714.701 238.076L729.129 212.801L734.096 217.298C734.096 217.298 735.962 218.836 738.76 221.198Z" fill="#DCE7FF"/>
<path d="M727.271 201.406C727.274 206.069 725.859 210.622 723.213 214.463C720.088 219.004 715.438 222.276 710.105 223.684C704.773 225.092 699.112 224.543 694.15 222.138C689.188 219.732 685.253 215.628 683.06 210.572C680.867 205.515 680.56 199.841 682.196 194.577C683.831 189.314 687.301 184.811 691.975 181.886C696.649 178.96 702.217 177.805 707.67 178.631C713.123 179.457 718.099 182.209 721.696 186.388C725.292 190.566 727.27 195.895 727.271 201.406Z" fill="#FFB0B1"/>
<path opacity="0.1" d="M767.506 278.887C764.349 276.947 761.778 274.187 760.067 270.902C758.769 268.339 757.906 265.38 755.69 263.562C753.693 261.931 751.026 261.535 748.539 260.804C740.361 258.389 733.505 250.932 733.248 242.419C733.124 238.411 734.375 234.41 733.808 230.441C733.485 228.195 732.591 226.068 731.212 224.266C730.527 223.404 729.775 222.596 728.965 221.85C727.877 220.825 726.734 219.83 725.739 218.743C725.112 218.07 724.565 217.327 724.107 216.529C723.737 215.876 723.437 215.186 723.213 214.471C721.658 209.717 723.073 204.078 721.363 199.27L721.269 199.006C720.624 197.297 719.31 195.588 717.484 195.456C715.657 195.324 714.094 196.838 712.353 197.514C708.707 198.928 704.774 196.52 701.735 194.065C698.695 191.611 695.267 188.807 691.404 189.35C688.846 189.716 686.825 191.455 684.47 192.356C683.938 192.562 683.389 192.721 682.83 192.83C684.823 187.863 688.485 183.744 693.187 181.182C697.889 178.62 703.338 177.774 708.596 178.79C713.855 179.805 718.595 182.619 722.003 186.748C725.411 190.876 727.273 196.062 727.271 201.413C727.273 203.03 727.104 204.641 726.765 206.222C726.804 206.33 726.843 206.431 726.89 206.54C727.791 208.87 728.81 211.263 729.704 213.329L734.096 217.306C734.096 217.306 735.961 218.86 738.76 221.19C744.846 226.316 755.364 235.342 760.79 240.865C765.563 245.743 767.055 264.649 767.506 278.887Z" fill="black"/>
<path d="M684.198 178.165C685.309 175.905 685.861 173.373 687.19 171.229C689.142 168.122 692.546 166.133 696.044 164.929C705.178 161.783 724.48 157.216 730.248 164.929C731.383 166.483 732.323 168.207 733.894 169.279C735.091 170.095 736.536 170.444 737.85 171.058C741.527 172.782 743.875 176.542 745.126 180.379C746.378 184.216 746.751 188.333 747.668 192.287C748.842 197.359 750.902 202.167 752.954 206.944C755.372 212.583 757.937 218.432 762.601 222.417C768.967 227.854 770.374 235.552 776.282 241.518C783.278 248.602 783.053 260.292 779.446 269.574C778.972 270.794 778.436 272.067 778.622 273.365C778.809 274.662 779.773 275.843 780.682 276.876L784.507 281.187C775.458 283.369 765.221 278.647 761.007 270.359C759.709 267.795 758.846 264.844 756.623 263.018C754.633 261.387 751.959 260.999 749.479 260.269C741.302 257.845 734.445 250.38 734.189 241.867C734.064 237.867 735.316 233.866 734.749 229.905C734.433 227.644 733.536 225.502 732.144 223.691C730.007 220.902 726.781 219.03 725.04 215.923C722.093 210.727 724.332 203.977 722.21 198.4C721.557 196.691 720.251 194.982 718.424 194.85C716.598 194.718 715.035 196.233 713.286 196.908C709.648 198.322 705.715 195.922 702.675 193.46C699.636 190.997 696.208 188.201 692.337 188.752C689.779 189.11 687.766 190.85 685.41 191.758C683.669 192.426 680.14 193.025 678.616 191.556C675.398 188.597 682.853 180.93 684.198 178.165Z" fill="#591D4B"/>
<path opacity="0.1" d="M763.169 267.795C761.863 265.232 761.007 262.28 758.784 260.463C756.794 258.831 754.12 258.435 751.633 257.705C743.463 255.289 736.607 247.825 736.342 239.312C736.218 235.311 737.469 231.303 736.91 227.342C736.584 225.095 735.688 222.969 734.306 221.166C732.16 218.378 728.934 216.506 727.201 213.399C724.254 208.21 726.493 201.46 724.363 195.875C723.718 194.174 722.404 192.465 720.585 192.325C718.766 192.186 717.188 193.716 715.447 194.392C711.809 195.805 707.868 193.397 704.836 190.943C701.805 188.488 698.361 185.684 694.498 186.228C691.94 186.593 689.919 188.333 687.571 189.234C685.83 189.902 682.293 190.508 680.77 189.04C677.567 185.933 685.022 178.282 686.359 175.532C687.47 173.264 688.022 170.739 689.359 168.595C689.429 168.479 689.507 168.362 689.585 168.246C688.585 169.074 687.722 170.054 687.027 171.151C685.698 173.295 685.146 175.812 684.035 178.087C682.69 180.837 675.235 188.512 678.445 191.595C680 193.071 683.498 192.465 685.239 191.797C687.571 190.888 689.608 189.148 692.166 188.791C696.052 188.24 699.473 191.044 702.504 193.498C705.536 195.953 709.5 198.361 713.123 196.947C714.864 196.271 716.388 194.749 718.253 194.889C720.119 195.029 721.363 196.73 722.039 198.439C724.161 204.016 721.922 210.766 724.869 215.962C726.61 219.015 729.836 220.926 731.974 223.73C733.365 225.541 734.262 227.682 734.578 229.944C735.145 233.905 733.894 237.906 734.018 241.906C734.275 250.45 741.131 257.884 749.308 260.307C751.773 261.037 754.462 261.426 756.452 263.057C758.683 264.882 759.562 267.834 760.836 270.397C765.05 278.685 775.287 283.408 784.336 281.225L782.532 279.19C774.689 279.307 766.752 274.848 763.169 267.795Z" fill="black"/>
<path opacity="0.1" d="M709.578 232.344C708.56 233.898 705.645 241.852 703.212 248.796C700.934 247.91 698.866 242.263 698.866 242.263L711.009 225.004C712.252 226.713 711.436 229.548 709.578 232.344Z" fill="black"/>
<path d="M710.045 231.878C709.026 233.431 706.111 241.385 703.678 248.33C701.4 247.452 699.333 241.797 699.333 241.797L711.475 224.545C712.719 226.246 711.902 229.089 710.045 231.878Z" fill="#DCE7FF"/>
<path d="M639.446 311.232L632.714 290.018C632.635 289.77 632.605 289.508 632.627 289.248C632.648 288.989 632.721 288.735 632.841 288.504C632.961 288.272 633.126 288.066 633.325 287.898C633.525 287.73 633.756 287.604 634.005 287.525C634.506 287.369 635.048 287.416 635.514 287.658C635.98 287.899 636.331 288.315 636.492 288.814L643.224 310.004L642.556 314.44L639.446 311.232Z" fill="#BE8B87"/>
<path opacity="0.1" d="M633.351 288.154C633.853 287.996 634.398 288.042 634.866 288.284C635.333 288.525 635.686 288.943 635.847 289.444L642.579 310.634L642.073 313.958L642.563 314.471L643.232 310.035L636.461 288.845C636.3 288.346 635.949 287.931 635.483 287.689C635.017 287.448 634.474 287.4 633.973 287.556C633.552 287.693 633.188 287.966 632.939 288.333C633.072 288.262 633.209 288.202 633.351 288.154Z" fill="white"/>
<path d="M639.446 311.232L643.224 310.035L642.672 313.671L642.555 314.471L641.451 313.321L639.446 311.232Z" fill="#EFC8C4"/>
<path d="M641.452 313.321C641.517 313.238 641.599 313.169 641.693 313.119C641.747 313.085 641.811 313.066 641.875 313.066C641.94 313.066 642.003 313.085 642.058 313.119C642.111 313.183 642.155 313.254 642.19 313.329C642.242 313.415 642.312 313.488 642.395 313.543C642.478 313.598 642.573 313.634 642.672 313.647L642.556 314.424L641.452 313.321Z" fill="#727A9C"/>
<path d="M632.675 297.553C632.675 297.553 646.178 297.475 642.998 303.215C639.819 308.956 634.852 309.647 634.852 309.647L632.675 297.553Z" fill="#FFB0B1"/>
<path d="M548.699 39.9409H548.116C524.919 39.9409 504.405 52.2059 492.605 70.3044C480.805 52.2059 460.291 39.9409 437.095 39.9409H436.512C419.104 40.1067 402.465 47.1306 390.21 59.4863C377.956 71.842 371.076 88.531 371.067 105.927C371.067 127.528 380.535 158.179 398.997 183.4C434.172 231.458 492.605 273.504 492.605 273.504C492.605 273.504 551.038 231.466 586.206 183.4C604.675 158.179 614.136 127.528 614.136 105.927C614.126 88.5323 607.248 71.8445 594.995 59.489C582.742 47.1335 566.105 40.1087 548.699 39.9409ZM540.358 187.098C537.716 187.088 535.139 186.28 532.965 184.78C530.791 183.28 529.122 181.158 528.177 178.693H514.309C513.395 178.688 512.507 178.397 511.767 177.862C511.027 177.328 510.472 176.575 510.181 175.711L505.921 162.886L492.442 209.95C492.179 210.856 491.63 211.652 490.876 212.22C490.122 212.787 489.204 213.094 488.26 213.096H487.988C487.003 213.048 486.064 212.665 485.328 212.009C484.593 211.353 484.105 210.464 483.945 209.492L470.054 126.006L459.902 175.408C459.669 176.346 459.129 177.18 458.366 177.775C457.604 178.371 456.664 178.694 455.697 178.693H436.162C435.576 178.718 434.992 178.624 434.443 178.417C433.895 178.21 433.394 177.895 432.971 177.49C432.548 177.084 432.211 176.598 431.981 176.059C431.751 175.52 431.633 174.941 431.633 174.355C431.633 173.769 431.751 173.19 431.981 172.651C432.211 172.112 432.548 171.626 432.971 171.221C433.394 170.815 433.895 170.5 434.443 170.293C434.992 170.086 435.576 169.992 436.162 170.017H452.276L466.657 103.596C466.893 102.614 467.463 101.745 468.27 101.136C469.077 100.528 470.07 100.218 471.08 100.26C472.09 100.302 473.053 100.694 473.806 101.368C474.559 102.041 475.055 102.955 475.208 103.954L489.395 189.117L501.475 147.009C501.726 146.122 502.258 145.341 502.991 144.781C503.723 144.221 504.618 143.913 505.54 143.902H505.626C506.539 143.903 507.429 144.191 508.169 144.727C508.909 145.262 509.461 146.018 509.746 146.885L517.449 170.04H528.006C528.756 167.762 530.122 165.735 531.953 164.183C533.783 162.631 536.007 161.615 538.38 161.246C540.752 160.878 543.18 161.172 545.395 162.095C547.611 163.018 549.528 164.535 550.935 166.478C552.343 168.422 553.185 170.716 553.37 173.107C553.555 175.499 553.075 177.895 551.984 180.032C550.892 182.168 549.23 183.961 547.183 185.214C545.135 186.466 542.782 187.129 540.381 187.129L540.358 187.098Z" fill="#00A99D"/>
</g>
<defs>
<linearGradient id="paint0_linear_35_16" x1="276.992" y1="601.887" x2="276.992" y2="123.916" gradientUnits="userSpaceOnUse">
<stop stop-color="#808080" stop-opacity="0.25"/>
<stop offset="0.54" stop-color="#808080" stop-opacity="0.12"/>
<stop offset="1" stop-color="#808080" stop-opacity="0.1"/>
</linearGradient>
<linearGradient id="paint1_linear_35_16" x1="694.506" y1="595.844" x2="694.506" y2="159.305" gradientUnits="userSpaceOnUse">
<stop stop-color="#808080" stop-opacity="0.25"/>
<stop offset="0.54" stop-color="#808080" stop-opacity="0.12"/>
<stop offset="1" stop-color="#808080" stop-opacity="0.1"/>
</linearGradient>
<clipPath id="clip0_35_16">
<rect width="859" height="608" fill="white"/>
</clipPath>
</defs>
</svg>
