<svg width="303" height="212" viewBox="0 0 303 212" fill="none" xmlns="http://www.w3.org/2000/svg">
<g clip-path="url(#clip0_35_239)">
<path d="M60.3707 212C93.7126 212 120.741 209.936 120.741 207.389C120.741 204.843 93.7126 202.778 60.3707 202.778C27.0289 202.778 0 204.843 0 207.389C0 209.936 27.0289 212 60.3707 212Z" fill="#E6E6E6"/>
<path d="M46.1462 47.039C56.6526 42.5452 69.7384 45.3925 82.5181 47.3686C82.637 44.9755 84.0785 42.063 82.5685 40.3934C80.734 38.3651 80.9029 36.2339 82.0068 34.0904C84.8296 28.6091 80.7853 22.7768 76.7017 17.9272C75.7813 16.8366 74.6181 15.9797 73.3065 15.4261C71.9949 14.8725 70.572 14.6379 69.1533 14.7412L61.5888 15.2845C59.7481 15.4167 57.9914 16.1111 56.5538 17.2748C55.1162 18.4385 54.0663 20.0159 53.5446 21.796C51.7384 24.2664 50.7716 26.7299 51.3803 29.1806C48.6748 31.0399 48.2203 33.2843 49.436 35.8144C50.4669 37.4074 50.4559 38.9581 49.3891 40.4659C47.9881 42.3882 46.915 44.5316 46.2139 46.8083L46.1462 47.039Z" fill="#2F2E41"/>
<path d="M295.82 183.271H81.6881C79.7839 183.271 77.9576 182.51 76.6111 181.156C75.2646 179.802 74.5082 177.965 74.5082 176.05C152.131 166.978 228.295 166.978 303 176.05C303 177.965 302.244 179.802 300.897 181.156C299.551 182.51 297.724 183.271 295.82 183.271Z" fill="#2F2E41"/>
<path d="M303 176.475L74.5082 176.05L100.99 131.241L101.116 131.029V32.2752C101.116 31.0765 101.351 29.8896 101.807 28.7822C102.263 27.6747 102.932 26.6685 103.774 25.8209C104.617 24.9733 105.618 24.301 106.719 23.8423C107.82 23.3837 109.001 23.1477 110.193 23.1478H266.048C267.24 23.1477 268.421 23.3837 269.522 23.8423C270.623 24.301 271.624 24.9733 272.467 25.8209C273.309 26.6685 273.978 27.6747 274.434 28.7822C274.89 29.8896 275.125 31.0765 275.125 32.2752V131.709L303 176.475Z" fill="#3F3D56"/>
<path d="M109.986 29.5187C109.202 29.5196 108.45 29.8331 107.896 30.3905C107.342 30.9478 107.03 31.7035 107.029 32.4918V122.534C107.03 123.323 107.342 124.078 107.896 124.636C108.45 125.193 109.202 125.507 109.986 125.507H267.522C268.306 125.507 269.058 125.193 269.612 124.636C270.166 124.078 270.478 123.323 270.479 122.534V32.4918C270.478 31.7035 270.166 30.9479 269.612 30.3905C269.058 29.8331 268.306 29.5196 267.522 29.5187H109.986Z" fill="white"/>
<path d="M110.646 137.4C110.404 137.4 110.167 137.47 109.963 137.602C109.759 137.733 109.596 137.92 109.495 138.141L101.335 155.98C101.246 156.174 101.207 156.388 101.222 156.601C101.237 156.814 101.304 157.02 101.419 157.2C101.534 157.38 101.691 157.528 101.878 157.631C102.064 157.733 102.273 157.787 102.486 157.787H274.081C274.297 157.787 274.509 157.731 274.698 157.626C274.887 157.52 275.045 157.367 275.159 157.182C275.272 156.998 275.337 156.787 275.347 156.57C275.356 156.353 275.311 156.137 275.214 155.943L266.345 138.104C266.24 137.892 266.078 137.714 265.878 137.589C265.678 137.465 265.447 137.399 265.212 137.4H110.646Z" fill="#2F2E41"/>
<path d="M188.121 28.0321C189.17 28.0321 190.021 27.1764 190.021 26.1208C190.021 25.0652 189.17 24.2095 188.121 24.2095C187.071 24.2095 186.22 25.0652 186.22 26.1208C186.22 27.1764 187.071 28.0321 188.121 28.0321Z" fill="white"/>
<path d="M171.254 161.185C170.976 161.185 170.705 161.278 170.484 161.448C170.263 161.618 170.104 161.857 170.031 162.127L167.984 169.773C167.933 169.961 167.927 170.159 167.965 170.351C168.002 170.543 168.083 170.724 168.202 170.879C168.32 171.034 168.472 171.16 168.647 171.247C168.821 171.333 169.013 171.378 169.207 171.378H208.133C208.335 171.378 208.534 171.33 208.713 171.237C208.893 171.143 209.048 171.009 209.165 170.843C209.282 170.678 209.358 170.486 209.387 170.285C209.415 170.084 209.396 169.879 209.33 169.687L206.698 162.042C206.612 161.792 206.45 161.575 206.236 161.421C206.021 161.267 205.764 161.185 205.501 161.185H171.254Z" fill="#2F2E41"/>
<path d="M275.125 129.542V131.241H100.99L101.121 131.029V129.542H275.125Z" fill="#2F2E41"/>
<path d="M270.268 59.4621C286.596 59.4621 299.832 46.151 299.832 29.731C299.832 13.311 286.596 0 270.268 0C253.94 0 240.703 13.311 240.703 29.731C240.703 46.151 253.94 59.4621 270.268 59.4621Z" fill="#00A99D"/>
<path d="M282.516 42.6853H258.02C257.572 42.6848 257.142 42.5057 256.825 42.1872C256.509 41.8687 256.331 41.4368 256.33 40.9864V26.1208C256.331 25.6704 256.509 25.2386 256.826 24.9201C257.142 24.6016 257.572 24.4224 258.02 24.4219H282.516C282.964 24.4224 283.393 24.6016 283.71 24.9201C284.027 25.2386 284.205 25.6704 284.205 26.1208V40.9864C284.205 41.4368 284.027 41.8687 283.71 42.1872C283.393 42.5057 282.964 42.6848 282.516 42.6853ZM258.02 26.1209V40.9864H282.517L282.516 26.1208L258.02 26.1209Z" fill="white"/>
<path d="M277.87 26.1208H262.666V19.3252C262.666 14.403 265.863 10.8306 270.268 10.8306C274.673 10.8306 277.87 14.403 277.87 19.3252L277.87 26.1208ZM264.355 24.4219H276.181V19.3252C276.181 15.324 273.749 12.5295 270.268 12.5295C266.786 12.5295 264.355 15.324 264.355 19.3252L264.355 24.4219Z" fill="white"/>
<path d="M270.268 34.8278C271.201 34.8278 271.957 34.0671 271.957 33.1288C271.957 32.1906 271.201 31.4299 270.268 31.4299C269.335 31.4299 268.578 32.1906 268.578 33.1288C268.578 34.0671 269.335 34.8278 270.268 34.8278Z" fill="white"/>
<path d="M249.629 94.9659H127.879C127.281 94.9652 126.708 94.7261 126.286 94.3011C125.863 93.876 125.625 93.2997 125.624 92.6986V62.3275C125.625 61.7264 125.863 61.1501 126.286 60.725C126.708 60.3 127.281 60.0609 127.879 60.0602H249.629C250.227 60.0609 250.8 60.3 251.223 60.725C251.645 61.1501 251.883 61.7264 251.884 62.3275V92.6986C251.883 93.2997 251.645 93.876 251.223 94.3011C250.8 94.7261 250.227 94.9652 249.629 94.9659ZM127.879 60.9671C127.52 60.9675 127.176 61.111 126.923 61.366C126.669 61.6211 126.527 61.9668 126.526 62.3275V92.6986C126.527 93.0593 126.669 93.4051 126.923 93.6601C127.176 93.9152 127.52 94.0586 127.879 94.059H249.629C249.988 94.0586 250.332 93.9152 250.585 93.6601C250.839 93.4051 250.982 93.0593 250.982 92.6986V62.3275C250.982 61.9668 250.839 61.621 250.585 61.366C250.332 61.111 249.988 60.9675 249.629 60.9671L127.879 60.9671Z" fill="#E6E6E6"/>
<path d="M146.796 85.5836C151.869 85.5836 155.981 81.4485 155.981 76.3477C155.981 71.2469 151.869 67.1118 146.796 67.1118C141.724 67.1118 137.612 71.2469 137.612 76.3477C137.612 81.4485 141.724 85.5836 146.796 85.5836Z" fill="#E6E6E6"/>
<path d="M168.008 70.1904C167.806 70.1901 167.607 70.2297 167.421 70.3069C167.235 70.3841 167.066 70.4975 166.924 70.6404C166.781 70.7834 166.668 70.9532 166.591 71.1401C166.514 71.327 166.474 71.5274 166.474 71.7297C166.474 71.9321 166.514 72.1325 166.591 72.3194C166.668 72.5063 166.781 72.6761 166.924 72.8191C167.066 72.962 167.235 73.0754 167.421 73.1526C167.607 73.2298 167.806 73.2694 168.008 73.2691H240.169C240.575 73.2691 240.964 73.1069 241.251 72.8182C241.538 72.5295 241.7 72.138 241.7 71.7297C241.7 71.3215 241.538 70.93 241.251 70.6413C240.964 70.3526 240.575 70.1904 240.169 70.1904H168.008Z" fill="#E6E6E6"/>
<path d="M168.008 79.4263C167.602 79.4263 167.212 79.5885 166.925 79.8772C166.638 80.1659 166.477 80.5574 166.477 80.9656C166.477 81.3739 166.638 81.7654 166.925 82.0541C167.212 82.3428 167.602 82.505 168.008 82.505H199.059C199.465 82.505 199.854 82.3428 200.141 82.0541C200.428 81.7654 200.59 81.3739 200.59 80.9656C200.59 80.5574 200.428 80.1659 200.141 79.8772C199.854 79.5885 199.465 79.4263 199.059 79.4263H168.008Z" fill="#E6E6E6"/>
<path d="M100.69 80.049L78.1836 92.0819L77.8987 82.0545C85.2446 80.8213 92.2336 78.6741 98.6958 75.1786L101.05 69.3303C101.306 68.6931 101.723 68.1339 102.259 67.7076C102.796 67.2813 103.433 67.0025 104.109 66.8988C104.785 66.795 105.476 66.8697 106.114 67.1156C106.752 67.3615 107.316 67.7702 107.75 68.3014C108.385 69.0786 108.702 70.0695 108.638 71.0733C108.574 72.077 108.132 73.0186 107.403 73.7073L100.69 80.049Z" fill="#FFB8B8"/>
<path d="M45.6976 149.522C45.5334 148.917 45.4986 148.283 45.5953 147.663C45.6921 147.043 45.9183 146.45 46.259 145.925L51.2031 138.294C52.3724 136.49 54.1667 135.186 56.2379 134.637C58.309 134.087 60.5093 134.331 62.4118 135.321C60.3339 138.877 60.6236 141.997 63.1294 144.709C59.2394 146.619 55.6443 149.083 52.4552 152.027C51.873 152.426 51.2044 152.68 50.5051 152.766C49.8057 152.853 49.0959 152.77 48.4348 152.525C47.7737 152.28 47.1803 151.88 46.7042 151.357C46.2281 150.835 45.883 150.206 45.6976 149.522Z" fill="#2F2E41"/>
<path d="M101.715 139.546C100.967 140.8 99.9109 141.839 98.6482 142.564C97.3856 143.29 95.9587 143.676 94.5046 143.687L61.6598 143.938L60.2354 135.629L74.7648 131.332L62.5145 121.877L75.9044 106.12L100.225 128.915C101.646 130.248 102.57 132.03 102.841 133.965C103.112 135.9 102.715 137.87 101.715 139.546Z" fill="#2F2E41"/>
<path d="M56.5317 196.366H48.8397C41.9333 148.759 34.9033 101.019 55.6771 83.2005L80.1778 87.2115L77.044 108.126L63.3692 123.883L56.5317 196.366Z" fill="#2F2E41"/>
<path d="M63.2934 207.151C62.6912 207.316 62.0611 207.351 61.4445 207.254C60.8279 207.157 60.2387 206.929 59.7158 206.587L51.3638 205.458C49.5691 204.282 48.2727 202.477 47.7262 200.395C47.1796 198.312 47.4219 196.099 48.406 194.186C51.943 196.275 55.0457 195.984 57.7419 193.464C59.647 197.332 62.7859 197.096 65.7836 200.355C66.1806 200.941 66.4326 201.613 66.5189 202.316C66.6051 203.019 66.523 203.733 66.2793 204.398C66.0357 205.063 65.6376 205.66 65.1182 206.139C64.5988 206.617 63.9732 206.964 63.2934 207.151Z" fill="#2F2E41"/>
<path d="M74.7649 51.3994L60.5203 47.9615C62.8861 43.0916 63.0809 37.6728 61.9447 31.9177L71.631 31.6312C71.9345 38.7879 72.8528 45.4741 74.7649 51.3994Z" fill="#FFB8B8"/>
<path d="M78.6797 95.8376C68.3102 102.944 60.9834 96.0808 55.3922 85.4924C56.1691 79.0134 54.9111 71.2598 52.5812 62.8349C51.545 59.119 51.9319 55.1474 53.6654 51.7043C55.3989 48.2611 58.3531 45.5967 61.9447 44.237L74.195 49.3939C84.597 57.9205 86.6444 67.1564 82.7418 76.8976L78.6797 95.8376Z" fill="#00A99D"/>
<path d="M48.8397 58.5618L37.444 64.5782L57.6713 76.6111L60.4858 83.5926C60.6737 84.0586 60.7652 84.5582 60.7548 85.0609C60.7444 85.5636 60.6323 86.0589 60.4253 86.5166C60.2183 86.9743 59.9208 87.3849 59.5509 87.7232C59.181 88.0615 58.7465 88.3205 58.2738 88.4844C57.7365 88.6707 57.1636 88.7294 56.5999 88.6559C56.0363 88.5824 55.4972 88.3787 55.0249 88.0607C54.5526 87.7427 54.1599 87.3191 53.8776 86.823C53.5953 86.3269 53.4311 85.7718 53.3977 85.2013L53.1131 80.3355L27.4044 71.8039C26.5382 71.5164 25.7484 71.0345 25.0948 70.3947C24.4413 69.7548 23.941 68.9738 23.6321 68.1107C23.1817 66.8527 23.1588 65.48 23.5669 64.2075C23.975 62.935 24.7911 61.8344 25.8874 61.0781L46.5605 46.8155L48.8397 58.5618Z" fill="#FFB8B8"/>
<path d="M60.2354 59.7078C55.4826 57.6132 51.1609 59.8885 45.7059 61.7133L44.8512 46.529C50.2678 43.6257 55.4322 42.843 60.2354 45.0965L60.2354 59.7078Z" fill="#00A99D"/>
<path d="M65.9207 39.1525C70.9435 39.1525 75.0153 35.0577 75.0153 30.0066C75.0153 24.9555 70.9435 20.8608 65.9207 20.8608C60.8979 20.8608 56.826 24.9555 56.826 30.0066C56.826 35.0577 60.8979 39.1525 65.9207 39.1525Z" fill="#FFB8B8"/>
<path d="M76.8008 28.8527C67.7963 29.7396 60.9349 28.2586 56.5498 24.0419V20.6461H76.0366L76.8008 28.8527Z" fill="#2F2E41"/>
</g>
<defs>
<clipPath id="clip0_35_239">
<rect width="303" height="212" fill="white"/>
</clipPath>
</defs>
</svg>
