<svg width="262" height="212" viewBox="0 0 262 212" fill="none" xmlns="http://www.w3.org/2000/svg">
<g clip-path="url(#clip0_35_384)">
<path d="M172.396 118.695C166.869 122.017 157.021 126.179 146.959 121.901L140.454 119.136L153.489 104.493C143.087 93.0002 137.332 78.035 137.348 62.5189C137.364 47.0029 143.149 32.0495 153.575 20.5777C164 9.1058 178.318 1.93881 193.732 0.475622C209.147 -0.987569 224.552 3.35805 236.942 12.6643C249.332 21.9705 257.816 35.5693 260.738 50.8065C263.661 66.0436 260.813 81.8254 252.75 95.0714C244.686 108.317 231.986 118.077 217.129 122.445C202.271 126.813 186.323 125.476 172.396 118.695V118.695ZM147.42 62.484C147.391 69.6365 148.84 76.7177 151.675 83.2821C154.509 89.8464 158.669 95.752 163.892 100.627L167.487 104.013L159.285 113.227C163.557 112.359 167.279 110.042 169.166 108.697L171.755 106.851L174.539 108.384C182.237 112.607 190.871 114.821 199.647 114.82C228.444 114.82 251.873 91.3421 251.873 62.484C251.873 33.626 228.444 10.1482 199.647 10.1482C170.849 10.1482 147.42 33.626 147.42 62.484V62.484Z" fill="#3F3D56"/>
<path d="M142.357 62.484C142.357 30.7774 168.006 5.0741 199.647 5.0741C231.287 5.0741 256.937 30.7774 256.937 62.484C256.937 94.1906 231.287 119.894 199.647 119.894C190.017 119.908 180.541 117.478 172.101 112.832C168.141 115.655 158.48 121.287 148.936 117.23L160.424 104.325C154.713 98.963 150.163 92.4821 147.055 85.2846C143.947 78.0871 142.348 70.3264 142.357 62.484Z" fill="#00A99D"/>
<path opacity="0.1" d="M247.177 62.6084C247.177 32.6121 224.219 7.99342 194.95 5.42429C196.619 5.27781 198.307 5.19855 200.014 5.19855C231.654 5.19855 257.304 30.9018 257.304 62.6084C257.304 94.315 231.654 120.018 200.014 120.018C198.31 120.018 196.625 119.938 194.958 119.792C224.223 117.219 247.177 92.602 247.177 62.6084Z" fill="black"/>
<path d="M67.6283 198.45C53.3134 198.456 39.4311 193.532 28.3079 184.503C17.1848 175.473 9.49676 162.887 6.53229 148.853C3.56782 134.819 5.50705 120.19 12.025 107.418C18.5429 94.6467 29.2434 84.5081 42.3333 78.7017C55.4232 72.8953 70.1069 71.774 83.9236 75.5256C97.7403 79.2772 109.85 87.6739 118.224 99.3083C126.598 110.943 130.727 125.108 129.919 139.43C129.111 153.752 123.415 167.361 113.786 177.975L126.821 192.618L120.316 195.383C110.253 199.66 100.406 195.498 94.8791 192.177C86.3848 196.303 77.0681 198.448 67.6283 198.45ZM67.6283 83.6298C38.8306 83.6298 15.4019 107.108 15.4019 135.966C15.4019 164.824 38.8306 188.301 67.6283 188.301C76.4038 188.302 85.0382 186.089 92.7354 181.866L95.5201 180.333L98.1092 182.179C99.9961 183.524 103.717 185.84 107.99 186.709L99.7875 177.495L103.383 174.109C108.606 169.234 112.765 163.328 115.6 156.764C118.435 150.199 119.883 143.118 119.855 135.966C119.855 107.108 96.426 83.6298 67.6283 83.6298Z" fill="#3F3D56"/>
<path d="M124.918 135.965C124.918 104.259 99.2686 78.5556 67.6283 78.5556C35.9879 78.5556 10.3384 104.259 10.3384 135.965C10.3384 167.672 35.9879 193.375 67.6283 193.375C77.2578 193.389 86.7342 190.96 95.1737 186.313C99.134 189.137 108.795 194.769 118.339 190.712L106.851 177.807C112.562 172.444 117.112 165.964 120.22 158.766C123.328 151.569 124.927 143.808 124.918 135.965Z" fill="#00A99D"/>
<path opacity="0.1" d="M20.4654 135.676C20.4654 105.679 43.4237 81.0605 72.6918 78.4914C71.023 78.3449 69.335 78.2656 67.6283 78.2656C35.9879 78.2656 10.3384 103.969 10.3384 135.676C10.3384 167.382 35.9879 193.085 67.6283 193.085C69.3324 193.085 71.0175 193.005 72.6838 192.859C43.4195 190.286 20.4654 165.669 20.4654 135.676Z" fill="black"/>
<path d="M213.096 44.2449C209.348 37.898 201.932 37.6022 201.932 37.6022C201.932 37.6022 194.705 36.6762 190.07 46.3426C185.749 55.3524 179.786 64.0516 189.11 66.1608L190.794 60.9078L191.837 66.5518C193.164 66.6475 194.496 66.6703 195.826 66.6202C205.812 66.2971 215.321 66.7147 215.015 63.124C214.608 58.3508 216.703 50.3519 213.096 44.2449Z" fill="#2F2E41"/>
<path d="M188.577 99.8275C188.467 100.526 188.307 101.215 188.099 101.89C187.864 102.551 187.502 103.162 187.288 103.83C186.604 105.959 187.552 108.332 189.066 109.975C190.378 111.394 192.072 112.402 193.944 112.878C195.322 113.173 196.727 113.321 198.137 113.319C202.033 113.452 206.03 113.57 209.722 112.315C210.889 111.909 212.016 111.396 213.088 110.783C213.427 110.621 213.726 110.386 213.962 110.094C214.209 109.666 214.319 109.173 214.277 108.68C214.269 107.025 213.934 105.378 214.013 103.724C214.057 102.809 214.229 101.893 214.144 100.98C214.028 99.9434 213.594 98.9679 212.903 98.1874C212.212 97.4068 211.297 96.8593 210.284 96.6199C209.236 96.3945 208.15 96.5173 207.083 96.6201C204.315 96.8866 201.536 97.0111 198.755 96.9932C195.914 96.9751 193.09 96.5404 190.263 96.4951C189.427 96.4816 189.444 96.7399 189.178 97.5508C188.932 98.297 188.732 99.0573 188.577 99.8275Z" fill="#2F2E41"/>
<path d="M196.64 58.9529C196.504 59.6693 196.356 60.4119 195.927 61.0007C195.432 61.6781 194.626 62.0651 194.095 62.7133C193.294 63.6891 193.248 65.0621 193.245 66.3252C193.242 67.4888 193.266 68.7299 193.913 69.6958C194.374 70.2958 194.946 70.8011 195.598 71.1841C198.026 72.824 200.65 74.4934 203.578 74.5475C204.791 74.5699 206.092 74.256 206.89 73.3403C207.235 72.9102 207.506 72.4257 207.692 71.9066C208.441 70.0574 208.894 68.1016 209.037 66.1111C209.145 65.1753 209.057 64.2273 208.781 63.327C208.425 62.3333 207.706 61.5156 207.231 60.5734C206.669 59.4531 206.463 58.187 206.642 56.946C206.665 56.8586 206.658 56.7657 206.621 56.6831C206.582 56.6389 206.533 56.6043 206.479 56.5821C206.424 56.56 206.365 56.5507 206.306 56.5552L200.501 56.1364C199.96 56.1095 199.422 56.0478 198.889 55.9516C198.576 55.8879 197.749 55.4424 197.451 55.5609C196.899 55.7801 196.754 58.3588 196.64 58.9529Z" fill="#A0616A"/>
<path opacity="0.1" d="M196.64 59.1345C196.504 59.8509 196.356 60.5935 195.927 61.1823C195.432 61.8596 194.626 62.2466 194.095 62.8949C193.294 63.8707 193.248 65.2437 193.245 66.5068C193.242 67.6704 193.266 68.9115 193.913 69.8773C194.374 70.4774 194.946 70.9827 195.598 71.3657C198.026 73.0056 200.65 74.675 203.578 74.7291C204.791 74.7515 206.092 74.4375 206.89 73.5219C207.235 73.0917 207.506 72.6073 207.692 72.0882C208.441 70.2389 208.894 68.2832 209.037 66.2927C209.145 65.3569 209.057 64.4089 208.781 63.5086C208.425 62.5149 207.706 61.6972 207.231 60.755C206.669 59.6347 206.463 58.3686 206.642 57.1275C206.665 57.0401 206.658 56.9473 206.621 56.8647C206.582 56.8204 206.533 56.7859 206.479 56.7637C206.424 56.7415 206.365 56.7323 206.306 56.7368L200.501 56.318C199.96 56.2911 199.422 56.2293 198.889 56.1332C198.576 56.0694 197.749 55.624 197.451 55.7425C196.899 55.9617 196.754 58.5404 196.64 59.1345Z" fill="black"/>
<path d="M202.192 59.733C206.896 59.733 210.709 55.9117 210.709 51.198C210.709 46.4842 206.896 42.663 202.192 42.663C197.488 42.663 193.675 46.4842 193.675 51.198C193.675 55.9117 197.488 59.733 202.192 59.733Z" fill="#A0616A"/>
<path d="M197.835 70.3143C198.256 70.8026 198.763 71.2087 199.331 71.5123C199.923 71.7575 200.559 71.8789 201.2 71.8688C202.735 71.9121 204.4 71.6302 205.468 70.5241C206.844 69.0983 206.799 66.7986 207.878 65.1352C207.965 64.9844 208.084 64.8544 208.226 64.7541C208.407 64.6554 208.611 64.6082 208.817 64.6179C210.18 64.6051 211.367 65.4909 212.439 66.3351C212.943 66.6828 213.376 67.1246 213.714 67.6363C213.925 68.0506 214.071 68.4958 214.143 68.9555C214.675 71.5565 214.847 74.216 215.018 76.8655C215.113 78.3289 215.207 79.7938 215.2 81.2603C215.177 86.0917 214.056 90.8424 212.942 95.543C212.798 96.1487 212.602 96.8257 212.052 97.1158C211.807 97.2262 211.544 97.2906 211.276 97.3057C208.084 97.6813 204.886 98.0574 201.672 98.107C200.418 98.1264 199.165 98.096 197.912 98.0158C197.696 98.0129 197.482 97.9756 197.278 97.9051C197.001 97.7719 196.764 97.5695 196.588 97.3174C194.85 95.1225 194.747 92.088 194.758 89.286C194.785 82.4353 195.029 75.59 195.491 68.7502C195.529 68.1857 195.537 67.5001 195.131 67.0559C195.922 68.2298 196.827 69.3214 197.835 70.3143Z" fill="white"/>
<path d="M196.031 60.4594C195.743 60.9812 193.622 62.2769 193.213 62.7094C190.925 65.1258 186.75 65.0351 184.658 67.6232C183.922 68.5338 183.539 69.6779 183.258 70.8154C182.86 72.4241 182.648 74.1786 183.314 75.6955C183.955 77.1551 185.305 78.1642 186.222 79.468C187.228 80.8996 187.68 82.6378 188.114 84.3341C188.434 85.5866 188.757 86.8701 188.632 88.157C188.49 89.6201 187.784 90.9598 187.367 92.3691C186.95 93.7785 186.878 95.457 187.842 96.5646C188.551 97.3783 189.662 97.7008 190.725 97.8823C192.085 98.0872 193.458 98.2069 194.833 98.2407C196.048 98.2945 197.386 98.305 198.32 97.5248C199.057 96.9091 199.377 95.9102 199.418 94.9498C199.46 93.9895 199.26 93.0377 199.135 92.0847C199.006 91.0967 198.956 90.1001 198.915 89.1046C198.728 84.6376 198.702 80.1677 198.838 75.6949C198.907 74.7653 198.861 73.8308 198.703 72.9123C198.442 71.7158 197.797 70.6466 197.258 69.5472C196.182 67.4767 195.695 65.1495 195.85 62.8202C196.013 60.4263 197.054 58.6025 196.031 60.4594Z" fill="white"/>
<path d="M207.991 60.641C208.429 61.0923 209.918 61.241 210.475 61.5317C211 61.7744 211.547 61.9642 212.109 62.0983C214.142 62.686 216.076 63.5755 217.846 64.737C218.214 64.9527 218.539 65.2341 218.805 65.5675C219.086 66.025 219.267 66.5368 219.336 67.0693C219.609 68.4241 219.883 69.7951 219.822 71.1758C219.757 72.6414 219.316 74.0608 218.879 75.461L217.246 80.6926C216.027 84.5977 214.801 88.5412 214.458 92.6183C214.268 94.878 214.352 97.1524 214.709 99.3917C214.742 99.5007 214.752 99.6155 214.738 99.7286C214.724 99.8418 214.686 99.9505 214.627 100.048C214.519 100.154 214.377 100.22 214.227 100.232C213.439 100.356 212.676 99.9529 211.962 99.5966C209.779 98.5082 207.45 97.7444 205.047 97.3294C205.986 95.9699 206.711 94.4735 207.195 92.8931C207.47 91.8895 207.687 90.8708 207.844 89.842L208.603 85.4392C208.912 83.83 209.13 82.2044 209.255 80.5704C209.313 79.9572 209.277 79.3388 209.149 78.7364C208.974 78.163 208.742 77.6089 208.456 77.0823C207.204 74.4727 206.616 71.4947 207.109 68.6415C207.324 67.3929 207.743 66.1426 207.569 64.8876C207.401 63.6809 207.575 62.7431 207.266 61.549C205.998 56.6459 207.167 59.792 207.991 60.641Z" fill="white"/>
<path d="M184.636 71.7493C184.065 72.9361 183.111 73.9472 182.786 75.2239C182.66 75.8205 182.606 76.4303 182.625 77.0399C182.569 77.9587 182.66 78.8806 182.894 79.7706C183.075 80.3336 183.37 80.8528 183.583 81.4047C183.879 82.1758 184.011 83.0005 183.97 83.8257C183.913 84.9689 183.525 86.0787 183.495 87.223C183.447 89.0224 184.278 90.7141 185.088 92.3206C185.292 91.8144 185.604 91.359 186.002 90.9862C186.4 90.6133 186.874 90.3322 187.392 90.1623C187.91 89.9925 188.458 89.938 188.999 90.0028C189.54 90.0676 190.061 90.25 190.524 90.5373C190.709 90.3089 190.797 90.0162 190.769 89.723C190.829 87.6353 190.886 85.5476 190.942 83.4598C191.03 80.2309 191.113 76.9588 190.372 73.8152C190.038 72.3959 189.517 70.9821 188.562 69.8812C188.06 69.3016 186.353 67.7747 185.528 68.4241C185.157 68.7161 185.244 69.511 185.185 69.9136C185.096 70.5499 184.911 71.1689 184.636 71.7493Z" fill="white"/>
<path d="M219.989 68.329C220.218 69.1849 220.317 70.0707 220.28 70.9562C220.291 72.7609 220.267 74.5654 220.209 76.3697C220.218 77.2951 220.099 78.2173 219.858 79.1105C219.673 79.6913 219.389 80.2359 219.199 80.8148C218.628 82.5496 218.94 84.4311 218.989 86.257C219.023 86.848 218.973 87.4409 218.839 88.0175C218.538 89.1494 217.729 90.064 217.164 91.0897C216.628 92.0638 216.305 93.1557 215.664 94.0644C215.023 94.9731 213.915 95.6932 212.84 95.4142C212.026 95.2028 211.447 94.4805 211.047 93.7391C210.173 92.1089 209.875 90.2311 210.199 88.4096C210.601 86.1935 211.9 84.2275 212.368 82.0246C213.012 78.9994 212.034 75.8778 212.063 72.7849C212.05 72.3 212.115 71.8163 212.257 71.3526C212.503 70.6461 213.031 70.0819 213.518 69.5153C214.128 68.8073 214.694 68.0629 215.213 67.2864C215.562 66.7647 216.036 65.4231 216.655 65.3115C218.037 65.0624 219.646 67.2594 219.989 68.329Z" fill="white"/>
<path d="M177.467 98.4821C176.703 98.2897 175.916 98.2058 175.129 98.233C174.301 98.2788 173.493 98.5006 172.758 98.8836C172.023 99.2666 171.378 99.802 170.865 100.454C170.353 101.106 169.985 101.861 169.785 102.666C169.586 103.472 169.56 104.311 169.71 105.128C169.901 106.013 170.212 106.866 170.636 107.665C171.257 108.927 172 110.185 173.149 110.993C173.84 111.438 174.585 111.793 175.366 112.051L181.413 114.334C182.302 114.669 183.192 115.005 184.09 115.317C188.604 116.88 193.309 117.817 198.076 118.103C199.526 118.239 200.989 118.165 202.418 117.882C202.764 117.837 203.081 117.666 203.308 117.401C203.423 117.2 203.491 116.975 203.506 116.743L203.879 114.133C203.962 113.769 203.951 113.39 203.847 113.032C203.676 112.594 203.249 112.318 202.842 112.083C198.866 109.795 194.225 108.533 190.878 105.392C190.091 104.653 189.431 103.481 188.474 102.979C187.389 102.41 186.111 102.085 184.989 101.56C182.536 100.413 180.125 99.0944 177.467 98.4821Z" fill="#2F2E41"/>
<path opacity="0.1" d="M183.504 102.001C185.641 102.672 194.665 107.322 196.212 108.945C196.005 109.02 188.97 105.07 188.759 105.006C186.825 104.474 184.93 103.805 183.089 103.004C182.723 102.834 180.708 102.036 180.799 101.572C180.902 101.049 183.125 101.882 183.504 102.001Z" fill="black"/>
<path d="M210.169 119.457C210.29 119.466 210.41 119.43 210.508 119.357C210.55 119.302 210.581 119.239 210.6 119.172C210.618 119.105 210.623 119.035 210.614 118.966L210.604 115.41C209.583 114.923 208.442 114.766 207.321 114.616L202.093 113.916C202.213 113.932 201.276 116.172 201.42 116.471C201.673 116.999 203.609 117.466 204.156 117.715C206.055 118.58 208.029 119.531 210.169 119.457Z" fill="#A0616A"/>
<path d="M193.766 115.397C192.779 115.555 191.678 115.694 191.038 116.464C190.228 117.441 190.573 118.896 190.96 120.106C190.983 120.262 191.038 120.412 191.12 120.546C191.203 120.681 191.311 120.798 191.439 120.89C191.567 120.981 191.713 121.047 191.866 121.081C192.02 121.116 192.179 121.119 192.334 121.091C193.234 121.148 194.192 121.193 194.979 120.751C195.335 120.515 195.678 120.259 196.006 119.985C196.586 119.599 197.224 119.306 197.895 119.12C199.129 118.731 200.4 118.469 201.687 118.337C202.194 118.314 202.696 118.225 203.18 118.073C203.422 117.995 203.643 117.862 203.826 117.684C204.008 117.507 204.147 117.29 204.232 117.05C204.414 116.403 204.04 115.744 203.68 115.178C203.266 114.435 202.728 113.769 202.09 113.208C201.116 112.45 200.634 113.032 199.653 113.518C197.796 114.436 195.812 115.07 193.766 115.397Z" fill="#A0616A"/>
<path d="M191.187 116.288L184.92 114.432C184.168 114.17 183.382 114.017 182.587 113.979C182.189 113.963 181.792 114.032 181.423 114.181C181.053 114.331 180.72 114.558 180.445 114.847C179.959 115.419 179.82 116.2 179.699 116.941L179.44 118.526C179.267 119.325 179.218 120.147 179.295 120.961C179.336 121.368 179.47 121.76 179.686 122.108C179.902 122.455 180.194 122.749 180.54 122.966C181.407 123.44 182.47 123.209 183.438 123.01C185.393 122.61 187.382 122.396 189.377 122.372C190.128 122.363 190.914 122.373 191.577 122.02C191.962 121.792 192.285 121.473 192.519 121.09C192.753 120.708 192.889 120.274 192.918 119.827C193.041 118.473 192.591 116.704 191.187 116.288Z" fill="#2F2E41"/>
<path d="M212.633 114.671C213.445 114.528 214.162 114.065 214.941 113.792C216.036 113.408 217.224 113.408 218.385 113.412C218.812 113.373 219.241 113.459 219.62 113.66C220.131 114.001 220.262 114.684 220.349 115.293L220.874 118.971C221.014 119.657 221.029 120.363 220.917 121.054C220.763 121.735 220.299 122.392 219.625 122.568C218.805 122.782 218.002 122.257 217.228 121.912C215.294 121.051 213.045 121.271 211.029 120.627C210.836 120.589 210.654 120.509 210.494 120.395C210.334 120.28 210.2 120.133 210.101 119.962C210.032 119.758 210.007 119.542 210.029 119.327C210.063 118.145 209.815 116.531 210.17 115.401C210.489 114.385 211.726 114.671 212.633 114.671Z" fill="#2F2E41"/>
<path d="M225.896 97.0021C227.148 96.6874 228.447 96.5985 229.73 96.7396C230.755 96.8528 231.811 97.1386 232.559 97.8495C233.47 98.7148 233.763 100.053 233.787 101.31C233.827 103.815 232.998 106.256 231.442 108.216C231.062 108.712 230.61 109.148 230.101 109.509C229.552 109.854 228.967 110.136 228.357 110.352L214.815 115.704C211.252 117.113 207.677 118.525 203.961 119.453C203.859 119.502 203.749 119.531 203.636 119.536C203.524 119.542 203.411 119.525 203.305 119.487C203.199 119.448 203.102 119.389 203.019 119.312C202.936 119.235 202.869 119.143 202.823 119.04C201.636 117.341 200.641 115.517 199.855 113.599C199.817 113.553 199.792 113.499 199.78 113.442C199.768 113.384 199.77 113.324 199.786 113.268C199.801 113.211 199.831 113.159 199.871 113.116C199.911 113.073 199.961 113.04 200.016 113.021L209.595 107.506C210.297 107.139 210.952 106.687 211.544 106.16C211.958 105.758 212.297 105.285 212.545 104.764C212.744 104.348 212.762 103.367 213.016 103.06C213.264 102.759 214.114 102.735 214.506 102.617C215.059 102.447 215.601 102.242 216.128 102.003C218.27 101.042 220.178 99.6465 222.232 98.5218C223.384 97.8618 224.615 97.3511 225.896 97.0021Z" fill="#2F2E41"/>
<path opacity="0.1" d="M220.466 101.121C218.82 102.359 216.689 103.498 215.058 104.769C214.502 105.203 205.223 110.43 205.092 111.125C206.613 111.382 216.306 104.587 217.693 103.909C219.079 103.231 220.309 102.274 221.527 101.325C221.837 101.083 223.153 100.356 222.262 100.086C221.76 99.9339 220.836 100.873 220.466 101.121Z" fill="black"/>
<path d="M209.143 60.7609H194.698C194.111 60.7609 193.548 60.9946 193.133 61.4104C192.718 61.8263 192.485 62.3903 192.485 62.9784V63.7904H192.328V65.6063H192.485V66.8775H192.328V67.9671H192.485V81.3663C192.485 81.9544 192.718 82.5184 193.133 82.9342C193.548 83.3501 194.111 83.5837 194.698 83.5837H209.143C209.73 83.5837 210.293 83.3501 210.708 82.9342C211.123 82.5184 211.356 81.9544 211.356 81.3663V62.9783C211.356 62.3902 211.123 61.8262 210.708 61.4104C210.293 60.9945 209.73 60.7609 209.143 60.7609Z" fill="#D0CDE1"/>
<path d="M211.439 43.6332L204.112 39.7874L193.995 41.3607L191.901 50.6255L197.112 50.4244L198.568 47.0208V50.3686L200.972 50.2759L202.368 44.8567L203.24 50.6255L211.788 50.4505L211.439 43.6332Z" fill="#2F2E41"/>
<path d="M186.553 95.802C186.884 96.3666 187.355 96.8361 187.92 97.1654C188.291 97.3351 188.696 97.4176 189.103 97.4067C189.511 97.3957 189.91 97.2916 190.271 97.1023C190.993 96.7147 191.583 96.1215 191.968 95.3977C192.764 93.9887 192.929 92.3027 192.83 90.6865C192.73 89.0703 192.386 87.4789 192.234 85.8668C192.123 84.695 192.114 83.5162 192.105 82.3391C192.077 82.0916 192.129 81.8418 192.253 81.6257C192.466 81.4136 192.741 81.2758 193.038 81.2327C194.645 80.7542 195.712 79.2448 196.477 77.7498C196.987 76.7516 197.431 75.6604 197.333 74.543C197.234 73.4256 196.433 72.2999 195.319 72.1859C194.401 72.0919 193.553 72.6763 192.891 73.3203C191.22 74.9553 190.147 77.1055 189.843 79.4256C189.697 80.5618 189.739 81.7288 189.43 82.8318C188.772 85.1869 186.712 86.6308 185.685 88.7499C184.554 91.085 185.178 93.736 186.553 95.802Z" fill="#A0616A"/>
<path d="M216.869 86.8047C216.635 87.3509 216.294 87.8445 215.866 88.2564C215.438 88.6683 214.933 88.9902 214.379 89.203C213.69 89.4801 212.93 89.5267 212.213 89.3359C211.858 89.237 211.53 89.0573 211.254 88.8107C210.979 88.5641 210.765 88.2573 210.627 87.9141C210.517 87.5684 210.457 87.2089 210.449 86.8462C210.345 85.2581 210.385 83.6215 210.961 82.1382C211.183 81.5661 211.482 81.0236 211.658 80.4354C211.83 79.756 211.918 79.0581 211.92 78.3572L212.109 74.0239C212.14 73.7093 212.119 73.3917 212.045 73.0843C211.856 72.4573 211.271 72.0498 210.735 71.6759C209.439 70.7729 208.158 69.7191 207.531 68.268C207.315 67.8311 207.238 67.3386 207.309 66.8564C207.486 65.9959 208.353 65.4389 209.209 65.2512C209.77 65.1284 210.349 65.1206 210.913 65.2282C211.476 65.3357 212.012 65.5565 212.488 65.8772C212.964 66.1979 213.371 66.6118 213.683 67.0941C213.995 67.5764 214.207 68.117 214.305 68.6833C214.389 69.1724 214.388 69.6719 214.438 70.1657C214.543 71.2133 214.875 72.2231 215.083 73.2552C215.594 75.7975 215.329 78.4254 215.835 80.9673C216.258 83.0925 217.852 84.4793 216.869 86.8047Z" fill="#A0616A"/>
<path d="M202.114 70.5094C203.115 70.5094 203.926 69.6964 203.926 68.6935C203.926 67.6905 203.115 66.8775 202.114 66.8775C201.113 66.8775 200.302 67.6905 200.302 68.6935C200.302 69.6964 201.113 70.5094 202.114 70.5094Z" fill="#00A99D"/>
<path d="M5.34627 133.959C8.29859 133.959 10.6919 131.561 10.6919 128.603C10.6919 125.644 8.29859 123.246 5.34627 123.246C2.39394 123.246 0.000610352 125.644 0.000610352 128.603C0.000610352 131.561 2.39394 133.959 5.34627 133.959Z" fill="#2F2E41"/>
<path d="M24.7234 144.505L22.0308 141.883L16.6241 143.566L17.1434 149.839L28.2604 149.322L24.8452 144.671L24.7234 144.505Z" fill="#FBBEBE"/>
<path d="M18.8345 144.451C23.6076 144.451 27.4769 140.574 27.4769 135.791C27.4769 131.008 23.6076 127.13 18.8345 127.13C14.0614 127.13 10.192 131.008 10.192 135.791C10.192 140.574 14.0614 144.451 18.8345 144.451Z" fill="#FBBEBE"/>
<path d="M72.4874 155.621C72.4874 155.621 83.1048 173.906 85.6316 176.651C86.8333 178.002 88.1135 179.28 89.4656 180.48C89.4656 180.48 88.2775 184.428 86.3856 184.287C85.3073 184.222 84.2498 183.961 83.2647 183.517C83.2647 183.517 82.4203 181.323 80.9474 180.361C79.4745 179.399 67.4408 167.536 67.722 163.744C68.0033 159.952 72.4874 155.621 72.4874 155.621Z" fill="#2F2E41"/>
<path d="M34.6755 181.714C34.6755 181.714 45.9961 190.519 61.3811 182.246L62.707 181.268C62.707 181.268 60.4695 186.312 60.2619 187.679C60.0212 189.265 54.1958 198.553 53.2452 198.998C52.2945 199.443 52.085 199.854 52.085 199.854L56.1192 204.304L57.6108 203.204C57.6108 203.204 63.4269 194.946 65.1279 193.436C66.829 191.925 74.9338 176.347 74.9338 176.347C74.9338 176.347 78.0325 170.478 70.2991 170.036C62.5657 169.595 59.0072 171.707 59.0072 171.707L45.2824 173.892L34.6755 181.714Z" fill="#2F2E41"/>
<path d="M89.5969 179.615L95.3229 183.585C95.3229 183.585 102.628 185.879 98.1281 187.405C93.6282 188.931 81.7702 189.483 81.5012 187.377C81.2322 185.272 81.9689 181.957 82.5605 182.138C83.1521 182.32 87.258 183.388 89.5969 179.615Z" fill="#2F2E41"/>
<path d="M58.1175 201.84L59.1773 207.672C59.1773 207.672 62.1908 213.447 58.5725 211.655C54.9543 209.863 47.4997 203.056 48.6005 201.629C49.7013 200.202 52.1309 198.655 52.3776 199.12C52.6244 199.585 54.4505 202.698 58.1175 201.84Z" fill="#2F2E41"/>
<path d="M47.1994 175.806C47.1994 175.806 39.504 184.81 34.8319 182.623C30.1599 180.436 11.0458 155.104 13.2283 150.422C15.4108 145.74 16.1426 146.737 16.1426 146.737L26.0118 147.651L23.1722 143.089C23.1722 143.089 24.4981 142.111 25.7615 143.484C27.0249 144.856 32.0972 148.284 33.8643 153.126C35.6313 157.967 40.8192 157.726 40.8192 157.726L47.1994 175.806Z" fill="white"/>
<path d="M78.2758 157.241L64.9361 171.431L52.9863 150.289L64.3466 136.535L78.2758 157.241Z" fill="#3F3D56"/>
<path d="M77.2689 157.088L65.2207 169.557L54.303 150.342L64.3155 137.71L77.2689 157.088Z" fill="white"/>
<path d="M64.2826 170.889L64.9362 171.431L64.5171 172.252L45.8641 177.815L45.6877 177.175L46.5364 176.295L64.2826 170.889Z" fill="#B3B3B3"/>
<path d="M65.1019 171.309L45.7861 177.361L34.0115 155.065L52.9864 150.289L65.1019 171.309Z" fill="#D0CDE1"/>
<path d="M63.6477 168.285L62.819 168.896L53.6216 152.893L54.5721 152.448L63.6477 168.285Z" fill="#3F3D56"/>
<path d="M61.7463 169.175L53.5753 171.616L44.2997 155.159L52.3832 153.294L61.7463 169.175Z" fill="#3F3D56"/>
<path d="M38.7271 156.964L40.4189 156.485C40.4189 156.485 49.8533 155.416 49.9911 158.386C50.1288 161.357 39.1525 159.979 39.1525 159.979L37.689 157.986L38.7271 156.964Z" fill="#FBBEBE"/>
<path d="M47.0021 170.319L49.3568 169.351C49.3568 169.351 56.4646 166.158 54.4256 164.077C52.3866 161.996 46.0982 165.61 46.0982 165.61L44.8943 166.753L47.0021 170.319Z" fill="#FBBEBE"/>
<path d="M44.9036 165.722C44.9036 165.722 48.7376 169.552 47.8652 170.451C46.9928 171.35 32.6868 183.181 29.1404 179.395C25.5941 175.61 8.3159 156.605 15.0391 154.975C21.7624 153.346 23.5387 157.156 23.5387 157.156L32.4142 172.373L44.9036 165.722Z" fill="white"/>
<path d="M33.4234 154.091L39.7214 156.231L39.6186 160.787L32.9578 160.067L33.4234 154.091Z" fill="white"/>
<path opacity="0.2" d="M39.0998 168.082L32.3143 172.062L24.5615 160.114L32.0451 169.957L39.0998 168.082Z" fill="black"/>
<path d="M15.0411 143.591C20.7233 143.591 25.3297 138.975 25.3297 133.28C25.3297 127.586 20.7233 122.97 15.0411 122.97C9.35882 122.97 4.75244 127.586 4.75244 133.28C4.75244 138.975 9.35882 143.591 15.0411 143.591Z" fill="#2F2E41"/>
<path d="M70.6331 158.141L63.429 147.58L66.4828 143.792L73.9685 154.657L70.6331 158.141Z" fill="#00A99D"/>
<path d="M70.4301 162.387L59.4625 146.409L60.0035 145.754L70.9197 161.77L70.4301 162.387Z" fill="#E6E6E6"/>
<path d="M69.0167 163.941L58.0492 147.963L58.5901 147.308L69.5064 163.324L69.0167 163.941Z" fill="#E6E6E6"/>
<path d="M67.8127 165.085L56.8452 149.107L57.3862 148.452L68.3024 164.468L67.8127 165.085Z" fill="#E6E6E6"/>
<path d="M19.5973 126.397H22.7801C24.3916 126.397 25.9371 127.039 27.0766 128.181C28.2161 129.322 28.8563 130.871 28.8563 132.486H19.5973V126.397Z" fill="#2F2E41"/>
<path d="M63.4397 122.522L62.8627 122.479C62.8403 122.78 62.8243 123.082 62.8052 123.384L60.2153 123.297L62.932 128.399L65.9831 123.491L63.3837 123.403C63.4023 123.11 63.4179 122.815 63.4397 122.522Z" fill="#3F3D56"/>
<path d="M78.6304 80.9386L79.0904 81.2906C79.7804 80.3849 80.5011 79.4808 81.2325 78.6033L80.7883 78.2316C80.0515 79.1156 79.3255 80.0263 78.6304 80.9386Z" fill="#3F3D56"/>
<path d="M83.0632 75.6226L83.4905 76.0137C84.2582 75.1711 85.0553 74.3344 85.8593 73.5264L85.4496 73.117C84.6395 73.9308 83.8366 74.7739 83.0632 75.6226Z" fill="#3F3D56"/>
<path d="M87.9431 70.7191L88.3345 71.1464C89.1741 70.3738 90.041 69.6107 90.911 68.8782L90.5389 68.4342C89.6624 69.1721 88.789 69.941 87.9431 70.7191Z" fill="#3F3D56"/>
<path d="M74.6805 86.6277L75.1697 86.9374C75.7779 85.9731 76.4166 85.0086 77.0679 84.0704L76.5929 83.7391C75.9367 84.6844 75.2933 85.6562 74.6805 86.6277Z" fill="#3F3D56"/>
<path d="M93.2318 66.2661L93.5842 66.7259C94.4884 66.0302 95.4186 65.3467 96.3489 64.6943L96.0172 64.2192C95.0798 64.8765 94.1426 65.5651 93.2318 66.2661Z" fill="#3F3D56"/>
<path d="M71.2467 92.6466L71.7613 92.9116C72.2826 91.8957 72.8339 90.8778 73.3997 89.8863L72.8973 89.5983C72.3272 90.5973 71.7718 91.6229 71.2467 92.6466Z" fill="#3F3D56"/>
<path d="M65.665 108.969L65.1047 108.825C64.8187 109.938 64.554 111.072 64.3177 112.197L64.884 112.317C65.1185 111.2 65.3813 110.074 65.665 108.969Z" fill="#3F3D56"/>
<path d="M98.889 62.298L99.1996 62.7873C100.159 62.1757 101.145 61.5772 102.131 61.0085L101.842 60.5059C100.849 61.079 99.8553 61.6819 98.889 62.298Z" fill="#3F3D56"/>
<path d="M64.2524 115.696L63.6813 115.602C63.4955 116.734 63.3323 117.887 63.1963 119.03L63.771 119.099C63.9059 117.965 64.068 116.82 64.2524 115.696Z" fill="#3F3D56"/>
<path d="M68.3583 98.9505L68.8943 99.1688C69.3234 98.1105 69.7824 97.047 70.2585 96.008L69.7327 95.7659C69.2529 96.8128 68.7905 97.8843 68.3583 98.9505Z" fill="#3F3D56"/>
<path d="M66.0404 105.491L66.5939 105.66C66.9276 104.566 67.2903 103.465 67.6719 102.388L67.1266 102.194C66.7421 103.279 66.3767 104.388 66.0404 105.491Z" fill="#3F3D56"/>
<path d="M138.034 50.7397C139.169 50.7003 140.324 50.6846 141.467 50.6954L141.472 50.1155C140.321 50.1047 139.157 50.1204 138.015 50.1601L138.034 50.7397Z" fill="#3F3D56"/>
<path d="M104.87 58.8472L105.137 59.362C106.147 58.8373 107.182 58.3289 108.212 57.8508L107.968 57.3247C106.931 57.8064 105.888 58.3186 104.87 58.8472Z" fill="#3F3D56"/>
<path d="M151.728 51.4627C152.856 51.6228 153.996 51.8103 155.114 52.02L155.22 51.45C154.094 51.2387 152.946 51.0497 151.808 50.8885L151.728 51.4627Z" fill="#3F3D56"/>
<path d="M158.472 52.7273C159.581 52.9866 160.699 53.2749 161.796 53.5839L161.952 53.0256C160.847 52.7142 159.721 52.424 158.604 52.1627L158.472 52.7273Z" fill="#3F3D56"/>
<path d="M165.077 54.5881C166.158 54.9453 167.246 55.3321 168.311 55.7379L168.517 55.1959C167.443 54.7871 166.347 54.3973 165.259 54.0374L165.077 54.5881Z" fill="#3F3D56"/>
<path d="M144.897 50.8007C146.037 50.8606 147.188 50.9467 148.32 51.0563L148.376 50.4792C147.236 50.3686 146.076 50.282 144.928 50.2217L144.897 50.8007Z" fill="#3F3D56"/>
<path d="M131.125 50.7026L131.196 51.2782C132.324 51.1392 133.472 51.0233 134.609 50.9338L134.564 50.3556C133.418 50.4458 132.261 50.5626 131.125 50.7026Z" fill="#3F3D56"/>
<path d="M117.625 53.6037L117.797 54.1576C118.884 53.8202 119.994 53.5028 121.095 53.2141L120.949 52.6532C119.839 52.9439 118.721 53.2637 117.625 53.6037Z" fill="#3F3D56"/>
<path d="M111.129 55.9419L111.349 56.4785C112.401 56.0459 113.476 55.6317 114.543 55.2474L114.348 54.7017C113.272 55.0888 112.189 55.5062 111.129 55.9419Z" fill="#3F3D56"/>
<path d="M124.311 51.8519L124.433 52.4191C125.544 52.1802 126.678 51.9629 127.802 51.7733L127.706 51.2014C126.573 51.3925 125.431 51.6114 124.311 51.8519Z" fill="#3F3D56"/>
<path d="M176.946 59.3233L173.712 54.5342L172.575 56.8797C172.299 56.7566 172.026 56.6307 171.751 56.5114L171.521 57.0438C171.789 57.1602 172.055 57.2823 172.322 57.4016L171.19 59.736L176.946 59.3233Z" fill="#3F3D56"/>
</g>
<defs>
<clipPath id="clip0_35_384">
<rect width="262" height="212" fill="white"/>
</clipPath>
</defs>
</svg>
