<svg width="274" height="275" viewBox="0 0 274 275" fill="none" xmlns="http://www.w3.org/2000/svg">
<g clip-path="url(#clip0_35_462)">
<path d="M272.712 16.6274L0.237148 49.3585C0.205499 49.3624 0.173401 49.357 0.144777 49.343C0.114995 49.328 0.0891697 49.3062 0.0693937 49.2794C0.0465414 49.2488 0.0292828 49.2145 0.0184159 49.1779C0.00590481 49.136 -0.000299494 49.0924 1.1109e-05 49.0486C2.06054e-05 49.0033 0.00632823 48.9582 0.0187632 48.9146C0.0304097 48.8743 0.0479375 48.836 0.0707827 48.8008C0.0906709 48.7692 0.116226 48.7415 0.146166 48.7192C0.173214 48.6989 0.205017 48.6859 0.238537 48.6814L272.712 15.4985C272.798 15.4875 272.885 15.492 272.969 15.5116C273.044 15.5292 273.116 15.5616 273.179 15.607C273.237 15.6497 273.286 15.7051 273.32 15.7693C273.354 15.8347 273.372 15.9075 273.372 15.9813C273.372 16.0596 273.354 16.1368 273.32 16.2075C273.285 16.281 273.237 16.3476 273.179 16.404C273.117 16.4638 273.046 16.5132 272.969 16.5503C272.888 16.59 272.801 16.616 272.712 16.6274Z" fill="#CACACA"/>
<path d="M273.203 274.996L0.174738 247.241C0.143008 247.237 0.112881 247.225 0.0880345 247.205C0.0622711 247.184 0.0418719 247.157 0.0284724 247.127C0.012888 247.092 0.00359156 247.055 0.00102498 247.016C-0.00195656 246.973 0.00157611 246.929 0.0114984 246.886C0.0214589 246.842 0.0375242 246.799 0.0592258 246.76C0.0794353 246.723 0.104953 246.689 0.13497 246.66C0.161319 246.634 0.192329 246.612 0.226452 246.597C0.257296 246.583 0.291197 246.577 0.324894 246.58L273.451 273.895C273.537 273.903 273.621 273.926 273.698 273.964C273.768 273.998 273.831 274.045 273.882 274.103C273.93 274.158 273.965 274.222 273.985 274.292C274.004 274.364 274.005 274.439 273.989 274.511C273.971 274.587 273.937 274.658 273.888 274.72C273.838 274.784 273.777 274.838 273.707 274.881C273.634 274.925 273.554 274.958 273.47 274.977C273.383 274.998 273.292 275.005 273.203 274.996Z" fill="#CACACA"/>
<path d="M5.64801 36.3557C6.00285 36.301 6.36595 36.3501 6.69345 36.4971C7.03029 36.6529 7.32456 36.8875 7.55132 37.181C7.81169 37.5163 8.00841 37.8964 8.13173 38.3024C8.27595 38.7718 8.34756 39.2605 8.34407 39.7515C8.3445 40.2617 8.27302 40.7693 8.13173 41.2596C8.00223 41.714 7.80668 42.147 7.55132 42.5447C7.32409 42.903 7.03338 43.2169 6.69345 43.471C6.38673 43.7004 6.02726 43.8491 5.64801 43.9036C5.29323 43.9519 4.93206 43.8968 4.60788 43.7449C4.27504 43.5841 3.98525 43.3465 3.7624 43.0519C3.50743 42.7171 3.31489 42.3393 3.19402 41.9364C3.05313 41.4724 2.98298 40.9899 2.98593 40.505C2.98585 40.0012 3.05588 39.4998 3.19402 39.0153C3.32074 38.5647 3.51207 38.1349 3.76206 37.7391C3.9859 37.3806 4.2724 37.0651 4.6079 36.8077C4.91172 36.5733 5.26915 36.418 5.64801 36.3557Z" fill="#3F3D56"/>
<path d="M15.1158 34.937C15.4865 34.8798 15.8658 34.9288 16.2097 35.0784C16.5608 35.2347 16.8692 35.4732 17.1086 35.7736C17.3804 36.1144 17.5863 36.5027 17.7159 36.9187C17.8667 37.3981 17.9416 37.8981 17.9378 38.4007C17.938 38.9231 17.8629 39.4429 17.7149 39.9441C17.579 40.4099 17.3747 40.853 17.1086 41.2589C16.8696 41.6273 16.5655 41.9492 16.2111 42.2089C15.889 42.4459 15.5132 42.5998 15.1172 42.657C14.7467 42.7075 14.3694 42.6522 14.0289 42.4976C13.6822 42.3353 13.3789 42.093 13.1442 41.7908C12.8778 41.4506 12.6759 41.0647 12.5486 40.652C12.4012 40.1783 12.3278 39.6848 12.3309 39.1888C12.3309 38.6731 12.4042 38.16 12.5486 37.6648C12.6816 37.2022 12.8818 36.7617 13.1428 36.3571C13.3782 35.9888 13.6779 35.6656 14.0275 35.4028C14.3469 35.1614 14.7205 35.0015 15.1158 34.937Z" fill="#3F3D56"/>
<path d="M25.0261 33.4498C25.4137 33.3894 25.8104 33.4378 26.1721 33.5894C26.5379 33.7476 26.8604 33.9912 27.1124 34.2998C27.3967 34.6463 27.6128 35.0433 27.7494 35.47C27.9077 35.9593 27.9867 36.4706 27.9834 36.9848C27.9833 37.5203 27.9045 38.0528 27.7494 38.5654C27.6061 39.0445 27.3913 39.4994 27.1124 39.9148C26.8607 40.2941 26.5421 40.6246 26.1721 40.8902C25.833 41.1342 25.4398 41.2926 25.0261 41.3518C24.6387 41.4049 24.2441 41.3497 23.8862 41.1924C23.5246 41.0289 23.207 40.7822 22.9593 40.4725C22.6817 40.1261 22.471 39.7312 22.3379 39.3079C22.1839 38.8247 22.107 38.3203 22.1099 37.8132C22.1099 37.2842 22.1866 36.758 22.3379 36.2511C22.4776 35.7763 22.687 35.3249 22.9593 34.9115C23.2073 34.5319 23.5213 34.1996 23.8865 33.9304C24.2225 33.6816 24.6133 33.5168 25.0261 33.4498Z" fill="#3F3D56"/>
<path d="M258.027 2.22532L241.413 4.62407C241.258 4.64759 241.1 4.64171 240.947 4.60675C240.809 4.57494 240.679 4.51476 240.566 4.43003C240.458 4.34947 240.37 4.24523 240.309 4.12537C240.247 4.00018 240.215 3.86204 240.215 3.72211C240.216 3.57306 240.248 3.42586 240.309 3.28986C240.372 3.14944 240.459 3.02099 240.566 2.91027C240.676 2.79491 240.805 2.69813 240.947 2.62363C241.092 2.54649 241.25 2.49461 241.413 2.47024L258.027 0.0160022C258.19 -0.00933939 258.357 -0.00454911 258.519 0.0301376C258.663 0.0609021 258.8 0.12105 258.921 0.206851C259.037 0.289623 259.131 0.399149 259.195 0.526098C259.26 0.653047 259.293 0.793666 259.291 0.935991C259.29 1.08981 259.256 1.24162 259.191 1.38131C259.125 1.52679 259.033 1.65946 258.921 1.77327C258.68 2.01708 258.366 2.17611 258.027 2.22637L258.027 2.22532Z" fill="#3F3D56"/>
<path d="M258.027 6.36722L241.413 8.66453C241.258 8.6871 241.1 8.68026 240.947 8.64438C240.809 8.61238 240.679 8.55221 240.566 8.46767C240.458 8.38648 240.37 8.28178 240.31 8.16158C240.246 8.03474 240.214 7.89473 240.215 7.75302C240.216 7.6042 240.248 7.45722 240.31 7.32148C240.372 7.18157 240.459 7.0537 240.566 6.94366C240.677 6.82951 240.805 6.73403 240.947 6.66093C241.092 6.58464 241.25 6.53373 241.413 6.51036L258.027 4.1579C258.191 4.13362 258.357 4.13949 258.519 4.17522C258.664 4.20726 258.8 4.26861 258.921 4.35548C259.034 4.43766 259.127 4.54496 259.192 4.66897C259.258 4.79789 259.292 4.94085 259.291 5.08567C259.29 5.23926 259.256 5.39086 259.191 5.53029C259.125 5.67482 259.033 5.80643 258.92 5.91907C258.679 6.1616 258.365 6.31873 258.026 6.36651L258.027 6.36722Z" fill="#3F3D56"/>
<path d="M258.027 10.5091L241.413 12.7004C241.258 12.722 241.099 12.7142 240.947 12.6774C240.809 12.6442 240.679 12.5828 240.566 12.4972C240.456 12.4139 240.367 12.3061 240.306 12.1824C240.245 12.0587 240.214 11.9225 240.215 11.7847C240.216 11.636 240.248 11.4891 240.309 11.3535C240.372 11.2139 240.459 11.0865 240.566 10.9771C240.676 10.8627 240.805 10.7672 240.947 10.6943C241.093 10.6189 241.25 10.5689 241.413 10.5466L258.027 8.30019C258.191 8.27698 258.357 8.28393 258.519 8.32069C258.664 8.35368 258.801 8.41586 258.921 8.50342C259.034 8.58632 259.127 8.69419 259.192 8.81868C259.258 8.94776 259.292 9.09081 259.291 9.23573C259.29 9.3891 259.256 9.54048 259.191 9.67964C259.125 9.82428 259.033 9.95593 258.92 10.0684C258.679 10.3095 258.365 10.4647 258.026 10.5102L258.027 10.5091Z" fill="#3F3D56"/>
<path d="M179.038 48.7559L259.292 41.9679V89.7415L179.038 90.7873V48.7559Z" fill="#F0F0F0"/>
<path d="M241.576 111.337L193.915 110.392C193.365 110.382 192.839 110.161 192.448 109.774C192.26 109.589 192.11 109.37 192.004 109.128C191.897 108.88 191.842 108.613 191.842 108.343C191.842 108.075 191.897 107.811 192.004 107.566C192.109 107.327 192.26 107.112 192.448 106.932C192.638 106.75 192.862 106.607 193.107 106.51C193.364 106.409 193.639 106.359 193.915 106.363L241.576 106.99C241.899 106.994 242.219 107.056 242.52 107.173C242.805 107.284 243.067 107.446 243.293 107.651C243.512 107.847 243.689 108.085 243.816 108.35C243.942 108.617 244.007 108.908 244.007 109.202C244.008 109.495 243.942 109.784 243.816 110.048C243.69 110.309 243.512 110.542 243.293 110.732C243.066 110.929 242.804 111.083 242.52 111.184C242.217 111.292 241.897 111.343 241.576 111.336L241.576 111.337Z" fill="#E4E4E4"/>
<path d="M233.388 103.827L201.122 103.556C200.838 103.554 200.557 103.498 200.294 103.389C200.043 103.286 199.814 103.136 199.619 102.948C199.427 102.763 199.273 102.542 199.165 102.299C199.055 102.049 198.999 101.78 198.999 101.508C198.999 101.235 199.055 100.966 199.165 100.717C199.273 100.474 199.427 100.255 199.619 100.072C199.814 99.8857 200.043 99.7383 200.294 99.6377C200.557 99.5318 200.838 99.4779 201.122 99.479L233.388 99.5341C233.703 99.534 234.015 99.5918 234.308 99.7044C234.586 99.8109 234.842 99.9677 235.062 100.167C235.276 100.36 235.449 100.593 235.572 100.854C235.695 101.116 235.759 101.402 235.759 101.692C235.759 101.982 235.695 102.268 235.572 102.531C235.449 102.789 235.276 103.021 235.063 103.211C234.842 103.409 234.586 103.563 234.309 103.666C234.015 103.776 233.703 103.831 233.389 103.828L233.388 103.827Z" fill="#E4E4E4"/>
<path d="M179.038 125.188L259.292 128.842V176.616L179.038 167.219V125.188Z" fill="#F0F0F0"/>
<path d="M241.576 195.906L193.915 188.759C193.631 188.715 193.357 188.621 193.107 188.48C192.859 188.34 192.637 188.161 192.448 187.949C192.261 187.742 192.111 187.504 192.005 187.246C191.899 186.991 191.843 186.717 191.842 186.441C191.84 186.179 191.896 185.921 192.005 185.683C192.108 185.461 192.259 185.265 192.448 185.109C192.641 184.95 192.865 184.836 193.107 184.772C193.371 184.704 193.646 184.689 193.915 184.73L241.576 191.558C241.906 191.606 242.225 191.71 242.52 191.865C242.807 192.015 243.068 192.21 243.293 192.443C243.511 192.667 243.688 192.927 243.816 193.211C243.94 193.487 244.006 193.786 244.008 194.089C244.01 194.374 243.944 194.655 243.816 194.91C243.691 195.152 243.513 195.363 243.293 195.525C243.063 195.695 242.799 195.815 242.52 195.877C242.21 195.945 241.89 195.955 241.576 195.906L241.576 195.906Z" fill="#E4E4E4"/>
<path d="M233.388 187.331L201.122 182.862C200.832 182.821 200.551 182.728 200.294 182.587C200.041 182.449 199.813 182.27 199.619 182.057C199.428 181.849 199.275 181.61 199.165 181.35C199.057 181.093 199 180.816 198.999 180.536C198.997 180.271 199.054 180.009 199.165 179.768C199.271 179.542 199.426 179.342 199.619 179.182C199.817 179.02 200.047 178.902 200.294 178.836C200.564 178.764 200.845 178.746 201.122 178.785L233.388 183.038C233.709 183.081 234.02 183.179 234.308 183.328C234.588 183.473 234.843 183.662 235.062 183.889C235.275 184.108 235.447 184.363 235.571 184.641C235.693 184.913 235.756 185.207 235.758 185.505C235.76 185.786 235.696 186.065 235.571 186.318C235.45 186.558 235.276 186.769 235.062 186.932C234.838 187.102 234.582 187.224 234.308 187.289C234.007 187.361 233.695 187.375 233.388 187.331V187.331Z" fill="#E4E4E4"/>
<path d="M132.418 167.58L6.2398 151.447C5.89637 151.398 5.5708 151.263 5.2931 151.056C4.98783 150.829 4.72682 150.548 4.523 150.226C4.29495 149.871 4.1205 149.484 4.00524 149.077C3.87911 148.638 3.81514 148.183 3.81519 147.727V68.1485C3.81465 67.6941 3.87864 67.2419 4.00524 66.8054C4.11979 66.4069 4.29437 66.028 4.523 65.6819C4.7263 65.3702 4.9876 65.1003 5.29274 64.887C5.57285 64.6913 5.89907 64.5715 6.23944 64.5396L132.418 54.2221C132.958 54.1757 133.503 54.2482 134.012 54.4344C134.521 54.6207 134.984 54.9162 135.366 55.3001C135.755 55.6886 136.061 56.1513 136.267 56.6605C136.488 57.2099 136.601 57.7971 136.599 58.3895V163.604C136.602 164.191 136.489 164.774 136.267 165.317C136.062 165.815 135.756 166.264 135.366 166.636C134.988 166.996 134.534 167.268 134.037 167.432C133.515 167.601 132.962 167.652 132.418 167.58Z" fill="white"/>
<path d="M82.527 108.9C82.1885 108.46 81.807 108.056 81.3881 107.692C80.9897 107.345 80.5556 107.042 80.0932 106.788C79.6473 106.542 79.175 106.348 78.6853 106.208C78.2038 106.072 77.7077 105.993 77.2074 105.974C76.7127 105.956 76.2177 105.997 75.733 106.098C75.2502 106.199 74.7809 106.356 74.3348 106.566C73.879 106.781 73.4487 107.047 73.0519 107.357C72.6384 107.68 72.2601 108.046 71.9232 108.449L37.9719 148.969C37.5798 149.449 37.0774 149.828 36.5075 150.072C35.9853 150.29 35.4157 150.37 34.8537 150.304C34.2665 150.231 33.7043 150.023 33.2112 149.696C32.6456 149.321 32.158 148.84 31.7751 148.279L27.2776 141.822C26.7603 141.057 26.0969 140.401 25.3255 139.892C24.6662 139.458 23.9122 139.189 23.127 139.106C22.3815 139.035 21.6304 139.162 20.9498 139.474C20.2045 139.825 19.5544 140.35 19.0539 141.004L10.9172 151.306L124.661 165.648V163.633L82.527 108.9Z" fill="#00A99D"/>
<path d="M132.418 169.101L6.23979 152.615C5.77965 152.548 5.34373 152.366 4.97209 152.087C4.5637 151.782 4.21467 151.404 3.94223 150.974C3.63761 150.497 3.40462 149.979 3.25069 149.435C3.08224 148.848 2.99671 148.24 2.99658 147.629V68.2086C2.99615 67.6013 3.08171 66.9971 3.25069 66.4138C3.40347 65.8795 3.63664 65.3715 3.94223 64.9071C4.21411 64.4893 4.56356 64.1274 4.97173 63.8408C5.34657 63.5777 5.78336 63.416 6.23942 63.3718L132.417 52.6981C133.142 52.6339 133.873 52.7294 134.557 52.9778C135.241 53.2262 135.862 53.6216 136.377 54.1359C136.9 54.6566 137.312 55.2774 137.589 55.961C137.887 56.699 138.039 57.4879 138.036 58.2838V163.776C138.041 164.565 137.888 165.347 137.589 166.078C137.314 166.746 136.901 167.349 136.377 167.847C135.867 168.33 135.257 168.693 134.59 168.91C133.889 169.135 133.147 169.2 132.417 169.102L132.418 169.101ZM6.23979 65.7073C6.01521 65.7278 5.79983 65.8062 5.61479 65.9349C5.41309 66.0753 5.24032 66.2531 5.10587 66.4587C4.95457 66.6873 4.83905 66.9376 4.76329 67.2009C4.67948 67.4891 4.63705 67.7876 4.63729 68.0877V147.822C4.63734 148.124 4.67976 148.425 4.76329 148.715C4.83954 148.983 4.95497 149.239 5.10587 149.474C5.2405 149.686 5.41326 149.873 5.6155 150.023C5.79895 150.16 6.01391 150.248 6.24049 150.279L132.418 166.056C132.777 166.102 133.142 166.068 133.485 165.956C133.812 165.847 134.111 165.667 134.36 165.43C134.616 165.184 134.817 164.888 134.952 164.56C135.098 164.202 135.172 163.819 135.17 163.432V58.4948C135.171 58.1051 135.097 57.7188 134.952 57.3571C134.816 57.0216 134.615 56.7167 134.36 56.4604C134.108 56.2069 133.804 56.0114 133.469 55.8879C133.133 55.7643 132.775 55.7155 132.418 55.7451L6.23979 65.7073Z" fill="#CBCBCB"/>
<path d="M23.937 251.912L27.7307 251.911L29.5355 237.298L23.9365 237.298L23.937 251.912Z" fill="#FFB6B6"/>
<path d="M22.9692 250.675L30.4405 250.675H30.4408C31.7035 250.675 32.9145 251.176 33.8074 252.067C34.7003 252.959 35.202 254.168 35.2021 255.429V255.584L22.9695 255.584L22.9692 250.675Z" fill="#2F2E41"/>
<path d="M58.9043 256.912L62.698 256.912L64.5027 242.298L58.9038 242.299L58.9043 256.912Z" fill="#FFB6B6"/>
<path d="M57.9365 255.675L65.4078 255.675H65.4081C66.6708 255.675 67.8818 256.176 68.7747 257.067C69.6676 257.959 70.1693 259.168 70.1693 260.429V260.584L57.9368 260.584L57.9365 255.675Z" fill="#2F2E41"/>
<path d="M54.3238 139.511L56.7994 155.272L33.2812 155.581L36.3759 140.438L54.3238 139.511Z" fill="#FFB6B6"/>
<path d="M56.1167 151.423L63.607 171.341L64.5354 253.884H58.1917L43.029 187.566L29.1039 247.153H22.915L27.2473 179.531C27.2473 179.531 25.9697 164.955 32.5078 156.353L34.0992 151.762L56.1167 151.423Z" fill="#2F2E41"/>
<path d="M23.9876 166.95C24.6424 166.772 25.2501 166.453 25.7679 166.015C26.2858 165.577 26.7011 165.03 26.9847 164.415C27.2683 163.799 27.4132 163.128 27.4093 162.451C27.4054 161.773 27.2527 161.104 26.962 160.492L36.9668 127.917L29.6079 126.46L20.4575 158.39C19.4595 158.946 18.7004 159.848 18.324 160.926C17.9476 162.003 17.98 163.181 18.4151 164.236C18.8503 165.291 19.6579 166.151 20.6849 166.651C21.7119 167.151 22.8871 167.258 23.9876 166.95Z" fill="#FFB6B6"/>
<path d="M37.1828 148.216C37.0455 148.216 36.9085 148.202 36.7739 148.175C36.321 148.085 35.9103 147.849 35.6044 147.503C35.2985 147.158 35.1143 146.722 35.0799 146.262C34.8472 143.081 33.6946 137.544 31.6539 129.805C30.9651 127.175 31.1176 124.396 32.0903 121.856C33.0629 119.317 34.8069 117.145 37.0777 115.646C39.3484 114.146 42.0322 113.393 44.7527 113.494C47.4733 113.594 50.0942 114.542 52.2481 116.205C53.6272 117.26 54.7782 118.583 55.6318 120.094C56.4854 121.605 57.024 123.272 57.2151 124.997C58.2293 133.916 56.3172 142.872 55.4481 146.308C55.3339 146.757 55.0756 147.156 54.7128 147.444C54.35 147.731 53.9026 147.893 53.4392 147.903L37.2278 148.215C37.2128 148.215 37.1978 148.216 37.1828 148.216Z" fill="#3F3D56"/>
<path d="M82.4745 119.602C82.3771 119.82 82.2971 120.046 82.2352 120.276L61.9431 127.162L58.0221 123.742L52.0791 128.976L58.4312 135.706C58.9444 136.25 59.6203 136.612 60.3575 136.74C61.0946 136.867 61.8533 136.752 62.5195 136.413L84.2333 125.336C85.0186 125.817 85.9318 126.048 86.8517 125.998C87.7715 125.948 88.6543 125.619 89.3826 125.056C90.111 124.493 90.6504 123.722 90.929 122.845C91.2077 121.968 91.2124 121.027 90.9426 120.147C90.6728 119.268 90.1412 118.491 89.4186 117.921C88.696 117.35 87.8165 117.013 86.8972 116.953C85.9779 116.894 85.0624 117.116 84.2724 117.589C83.4823 118.062 82.8552 118.764 82.4745 119.602V119.602Z" fill="#FFB6B6"/>
<path d="M61.2357 127.539L53.8383 133.991C53.6278 134.175 53.3802 134.311 53.1123 134.39C52.8444 134.47 52.5625 134.491 52.2858 134.451C52.0091 134.412 51.7442 134.314 51.509 134.163C51.2738 134.012 51.0738 133.813 50.9228 133.578L45.6317 125.35C44.6974 124.269 44.2304 122.862 44.333 121.438C44.4356 120.014 45.0995 118.689 46.179 117.753C47.2585 116.817 48.6657 116.346 50.092 116.445C51.5183 116.543 52.8473 117.202 53.7877 118.278L61.2178 124.598C61.4305 124.779 61.6016 125.004 61.7195 125.257C61.8374 125.51 61.8993 125.785 61.901 126.064C61.9027 126.343 61.8441 126.62 61.7293 126.874C61.6145 127.129 61.4461 127.355 61.2357 127.539Z" fill="#3F3D56"/>
<path d="M35.7982 136.258L26.6567 132.671C26.3966 132.569 26.1615 132.412 25.9676 132.211C25.7737 132.01 25.6254 131.77 25.5328 131.507C25.4403 131.243 25.4057 130.963 25.4313 130.685C25.4569 130.407 25.5423 130.138 25.6814 129.896L30.5588 121.417C31.0893 120.091 32.1246 119.029 33.4376 118.464C34.7507 117.9 36.2344 117.878 37.5635 118.404C38.8927 118.93 39.9588 119.961 40.5281 121.27C41.0974 122.58 41.1235 124.062 40.6007 125.39L38.4039 134.888C38.3409 135.16 38.22 135.415 38.0494 135.636C37.8788 135.857 37.6624 136.038 37.4152 136.168C37.1679 136.298 36.8954 136.374 36.6164 136.389C36.3374 136.404 36.0583 136.36 35.7982 136.258Z" fill="#3F3D56"/>
<path d="M42.5746 111.486C48.0664 111.486 52.5183 107.04 52.5183 101.555C52.5183 96.071 48.0664 91.6249 42.5746 91.6249C37.0828 91.6249 32.6309 96.071 32.6309 101.555C32.6309 107.04 37.0828 111.486 42.5746 111.486Z" fill="#FFB6B6"/>
<path d="M55.8869 98.2079H40.0974V91.3345C43.563 89.9595 46.9543 88.7902 49.0043 91.3345C50.8297 91.3345 52.5803 92.0587 53.871 93.3477C55.1617 94.6367 55.8869 96.3849 55.8869 98.2079V98.2079Z" fill="#2F2E41"/>
<path d="M39.1869 111.844C45.4713 111.844 50.5659 106.757 50.5659 100.481C50.5659 94.2046 45.4713 89.1168 39.1869 89.1168C32.9024 89.1168 27.8079 94.2046 27.8079 100.481C27.8079 106.757 32.9024 111.844 39.1869 111.844Z" fill="#2F2E41"/>
<path d="M30.994 99.117C35.0161 99.117 38.2766 95.8608 38.2766 91.8441C38.2766 87.8275 35.0161 84.5713 30.994 84.5713C26.9719 84.5713 23.7114 87.8275 23.7114 91.8441C23.7114 95.8608 26.9719 99.117 30.994 99.117Z" fill="#2F2E41"/>
</g>
<defs>
<clipPath id="clip0_35_462">
<rect width="274" height="275" fill="white"/>
</clipPath>
</defs>
</svg>
